<?xml version="1.0" encoding="utf-8" standalone="no"?>
<!DOCTYPE svg PUBLIC "-//W3C//DTD SVG 1.1//EN"
  "http://www.w3.org/Graphics/SVG/1.1/DTD/svg11.dtd">
<svg xmlns:xlink="http://www.w3.org/1999/xlink" width="1712.619594pt" height="607.68pt" viewBox="0 0 1712.619594 607.68" xmlns="http://www.w3.org/2000/svg" version="1.1">
 <metadata>
  <rdf:RDF xmlns:dc="http://purl.org/dc/elements/1.1/" xmlns:cc="http://creativecommons.org/ns#" xmlns:rdf="http://www.w3.org/1999/02/22-rdf-syntax-ns#">
   <cc:Work>
    <dc:type rdf:resource="http://purl.org/dc/dcmitype/StillImage"/>
    <dc:format>image/svg+xml</dc:format>
    <dc:creator>
     <cc:Agent>
      <dc:title>manual_coding_sim</dc:title>
     </cc:Agent>
    </dc:creator>
   </cc:Work>
  </rdf:RDF>
 </metadata>
 <defs>
  <style type="text/css">*{stroke-linejoin: round; stroke-linecap: butt}</style>
 </defs>
 <g id="figure_1">
  <g id="patch_1">
   <path d="M 0 607.68 
L 1712.619594 607.68 
L 1712.619594 0 
L 0 0 
z
" style="fill: #ffffff"/>
  </g>
  <g id="axes_1">
   <g id="patch_2">
    <path d="M 279.589797 530.64 
L 720.440101 530.64 
L 720.440101 90 
L 279.589797 90 
z
" style="fill: #ffffff"/>
   </g>
   <g id="patch_3">
    <path d="M 279.589797 530.64 
L 307.142941 530.64 
L 307.142941 110.982857 
L 279.589797 110.982857 
z
" clip-path="url(#p66e798096e)" style="fill: #1f77b4; opacity: 0.86; stroke: #ffffff; stroke-width: 0.9; stroke-linejoin: miter"/>
   </g>
   <g id="patch_4">
    <path d="M 307.142941 530.64 
L 334.696085 530.64 
L 334.696085 110.982857 
L 307.142941 110.982857 
z
" clip-path="url(#p66e798096e)" style="fill: #1f77b4; opacity: 0.86; stroke: #ffffff; stroke-width: 0.9; stroke-linejoin: miter"/>
   </g>
   <g id="patch_5">
    <path d="M 334.696085 530.64 
L 362.249229 530.64 
L 362.249229 227.554286 
L 334.696085 227.554286 
z
" clip-path="url(#p66e798096e)" style="fill: #1f77b4; opacity: 0.86; stroke: #ffffff; stroke-width: 0.9; stroke-linejoin: miter"/>
   </g>
   <g id="patch_6">
    <path d="M 362.249229 530.64 
L 389.802373 530.64 
L 389.802373 344.125714 
L 362.249229 344.125714 
z
" clip-path="url(#p66e798096e)" style="fill: #1f77b4; opacity: 0.86; stroke: #ffffff; stroke-width: 0.9; stroke-linejoin: miter"/>
   </g>
   <g id="patch_7">
    <path d="M 389.802373 530.64 
L 417.355517 530.64 
L 417.355517 367.44 
L 389.802373 367.44 
z
" clip-path="url(#p66e798096e)" style="fill: #1f77b4; opacity: 0.86; stroke: #ffffff; stroke-width: 0.9; stroke-linejoin: miter"/>
   </g>
   <g id="patch_8">
    <path d="M 417.355517 530.64 
L 444.908661 530.64 
L 444.908661 250.868571 
L 417.355517 250.868571 
z
" clip-path="url(#p66e798096e)" style="fill: #1f77b4; opacity: 0.86; stroke: #ffffff; stroke-width: 0.9; stroke-linejoin: miter"/>
   </g>
   <g id="patch_9">
    <path d="M 444.908661 530.64 
L 472.461805 530.64 
L 472.461805 274.182857 
L 444.908661 274.182857 
z
" clip-path="url(#p66e798096e)" style="fill: #1f77b4; opacity: 0.86; stroke: #ffffff; stroke-width: 0.9; stroke-linejoin: miter"/>
   </g>
   <g id="patch_10">
    <path d="M 472.461805 530.64 
L 500.014949 530.64 
L 500.014949 414.068571 
L 472.461805 414.068571 
z
" clip-path="url(#p66e798096e)" style="fill: #1f77b4; opacity: 0.86; stroke: #ffffff; stroke-width: 0.9; stroke-linejoin: miter"/>
   </g>
   <g id="patch_11">
    <path d="M 500.014949 530.64 
L 527.568093 530.64 
L 527.568093 344.125714 
L 500.014949 344.125714 
z
" clip-path="url(#p66e798096e)" style="fill: #1f77b4; opacity: 0.86; stroke: #ffffff; stroke-width: 0.9; stroke-linejoin: miter"/>
   </g>
   <g id="patch_12">
    <path d="M 527.568093 530.64 
L 555.121237 530.64 
L 555.121237 367.44 
L 527.568093 367.44 
z
" clip-path="url(#p66e798096e)" style="fill: #1f77b4; opacity: 0.86; stroke: #ffffff; stroke-width: 0.9; stroke-linejoin: miter"/>
   </g>
   <g id="patch_13">
    <path d="M 555.121237 530.64 
L 582.674381 530.64 
L 582.674381 250.868571 
L 555.121237 250.868571 
z
" clip-path="url(#p66e798096e)" style="fill: #1f77b4; opacity: 0.86; stroke: #ffffff; stroke-width: 0.9; stroke-linejoin: miter"/>
   </g>
   <g id="patch_14">
    <path d="M 582.674381 530.64 
L 610.227525 530.64 
L 610.227525 274.182857 
L 582.674381 274.182857 
z
" clip-path="url(#p66e798096e)" style="fill: #1f77b4; opacity: 0.86; stroke: #ffffff; stroke-width: 0.9; stroke-linejoin: miter"/>
   </g>
   <g id="patch_15">
    <path d="M 610.227525 530.64 
L 637.780669 530.64 
L 637.780669 274.182857 
L 610.227525 274.182857 
z
" clip-path="url(#p66e798096e)" style="fill: #1f77b4; opacity: 0.86; stroke: #ffffff; stroke-width: 0.9; stroke-linejoin: miter"/>
   </g>
   <g id="patch_16">
    <path d="M 637.780669 530.64 
L 665.333813 530.64 
L 665.333813 484.011429 
L 637.780669 484.011429 
z
" clip-path="url(#p66e798096e)" style="fill: #1f77b4; opacity: 0.86; stroke: #ffffff; stroke-width: 0.9; stroke-linejoin: miter"/>
   </g>
   <g id="patch_17">
    <path d="M 665.333813 530.64 
L 692.886957 530.64 
L 692.886957 390.754286 
L 665.333813 390.754286 
z
" clip-path="url(#p66e798096e)" style="fill: #1f77b4; opacity: 0.86; stroke: #ffffff; stroke-width: 0.9; stroke-linejoin: miter"/>
   </g>
   <g id="patch_18">
    <path d="M 692.886957 530.64 
L 720.440101 530.64 
L 720.440101 507.325714 
L 692.886957 507.325714 
z
" clip-path="url(#p66e798096e)" style="fill: #1f77b4; opacity: 0.86; stroke: #ffffff; stroke-width: 0.9; stroke-linejoin: miter"/>
   </g>
   <g id="matplotlib.axis_1">
    <g id="xtick_1">
     <g id="line2d_1">
      <defs>
       <path id="m4183892b9b" d="M 0 0 
L 0 3.5 
" style="stroke: #000000; stroke-width: 0.8"/>
      </defs>
      <g>
       <use xlink:href="#m4183892b9b" x="279.589797" y="530.64" style="stroke: #000000; stroke-width: 0.8"/>
      </g>
     </g>
     <g id="text_1">
      <text style="font-size: 11px; font-family: 'DejaVu Sans'; text-anchor: middle" x="279.589797" y="545.997422" transform="rotate(-0 279.589797 545.997422)">0.00</text>
     </g>
    </g>
    <g id="xtick_2">
     <g id="line2d_2">
      <g>
       <use xlink:href="#m4183892b9b" x="334.467901" y="530.64" style="stroke: #000000; stroke-width: 0.8"/>
      </g>
     </g>
     <g id="text_2">
      <text style="font-size: 11px; font-family: 'DejaVu Sans'; text-anchor: middle" x="334.467901" y="545.997422" transform="rotate(-0 334.467901 545.997422)">0.05</text>
     </g>
    </g>
    <g id="xtick_3">
     <g id="line2d_3">
      <g>
       <use xlink:href="#m4183892b9b" x="389.346004" y="530.64" style="stroke: #000000; stroke-width: 0.8"/>
      </g>
     </g>
     <g id="text_3">
      <text style="font-size: 11px; font-family: 'DejaVu Sans'; text-anchor: middle" x="389.346004" y="545.997422" transform="rotate(-0 389.346004 545.997422)">0.10</text>
     </g>
    </g>
    <g id="xtick_4">
     <g id="line2d_4">
      <g>
       <use xlink:href="#m4183892b9b" x="444.224108" y="530.64" style="stroke: #000000; stroke-width: 0.8"/>
      </g>
     </g>
     <g id="text_4">
      <text style="font-size: 11px; font-family: 'DejaVu Sans'; text-anchor: middle" x="444.224108" y="545.997422" transform="rotate(-0 444.224108 545.997422)">0.15</text>
     </g>
    </g>
    <g id="xtick_5">
     <g id="line2d_5">
      <g>
       <use xlink:href="#m4183892b9b" x="499.102212" y="530.64" style="stroke: #000000; stroke-width: 0.8"/>
      </g>
     </g>
     <g id="text_5">
      <text style="font-size: 11px; font-family: 'DejaVu Sans'; text-anchor: middle" x="499.102212" y="545.997422" transform="rotate(-0 499.102212 545.997422)">0.20</text>
     </g>
    </g>
    <g id="xtick_6">
     <g id="line2d_6">
      <g>
       <use xlink:href="#m4183892b9b" x="553.980316" y="530.64" style="stroke: #000000; stroke-width: 0.8"/>
      </g>
     </g>
     <g id="text_6">
      <text style="font-size: 11px; font-family: 'DejaVu Sans'; text-anchor: middle" x="553.980316" y="545.997422" transform="rotate(-0 553.980316 545.997422)">0.25</text>
     </g>
    </g>
    <g id="xtick_7">
     <g id="line2d_7">
      <g>
       <use xlink:href="#m4183892b9b" x="608.85842" y="530.64" style="stroke: #000000; stroke-width: 0.8"/>
      </g>
     </g>
     <g id="text_7">
      <text style="font-size: 11px; font-family: 'DejaVu Sans'; text-anchor: middle" x="608.85842" y="545.997422" transform="rotate(-0 608.85842 545.997422)">0.30</text>
     </g>
    </g>
    <g id="xtick_8">
     <g id="line2d_8">
      <g>
       <use xlink:href="#m4183892b9b" x="663.736523" y="530.64" style="stroke: #000000; stroke-width: 0.8"/>
      </g>
     </g>
     <g id="text_8">
      <text style="font-size: 11px; font-family: 'DejaVu Sans'; text-anchor: middle" x="663.736523" y="545.997422" transform="rotate(-0 663.736523 545.997422)">0.35</text>
     </g>
    </g>
    <g id="xtick_9">
     <g id="line2d_9">
      <g>
       <use xlink:href="#m4183892b9b" x="718.614627" y="530.64" style="stroke: #000000; stroke-width: 0.8"/>
      </g>
     </g>
     <g id="text_9">
      <text style="font-size: 11px; font-family: 'DejaVu Sans'; text-anchor: middle" x="718.614627" y="545.997422" transform="rotate(-0 718.614627 545.997422)">0.40</text>
     </g>
    </g>
    <g id="text_10">
     <!-- Абсолютная ошибка $|e_i|=|Q_{pred,i}-Q_{fact,i}|$ -->
     <g transform="translate(382.534949 561.22)">
      <text>
       <tspan x="0" y="-0.453125" style="font-size: 11px; font-family: 'DejaVu Sans'">А</tspan>
       <tspan x="7.524902" y="-0.453125" style="font-size: 11px; font-family: 'DejaVu Sans'">б</tspan>
       <tspan x="14.308594" y="-0.453125" style="font-size: 11px; font-family: 'DejaVu Sans'">с</tspan>
       <tspan x="20.356445" y="-0.453125" style="font-size: 11px; font-family: 'DejaVu Sans'">о</tspan>
       <tspan x="27.086426" y="-0.453125" style="font-size: 11px; font-family: 'DejaVu Sans'">л</tspan>
       <tspan x="34.117188" y="-0.453125" style="font-size: 11px; font-family: 'DejaVu Sans'">ю</tspan>
       <tspan x="43.376953" y="-0.453125" style="font-size: 11px; font-family: 'DejaVu Sans'">т</tspan>
       <tspan x="49.784668" y="-0.453125" style="font-size: 11px; font-family: 'DejaVu Sans'">н</tspan>
       <tspan x="56.976562" y="-0.453125" style="font-size: 11px; font-family: 'DejaVu Sans'">а</tspan>
       <tspan x="63.717285" y="-0.453125" style="font-size: 11px; font-family: 'DejaVu Sans'">я</tspan>
       <tspan x="70.334473" y="-0.453125" style="font-size: 11px; font-family: 'DejaVu Sans'"> </tspan>
       <tspan x="73.831055" y="-0.453125" style="font-size: 11px; font-family: 'DejaVu Sans'">о</tspan>
       <tspan x="80.561035" y="-0.453125" style="font-size: 11px; font-family: 'DejaVu Sans'">ш</tspan>
       <tspan x="90.626465" y="-0.453125" style="font-size: 11px; font-family: 'DejaVu Sans'">и</tspan>
       <tspan x="97.775391" y="-0.453125" style="font-size: 11px; font-family: 'DejaVu Sans'">б</tspan>
       <tspan x="104.559082" y="-0.453125" style="font-size: 11px; font-family: 'DejaVu Sans'">к</tspan>
       <tspan x="111.203125" y="-0.453125" style="font-size: 11px; font-family: 'DejaVu Sans'">а</tspan>
       <tspan x="117.943848" y="-0.453125" style="font-size: 11px; font-family: 'DejaVu Sans'"> </tspan>
       <tspan x="121.44043" y="-0.453125" style="font-size: 11px; font-family: 'DejaVu Sans'">|</tspan>
       <tspan x="134.35415" y="-0.453125" style="font-size: 11px; font-family: 'DejaVu Sans'">|</tspan>
       <tspan x="140.203271" y="-0.453125" style="font-size: 11px; font-family: 'DejaVu Sans'">=</tspan>
       <tspan x="151.563135" y="-0.453125" style="font-size: 11px; font-family: 'DejaVu Sans'">|</tspan>
       <tspan x="190.136719" y="-0.453125" style="font-size: 11px; font-family: 'DejaVu Sans'">−</tspan>
       <tspan x="231.224512" y="-0.453125" style="font-size: 11px; font-family: 'DejaVu Sans'">|</tspan>
       <tspan x="125.146484" y="-0.453125" style="font-style: oblique; font-size: 11px; font-family: 'DejaVu Sans'">e</tspan>
       <tspan x="155.269189" y="-0.453125" style="font-style: oblique; font-size: 11px; font-family: 'DejaVu Sans'">Q</tspan>
       <tspan x="201.496582" y="-0.453125" style="font-style: oblique; font-size: 11px; font-family: 'DejaVu Sans'">Q</tspan>
       <tspan x="131.914062" y="1.19687" style="font-style: oblique; font-size: 7.7px; font-family: 'DejaVu Sans'">i</tspan>
       <tspan x="163.927393" y="1.19687" style="font-style: oblique; font-size: 7.7px; font-family: 'DejaVu Sans'">p</tspan>
       <tspan x="168.815088" y="1.19687" style="font-style: oblique; font-size: 7.7px; font-family: 'DejaVu Sans'">r</tspan>
       <tspan x="171.980811" y="1.19687" style="font-style: oblique; font-size: 7.7px; font-family: 'DejaVu Sans'">e</tspan>
       <tspan x="176.718115" y="1.19687" style="font-style: oblique; font-size: 7.7px; font-family: 'DejaVu Sans'">d</tspan>
       <tspan x="185.553564" y="1.19687" style="font-style: oblique; font-size: 7.7px; font-family: 'DejaVu Sans'">i</tspan>
       <tspan x="210.154785" y="1.19687" style="font-style: oblique; font-size: 7.7px; font-family: 'DejaVu Sans'">f</tspan>
       <tspan x="212.865576" y="1.19687" style="font-style: oblique; font-size: 7.7px; font-family: 'DejaVu Sans'">a</tspan>
       <tspan x="217.584082" y="1.19687" style="font-style: oblique; font-size: 7.7px; font-family: 'DejaVu Sans'">c</tspan>
       <tspan x="221.817578" y="1.19687" style="font-style: oblique; font-size: 7.7px; font-family: 'DejaVu Sans'">t</tspan>
       <tspan x="228.784424" y="1.19687" style="font-style: oblique; font-size: 7.7px; font-family: 'DejaVu Sans'">i</tspan>
       <tspan x="181.605811" y="1.19687" style="font-size: 7.7px; font-family: 'DejaVu Sans'">,</tspan>
       <tspan x="224.83667" y="1.19687" style="font-size: 7.7px; font-family: 'DejaVu Sans'">,</tspan>
      </text>
     </g>
    </g>
   </g>
   <g id="matplotlib.axis_2">
    <g id="ytick_1">
     <g id="line2d_10">
      <path d="M 279.589797 530.64 
L 720.440101 530.64 
" clip-path="url(#p66e798096e)" style="fill: none; stroke: #b0b0b0; stroke-opacity: 0.24; stroke-width: 0.8; stroke-linecap: square"/>
     </g>
     <g id="line2d_11">
      <defs>
       <path id="m16050b89f0" d="M 0 0 
L -3.5 0 
" style="stroke: #000000; stroke-width: 0.8"/>
      </defs>
      <g>
       <use xlink:href="#m16050b89f0" x="279.589797" y="530.64" style="stroke: #000000; stroke-width: 0.8"/>
      </g>
     </g>
     <g id="text_11">
      <text style="font-size: 11px; font-family: 'DejaVu Sans'; text-anchor: end" x="272.589797" y="534.818711" transform="rotate(-0 272.589797 534.818711)">0.0</text>
     </g>
    </g>
    <g id="ytick_2">
     <g id="line2d_12">
      <path d="M 279.589797 472.354286 
L 720.440101 472.354286 
" clip-path="url(#p66e798096e)" style="fill: none; stroke: #b0b0b0; stroke-opacity: 0.24; stroke-width: 0.8; stroke-linecap: square"/>
     </g>
     <g id="line2d_13">
      <g>
       <use xlink:href="#m16050b89f0" x="279.589797" y="472.354286" style="stroke: #000000; stroke-width: 0.8"/>
      </g>
     </g>
     <g id="text_12">
      <text style="font-size: 11px; font-family: 'DejaVu Sans'; text-anchor: end" x="272.589797" y="476.532997" transform="rotate(-0 272.589797 476.532997)">2.5</text>
     </g>
    </g>
    <g id="ytick_3">
     <g id="line2d_14">
      <path d="M 279.589797 414.068571 
L 720.440101 414.068571 
" clip-path="url(#p66e798096e)" style="fill: none; stroke: #b0b0b0; stroke-opacity: 0.24; stroke-width: 0.8; stroke-linecap: square"/>
     </g>
     <g id="line2d_15">
      <g>
       <use xlink:href="#m16050b89f0" x="279.589797" y="414.068571" style="stroke: #000000; stroke-width: 0.8"/>
      </g>
     </g>
     <g id="text_13">
      <text style="font-size: 11px; font-family: 'DejaVu Sans'; text-anchor: end" x="272.589797" y="418.247282" transform="rotate(-0 272.589797 418.247282)">5.0</text>
     </g>
    </g>
    <g id="ytick_4">
     <g id="line2d_16">
      <path d="M 279.589797 355.782857 
L 720.440101 355.782857 
" clip-path="url(#p66e798096e)" style="fill: none; stroke: #b0b0b0; stroke-opacity: 0.24; stroke-width: 0.8; stroke-linecap: square"/>
     </g>
     <g id="line2d_17">
      <g>
       <use xlink:href="#m16050b89f0" x="279.589797" y="355.782857" style="stroke: #000000; stroke-width: 0.8"/>
      </g>
     </g>
     <g id="text_14">
      <text style="font-size: 11px; font-family: 'DejaVu Sans'; text-anchor: end" x="272.589797" y="359.961568" transform="rotate(-0 272.589797 359.961568)">7.5</text>
     </g>
    </g>
    <g id="ytick_5">
     <g id="line2d_18">
      <path d="M 279.589797 297.497143 
L 720.440101 297.497143 
" clip-path="url(#p66e798096e)" style="fill: none; stroke: #b0b0b0; stroke-opacity: 0.24; stroke-width: 0.8; stroke-linecap: square"/>
     </g>
     <g id="line2d_19">
      <g>
       <use xlink:href="#m16050b89f0" x="279.589797" y="297.497143" style="stroke: #000000; stroke-width: 0.8"/>
      </g>
     </g>
     <g id="text_15">
      <text style="font-size: 11px; font-family: 'DejaVu Sans'; text-anchor: end" x="272.589797" y="301.675854" transform="rotate(-0 272.589797 301.675854)">10.0</text>
     </g>
    </g>
    <g id="ytick_6">
     <g id="line2d_20">
      <path d="M 279.589797 239.211429 
L 720.440101 239.211429 
" clip-path="url(#p66e798096e)" style="fill: none; stroke: #b0b0b0; stroke-opacity: 0.24; stroke-width: 0.8; stroke-linecap: square"/>
     </g>
     <g id="line2d_21">
      <g>
       <use xlink:href="#m16050b89f0" x="279.589797" y="239.211429" style="stroke: #000000; stroke-width: 0.8"/>
      </g>
     </g>
     <g id="text_16">
      <text style="font-size: 11px; font-family: 'DejaVu Sans'; text-anchor: end" x="272.589797" y="243.39014" transform="rotate(-0 272.589797 243.39014)">12.5</text>
     </g>
    </g>
    <g id="ytick_7">
     <g id="line2d_22">
      <path d="M 279.589797 180.925714 
L 720.440101 180.925714 
" clip-path="url(#p66e798096e)" style="fill: none; stroke: #b0b0b0; stroke-opacity: 0.24; stroke-width: 0.8; stroke-linecap: square"/>
     </g>
     <g id="line2d_23">
      <g>
       <use xlink:href="#m16050b89f0" x="279.589797" y="180.925714" style="stroke: #000000; stroke-width: 0.8"/>
      </g>
     </g>
     <g id="text_17">
      <text style="font-size: 11px; font-family: 'DejaVu Sans'; text-anchor: end" x="272.589797" y="185.104425" transform="rotate(-0 272.589797 185.104425)">15.0</text>
     </g>
    </g>
    <g id="ytick_8">
     <g id="line2d_24">
      <path d="M 279.589797 122.64 
L 720.440101 122.64 
" clip-path="url(#p66e798096e)" style="fill: none; stroke: #b0b0b0; stroke-opacity: 0.24; stroke-width: 0.8; stroke-linecap: square"/>
     </g>
     <g id="line2d_25">
      <g>
       <use xlink:href="#m16050b89f0" x="279.589797" y="122.64" style="stroke: #000000; stroke-width: 0.8"/>
      </g>
     </g>
     <g id="text_18">
      <text style="font-size: 11px; font-family: 'DejaVu Sans'; text-anchor: end" x="272.589797" y="126.818711" transform="rotate(-0 272.589797 126.818711)">17.5</text>
     </g>
    </g>
    <g id="text_19">
     <text style="font-size: 11px; font-family: 'DejaVu Sans'; text-anchor: middle" x="241.455031" y="310.32" transform="rotate(-90 241.455031 310.32)">Число сценариев</text>
    </g>
   </g>
   <g id="line2d_26">
    <path d="M 454.370155 530.64 
L 454.370155 90 
" clip-path="url(#p66e798096e)" style="fill: none; stroke: #c0392b; stroke-width: 2.4; stroke-linecap: square"/>
   </g>
   <g id="line2d_27">
    <path d="M 438.999699 530.64 
L 438.999699 90 
" clip-path="url(#p66e798096e)" style="fill: none; stroke-dasharray: 8.14,3.52; stroke-dashoffset: 0; stroke: #2c3e50; stroke-width: 2.2"/>
   </g>
   <g id="line2d_28">
    <path d="M 693.001049 530.64 
L 693.001049 90 
" clip-path="url(#p66e798096e)" style="fill: none; stroke-dasharray: 2.4,3.96; stroke-dashoffset: 0; stroke: #8e44ad; stroke-width: 2.4"/>
   </g>
   <g id="patch_19">
    <path d="M 279.589797 530.64 
L 279.589797 90 
" style="fill: none; stroke: #000000; stroke-width: 0.8; stroke-linejoin: miter; stroke-linecap: square"/>
   </g>
   <g id="patch_20">
    <path d="M 720.440101 530.64 
L 720.440101 90 
" style="fill: none; stroke: #000000; stroke-width: 0.8; stroke-linejoin: miter; stroke-linecap: square"/>
   </g>
   <g id="patch_21">
    <path d="M 279.589797 530.64 
L 720.440101 530.64 
" style="fill: none; stroke: #000000; stroke-width: 0.8; stroke-linejoin: miter; stroke-linecap: square"/>
   </g>
   <g id="patch_22">
    <path d="M 279.589797 90 
L 720.440101 90 
" style="fill: none; stroke: #000000; stroke-width: 0.8; stroke-linejoin: miter; stroke-linecap: square"/>
   </g>
   <g id="patch_23">
    <path d="M 632.080131 252.601373 
Q 661.814589 280.772847 690.656272 308.098476 
" style="fill: none; stroke: #000000; stroke-width: 1.1; stroke-linecap: round"/>
    <path d="M 689.128099 303.895538 
L 690.656272 308.098476 
L 686.377018 306.799252 
" style="fill: none; stroke: #000000; stroke-width: 1.1; stroke-linecap: round"/>
   </g>
   <g id="text_20">
    <g id="patch_24">
     <path d="M 548.001049 250.72332 
L 667.630737 250.72332 
Q 670.630737 250.72332 670.630737 247.72332 
L 670.630737 211.501836 
Q 670.630737 208.501836 667.630737 208.501836 
L 548.001049 208.501836 
Q 545.001049 208.501836 545.001049 211.501836 
L 545.001049 247.72332 
Q 545.001049 250.72332 548.001049 250.72332 
z
" style="fill: #ffffff; opacity: 0.94; stroke: #000000; stroke-linejoin: miter"/>
    </g>
    <text style="font-size: 10px; font-family: 'DejaVu Sans'" transform="translate(548.001049 220.271562)">максимальная ошибка</text>
    <text style="font-size: 10px; font-family: 'DejaVu Sans'" transform="translate(548.001049 232.273516)">scn_0027</text>
    <text style="font-size: 10px; font-family: 'DejaVu Sans'" transform="translate(548.001049 244.32)">|e| = 0.377</text>
   </g>
   <g id="text_21">
    <text style="font-weight: 700; font-size: 13px; font-family: 'DejaVu Sans'; text-anchor: middle" x="500.014949" y="78" transform="rotate(-0 500.014949 78)">Гистограмма абсолютной ошибки</text>
   </g>
   <g id="legend_1">
    <g id="patch_25">
     <path d="M 585.633851 143.089844 
L 713.440101 143.089844 
Q 715.440101 143.089844 715.440101 141.089844 
L 715.440101 97 
Q 715.440101 95 713.440101 95 
L 585.633851 95 
Q 583.633851 95 583.633851 97 
L 583.633851 141.089844 
Q 583.633851 143.089844 585.633851 143.089844 
z
" style="fill: #ffffff; opacity: 0.96; stroke: #cccccc; stroke-linejoin: miter"/>
    </g>
    <g id="line2d_29">
     <path d="M 587.633851 103.098437 
L 597.633851 103.098437 
L 607.633851 103.098437 
" style="fill: none; stroke: #c0392b; stroke-width: 2.4; stroke-linecap: square"/>
    </g>
    <g id="text_22">
     <text style="font-size: 10px; font-family: 'DejaVu Sans'; text-anchor: start" x="615.633851" y="106.598437" transform="rotate(-0 615.633851 106.598437)">MAE = 0.159</text>
    </g>
    <g id="line2d_30">
     <path d="M 587.633851 118.142969 
L 597.633851 118.142969 
L 607.633851 118.142969 
" style="fill: none; stroke-dasharray: 8.14,3.52; stroke-dashoffset: 0; stroke: #2c3e50; stroke-width: 2.2"/>
    </g>
    <g id="text_23">
     <text style="font-size: 10px; font-family: 'DejaVu Sans'; text-anchor: start" x="615.633851" y="121.642969" transform="rotate(-0 615.633851 121.642969)">Median |e| = 0.145</text>
    </g>
    <g id="line2d_31">
     <path d="M 587.633851 133.1875 
L 597.633851 133.1875 
L 607.633851 133.1875 
" style="fill: none; stroke-dasharray: 2.4,3.96; stroke-dashoffset: 0; stroke: #8e44ad; stroke-width: 2.4"/>
    </g>
    <g id="text_24">
     <text style="font-size: 10px; font-family: 'DejaVu Sans'; text-anchor: start" x="615.633851" y="136.6875" transform="rotate(-0 615.633851 136.6875)">Max |e| = 0.377</text>
    </g>
   </g>
  </g>
  <g id="axes_2">
   <g id="patch_26">
    <path d="M 789.814219 280.753247 
L 1153.772028 280.753247 
L 1153.772028 90 
L 789.814219 90 
z
" style="fill: #ffffff"/>
   </g>
   <g id="FillBetweenPolyCollection_1">
    <defs>
     <path id="md2e3bebb11" d="M 790.029066 -326.926753 
L 790.029066 -328.173506 
L 791.18556 -328.173506 
L 791.18556 -329.42026 
L 791.230277 -329.42026 
L 791.230277 -330.667013 
L 793.657515 -330.667013 
L 793.657515 -331.913766 
L 795.256225 -331.913766 
L 795.256225 -333.160519 
L 795.542293 -333.160519 
L 795.542293 -334.407273 
L 795.698527 -334.407273 
L 795.698527 -335.654026 
L 797.081914 -335.654026 
L 797.081914 -336.900779 
L 797.18387 -336.900779 
L 797.18387 -338.147532 
L 800.300415 -338.147532 
L 800.300415 -339.394286 
L 801.083914 -339.394286 
L 801.083914 -340.641039 
L 801.188497 -340.641039 
L 801.188497 -341.887792 
L 803.545379 -341.887792 
L 803.545379 -343.134545 
L 807.234146 -343.134545 
L 807.234146 -344.381299 
L 808.561392 -344.381299 
L 808.561392 -345.628052 
L 808.809929 -345.628052 
L 808.809929 -346.874805 
L 810.189537 -346.874805 
L 810.189537 -348.121558 
L 810.695037 -348.121558 
L 810.695037 -349.368312 
L 812.698488 -349.368312 
L 812.698488 -350.615065 
L 813.216251 -350.615065 
L 813.216251 -351.861818 
L 813.756399 -351.861818 
L 813.756399 -353.108571 
L 814.378428 -353.108571 
L 814.378428 -354.355325 
L 815.350942 -354.355325 
L 815.350942 -355.602078 
L 815.422717 -355.602078 
L 815.422717 -356.848831 
L 817.991935 -356.848831 
L 817.991935 -358.095584 
L 818.341363 -358.095584 
L 818.341363 -359.342338 
L 818.579266 -359.342338 
L 818.579266 -360.589091 
L 819.333859 -360.589091 
L 819.333859 -361.835844 
L 819.368178 -361.835844 
L 819.368178 -363.082597 
L 821.427733 -363.082597 
L 821.427733 -364.329351 
L 825.145306 -364.329351 
L 825.145306 -365.576104 
L 828.84036 -365.576104 
L 828.84036 -366.822857 
L 830.529929 -366.822857 
L 830.529929 -368.06961 
L 831.082467 -368.06961 
L 831.082467 -369.316364 
L 831.661871 -369.316364 
L 831.661871 -370.563117 
L 832.815387 -370.563117 
L 832.815387 -371.80987 
L 837.711528 -371.80987 
L 837.711528 -373.056623 
L 838.952951 -373.056623 
L 838.952951 -374.303377 
L 840.369722 -374.303377 
L 840.369722 -375.55013 
L 841.685917 -375.55013 
L 841.685917 -376.796883 
L 841.955555 -376.796883 
L 841.955555 -378.043636 
L 846.555567 -378.043636 
L 846.555567 -379.29039 
L 849.348779 -379.29039 
L 849.348779 -380.537143 
L 852.363415 -380.537143 
L 852.363415 -381.783896 
L 853.65223 -381.783896 
L 853.65223 -383.030649 
L 855.322439 -383.030649 
L 855.322439 -384.277403 
L 855.656219 -384.277403 
L 855.656219 -385.524156 
L 856.046458 -385.524156 
L 856.046458 -386.770909 
L 857.897529 -386.770909 
L 857.897529 -388.017662 
L 862.485135 -388.017662 
L 862.485135 -389.264416 
L 862.824861 -389.264416 
L 862.824861 -390.511169 
L 866.89163 -390.511169 
L 866.89163 -391.757922 
L 870.539309 -391.757922 
L 870.539309 -393.004675 
L 873.792961 -393.004675 
L 873.792961 -394.251429 
L 876.561659 -394.251429 
L 876.561659 -395.498182 
L 877.007752 -395.498182 
L 877.007752 -396.744935 
L 877.171488 -396.744935 
L 877.171488 -397.991688 
L 882.69936 -397.991688 
L 882.69936 -399.238442 
L 884.213707 -399.238442 
L 884.213707 -400.485195 
L 885.747851 -400.485195 
L 885.747851 -401.731948 
L 893.401255 -401.731948 
L 893.401255 -402.978701 
L 895.400346 -402.978701 
L 895.400346 -404.225455 
L 896.539279 -404.225455 
L 896.539279 -405.472208 
L 902.571924 -405.472208 
L 902.571924 -406.718961 
L 904.460043 -406.718961 
L 904.460043 -407.965714 
L 906.361825 -407.965714 
L 906.361825 -409.212468 
L 906.532512 -409.212468 
L 906.532512 -410.459221 
L 908.720746 -410.459221 
L 908.720746 -411.705974 
L 910.036707 -411.705974 
L 910.036707 -412.952727 
L 910.264122 -412.952727 
L 910.264122 -414.199481 
L 912.799229 -414.199481 
L 912.799229 -415.446234 
L 913.530818 -415.446234 
L 913.530818 -416.692987 
L 917.286656 -416.692987 
L 917.286656 -417.93974 
L 917.426168 -417.93974 
L 917.426168 -419.186494 
L 920.565466 -419.186494 
L 920.565466 -420.433247 
L 922.274671 -420.433247 
L 922.274671 -421.68 
L 927.046389 -421.68 
L 927.046389 -422.926753 
L 928.369516 -422.926753 
L 928.369516 -424.173506 
L 928.844473 -424.173506 
L 928.844473 -425.42026 
L 931.96681 -425.42026 
L 931.96681 -426.667013 
L 939.13929 -426.667013 
L 939.13929 -427.913766 
L 939.615648 -427.913766 
L 939.615648 -429.160519 
L 940.110144 -429.160519 
L 940.110144 -430.407273 
L 941.769186 -430.407273 
L 941.769186 -431.654026 
L 942.266445 -431.654026 
L 942.266445 -432.900779 
L 945.220607 -432.900779 
L 945.220607 -434.147532 
L 945.413898 -434.147532 
L 945.413898 -435.394286 
L 954.715842 -435.394286 
L 954.715842 -436.641039 
L 954.727083 -436.641039 
L 954.727083 -437.887792 
L 963.868418 -437.887792 
L 963.868418 -439.134545 
L 965.104601 -439.134545 
L 965.104601 -440.381299 
L 967.296953 -440.381299 
L 967.296953 -441.628052 
L 973.409909 -441.628052 
L 973.409909 -442.874805 
L 975.812571 -442.874805 
L 975.812571 -444.121558 
L 979.651624 -444.121558 
L 979.651624 -445.368312 
L 981.099 -445.368312 
L 981.099 -446.615065 
L 981.131016 -446.615065 
L 981.131016 -447.861818 
L 987.733251 -447.861818 
L 987.733251 -449.108571 
L 989.510969 -449.108571 
L 989.510969 -450.355325 
L 990.973178 -450.355325 
L 990.973178 -451.602078 
L 995.610217 -451.602078 
L 995.610217 -452.848831 
L 999.27967 -452.848831 
L 999.27967 -454.095584 
L 999.931095 -454.095584 
L 999.931095 -455.342338 
L 999.988981 -455.342338 
L 999.988981 -456.589091 
L 1006.185915 -456.589091 
L 1006.185915 -457.835844 
L 1011.512201 -457.835844 
L 1011.512201 -459.082597 
L 1015.327038 -459.082597 
L 1015.327038 -460.329351 
L 1017.556775 -460.329351 
L 1017.556775 -461.576104 
L 1019.134331 -461.576104 
L 1019.134331 -462.822857 
L 1020.773743 -462.822857 
L 1020.773743 -464.06961 
L 1022.969 -464.06961 
L 1022.969 -465.316364 
L 1024.333463 -465.316364 
L 1024.333463 -466.563117 
L 1024.780356 -466.563117 
L 1024.780356 -467.80987 
L 1030.49923 -467.80987 
L 1030.49923 -469.056623 
L 1031.924899 -469.056623 
L 1031.924899 -470.303377 
L 1032.559244 -470.303377 
L 1032.559244 -471.55013 
L 1037.665942 -471.55013 
L 1037.665942 -472.796883 
L 1038.644422 -472.796883 
L 1038.644422 -474.043636 
L 1039.067349 -474.043636 
L 1039.067349 -475.29039 
L 1042.051956 -475.29039 
L 1042.051956 -476.537143 
L 1044.338437 -476.537143 
L 1044.338437 -477.783896 
L 1045.549462 -477.783896 
L 1045.549462 -479.030649 
L 1047.416697 -479.030649 
L 1047.416697 -480.277403 
L 1048.809973 -480.277403 
L 1048.809973 -481.524156 
L 1049.643912 -481.524156 
L 1049.643912 -482.770909 
L 1050.259065 -482.770909 
L 1050.259065 -484.017662 
L 1050.949994 -484.017662 
L 1050.949994 -485.264416 
L 1053.317068 -485.264416 
L 1053.317068 -486.511169 
L 1054.930685 -486.511169 
L 1054.930685 -487.757922 
L 1061.252841 -487.757922 
L 1061.252841 -489.004675 
L 1063.129072 -489.004675 
L 1063.129072 -490.251429 
L 1065.817257 -490.251429 
L 1065.817257 -491.498182 
L 1066.48323 -491.498182 
L 1066.48323 -492.744935 
L 1069.874042 -492.744935 
L 1069.874042 -493.991688 
L 1076.478139 -493.991688 
L 1076.478139 -495.238442 
L 1076.682082 -495.238442 
L 1076.682082 -496.485195 
L 1077.306529 -496.485195 
L 1077.306529 -497.731948 
L 1080.260815 -497.731948 
L 1080.260815 -498.978701 
L 1082.653064 -498.978701 
L 1082.653064 -500.225455 
L 1082.754144 -500.225455 
L 1082.754144 -501.472208 
L 1083.464605 -501.472208 
L 1083.464605 -502.718961 
L 1093.94707 -502.718961 
L 1093.94707 -503.965714 
L 1095.596565 -503.965714 
L 1095.596565 -505.212468 
L 1109.046694 -505.212468 
L 1109.046694 -506.459221 
L 1113.854149 -506.459221 
L 1113.854149 -507.705974 
L 1117.273258 -507.705974 
L 1117.273258 -508.952727 
L 1122.651698 -508.952727 
L 1122.651698 -510.199481 
L 1123.585569 -510.199481 
L 1123.585569 -511.446234 
L 1129.366848 -511.446234 
L 1129.366848 -512.692987 
L 1131.118857 -512.692987 
L 1131.118857 -513.93974 
L 1131.118857 -326.926753 
L 1131.118857 -326.926753 
L 1131.118857 -326.926753 
L 1129.366848 -326.926753 
L 1129.366848 -326.926753 
L 1123.585569 -326.926753 
L 1123.585569 -326.926753 
L 1122.651698 -326.926753 
L 1122.651698 -326.926753 
L 1117.273258 -326.926753 
L 1117.273258 -326.926753 
L 1113.854149 -326.926753 
L 1113.854149 -326.926753 
L 1109.046694 -326.926753 
L 1109.046694 -326.926753 
L 1095.596565 -326.926753 
L 1095.596565 -326.926753 
L 1093.94707 -326.926753 
L 1093.94707 -326.926753 
L 1083.464605 -326.926753 
L 1083.464605 -326.926753 
L 1082.754144 -326.926753 
L 1082.754144 -326.926753 
L 1082.653064 -326.926753 
L 1082.653064 -326.926753 
L 1080.260815 -326.926753 
L 1080.260815 -326.926753 
L 1077.306529 -326.926753 
L 1077.306529 -326.926753 
L 1076.682082 -326.926753 
L 1076.682082 -326.926753 
L 1076.478139 -326.926753 
L 1076.478139 -326.926753 
L 1069.874042 -326.926753 
L 1069.874042 -326.926753 
L 1066.48323 -326.926753 
L 1066.48323 -326.926753 
L 1065.817257 -326.926753 
L 1065.817257 -326.926753 
L 1063.129072 -326.926753 
L 1063.129072 -326.926753 
L 1061.252841 -326.926753 
L 1061.252841 -326.926753 
L 1054.930685 -326.926753 
L 1054.930685 -326.926753 
L 1053.317068 -326.926753 
L 1053.317068 -326.926753 
L 1050.949994 -326.926753 
L 1050.949994 -326.926753 
L 1050.259065 -326.926753 
L 1050.259065 -326.926753 
L 1049.643912 -326.926753 
L 1049.643912 -326.926753 
L 1048.809973 -326.926753 
L 1048.809973 -326.926753 
L 1047.416697 -326.926753 
L 1047.416697 -326.926753 
L 1045.549462 -326.926753 
L 1045.549462 -326.926753 
L 1044.338437 -326.926753 
L 1044.338437 -326.926753 
L 1042.051956 -326.926753 
L 1042.051956 -326.926753 
L 1039.067349 -326.926753 
L 1039.067349 -326.926753 
L 1038.644422 -326.926753 
L 1038.644422 -326.926753 
L 1037.665942 -326.926753 
L 1037.665942 -326.926753 
L 1032.559244 -326.926753 
L 1032.559244 -326.926753 
L 1031.924899 -326.926753 
L 1031.924899 -326.926753 
L 1030.49923 -326.926753 
L 1030.49923 -326.926753 
L 1024.780356 -326.926753 
L 1024.780356 -326.926753 
L 1024.333463 -326.926753 
L 1024.333463 -326.926753 
L 1022.969 -326.926753 
L 1022.969 -326.926753 
L 1020.773743 -326.926753 
L 1020.773743 -326.926753 
L 1019.134331 -326.926753 
L 1019.134331 -326.926753 
L 1017.556775 -326.926753 
L 1017.556775 -326.926753 
L 1015.327038 -326.926753 
L 1015.327038 -326.926753 
L 1011.512201 -326.926753 
L 1011.512201 -326.926753 
L 1006.185915 -326.926753 
L 1006.185915 -326.926753 
L 999.988981 -326.926753 
L 999.988981 -326.926753 
L 999.931095 -326.926753 
L 999.931095 -326.926753 
L 999.27967 -326.926753 
L 999.27967 -326.926753 
L 995.610217 -326.926753 
L 995.610217 -326.926753 
L 990.973178 -326.926753 
L 990.973178 -326.926753 
L 989.510969 -326.926753 
L 989.510969 -326.926753 
L 987.733251 -326.926753 
L 987.733251 -326.926753 
L 981.131016 -326.926753 
L 981.131016 -326.926753 
L 981.099 -326.926753 
L 981.099 -326.926753 
L 979.651624 -326.926753 
L 979.651624 -326.926753 
L 975.812571 -326.926753 
L 975.812571 -326.926753 
L 973.409909 -326.926753 
L 973.409909 -326.926753 
L 967.296953 -326.926753 
L 967.296953 -326.926753 
L 965.104601 -326.926753 
L 965.104601 -326.926753 
L 963.868418 -326.926753 
L 963.868418 -326.926753 
L 954.727083 -326.926753 
L 954.727083 -326.926753 
L 954.715842 -326.926753 
L 954.715842 -326.926753 
L 945.413898 -326.926753 
L 945.413898 -326.926753 
L 945.220607 -326.926753 
L 945.220607 -326.926753 
L 942.266445 -326.926753 
L 942.266445 -326.926753 
L 941.769186 -326.926753 
L 941.769186 -326.926753 
L 940.110144 -326.926753 
L 940.110144 -326.926753 
L 939.615648 -326.926753 
L 939.615648 -326.926753 
L 939.13929 -326.926753 
L 939.13929 -326.926753 
L 931.96681 -326.926753 
L 931.96681 -326.926753 
L 928.844473 -326.926753 
L 928.844473 -326.926753 
L 928.369516 -326.926753 
L 928.369516 -326.926753 
L 927.046389 -326.926753 
L 927.046389 -326.926753 
L 922.274671 -326.926753 
L 922.274671 -326.926753 
L 920.565466 -326.926753 
L 920.565466 -326.926753 
L 917.426168 -326.926753 
L 917.426168 -326.926753 
L 917.286656 -326.926753 
L 917.286656 -326.926753 
L 913.530818 -326.926753 
L 913.530818 -326.926753 
L 912.799229 -326.926753 
L 912.799229 -326.926753 
L 910.264122 -326.926753 
L 910.264122 -326.926753 
L 910.036707 -326.926753 
L 910.036707 -326.926753 
L 908.720746 -326.926753 
L 908.720746 -326.926753 
L 906.532512 -326.926753 
L 906.532512 -326.926753 
L 906.361825 -326.926753 
L 906.361825 -326.926753 
L 904.460043 -326.926753 
L 904.460043 -326.926753 
L 902.571924 -326.926753 
L 902.571924 -326.926753 
L 896.539279 -326.926753 
L 896.539279 -326.926753 
L 895.400346 -326.926753 
L 895.400346 -326.926753 
L 893.401255 -326.926753 
L 893.401255 -326.926753 
L 885.747851 -326.926753 
L 885.747851 -326.926753 
L 884.213707 -326.926753 
L 884.213707 -326.926753 
L 882.69936 -326.926753 
L 882.69936 -326.926753 
L 877.171488 -326.926753 
L 877.171488 -326.926753 
L 877.007752 -326.926753 
L 877.007752 -326.926753 
L 876.561659 -326.926753 
L 876.561659 -326.926753 
L 873.792961 -326.926753 
L 873.792961 -326.926753 
L 870.539309 -326.926753 
L 870.539309 -326.926753 
L 866.89163 -326.926753 
L 866.89163 -326.926753 
L 862.824861 -326.926753 
L 862.824861 -326.926753 
L 862.485135 -326.926753 
L 862.485135 -326.926753 
L 857.897529 -326.926753 
L 857.897529 -326.926753 
L 856.046458 -326.926753 
L 856.046458 -326.926753 
L 855.656219 -326.926753 
L 855.656219 -326.926753 
L 855.322439 -326.926753 
L 855.322439 -326.926753 
L 853.65223 -326.926753 
L 853.65223 -326.926753 
L 852.363415 -326.926753 
L 852.363415 -326.926753 
L 849.348779 -326.926753 
L 849.348779 -326.926753 
L 846.555567 -326.926753 
L 846.555567 -326.926753 
L 841.955555 -326.926753 
L 841.955555 -326.926753 
L 841.685917 -326.926753 
L 841.685917 -326.926753 
L 840.369722 -326.926753 
L 840.369722 -326.926753 
L 838.952951 -326.926753 
L 838.952951 -326.926753 
L 837.711528 -326.926753 
L 837.711528 -326.926753 
L 832.815387 -326.926753 
L 832.815387 -326.926753 
L 831.661871 -326.926753 
L 831.661871 -326.926753 
L 831.082467 -326.926753 
L 831.082467 -326.926753 
L 830.529929 -326.926753 
L 830.529929 -326.926753 
L 828.84036 -326.926753 
L 828.84036 -326.926753 
L 825.145306 -326.926753 
L 825.145306 -326.926753 
L 821.427733 -326.926753 
L 821.427733 -326.926753 
L 819.368178 -326.926753 
L 819.368178 -326.926753 
L 819.333859 -326.926753 
L 819.333859 -326.926753 
L 818.579266 -326.926753 
L 818.579266 -326.926753 
L 818.341363 -326.926753 
L 818.341363 -326.926753 
L 817.991935 -326.926753 
L 817.991935 -326.926753 
L 815.422717 -326.926753 
L 815.422717 -326.926753 
L 815.350942 -326.926753 
L 815.350942 -326.926753 
L 814.378428 -326.926753 
L 814.378428 -326.926753 
L 813.756399 -326.926753 
L 813.756399 -326.926753 
L 813.216251 -326.926753 
L 813.216251 -326.926753 
L 812.698488 -326.926753 
L 812.698488 -326.926753 
L 810.695037 -326.926753 
L 810.695037 -326.926753 
L 810.189537 -326.926753 
L 810.189537 -326.926753 
L 808.809929 -326.926753 
L 808.809929 -326.926753 
L 808.561392 -326.926753 
L 808.561392 -326.926753 
L 807.234146 -326.926753 
L 807.234146 -326.926753 
L 803.545379 -326.926753 
L 803.545379 -326.926753 
L 801.188497 -326.926753 
L 801.188497 -326.926753 
L 801.083914 -326.926753 
L 801.083914 -326.926753 
L 800.300415 -326.926753 
L 800.300415 -326.926753 
L 797.18387 -326.926753 
L 797.18387 -326.926753 
L 797.081914 -326.926753 
L 797.081914 -326.926753 
L 795.698527 -326.926753 
L 795.698527 -326.926753 
L 795.542293 -326.926753 
L 795.542293 -326.926753 
L 795.256225 -326.926753 
L 795.256225 -326.926753 
L 793.657515 -326.926753 
L 793.657515 -326.926753 
L 791.230277 -326.926753 
L 791.230277 -326.926753 
L 791.18556 -326.926753 
L 791.18556 -326.926753 
L 790.029066 -326.926753 
z
" style="stroke: #2468a2; stroke-opacity: 0.1"/>
    </defs>
    <g clip-path="url(#p261e01c3d7)">
     <use xlink:href="#md2e3bebb11" x="0" y="607.68" style="fill: #2468a2; fill-opacity: 0.1; stroke: #2468a2; stroke-opacity: 0.1"/>
    </g>
   </g>
   <g id="matplotlib.axis_3">
    <g id="xtick_10">
     <g id="line2d_32">
      <path d="M 789.814219 280.753247 
L 789.814219 90 
" clip-path="url(#p261e01c3d7)" style="fill: none; stroke: #b0b0b0; stroke-opacity: 0.25; stroke-width: 0.8; stroke-linecap: square"/>
     </g>
     <g id="line2d_33">
      <g>
       <use xlink:href="#m4183892b9b" x="789.814219" y="280.753247" style="stroke: #000000; stroke-width: 0.8"/>
      </g>
     </g>
     <g id="text_25">
      <text style="font-size: 11px; font-family: 'DejaVu Sans'; text-anchor: middle" x="789.814219" y="296.110669" transform="rotate(-0 789.814219 296.110669)">0.00</text>
     </g>
    </g>
    <g id="xtick_11">
     <g id="line2d_34">
      <path d="M 835.12056 280.753247 
L 835.12056 90 
" clip-path="url(#p261e01c3d7)" style="fill: none; stroke: #b0b0b0; stroke-opacity: 0.25; stroke-width: 0.8; stroke-linecap: square"/>
     </g>
     <g id="line2d_35">
      <g>
       <use xlink:href="#m4183892b9b" x="835.12056" y="280.753247" style="stroke: #000000; stroke-width: 0.8"/>
      </g>
     </g>
     <g id="text_26">
      <text style="font-size: 11px; font-family: 'DejaVu Sans'; text-anchor: middle" x="835.12056" y="296.110669" transform="rotate(-0 835.12056 296.110669)">0.05</text>
     </g>
    </g>
    <g id="xtick_12">
     <g id="line2d_36">
      <path d="M 880.426902 280.753247 
L 880.426902 90 
" clip-path="url(#p261e01c3d7)" style="fill: none; stroke: #b0b0b0; stroke-opacity: 0.25; stroke-width: 0.8; stroke-linecap: square"/>
     </g>
     <g id="line2d_37">
      <g>
       <use xlink:href="#m4183892b9b" x="880.426902" y="280.753247" style="stroke: #000000; stroke-width: 0.8"/>
      </g>
     </g>
     <g id="text_27">
      <text style="font-size: 11px; font-family: 'DejaVu Sans'; text-anchor: middle" x="880.426902" y="296.110669" transform="rotate(-0 880.426902 296.110669)">0.10</text>
     </g>
    </g>
    <g id="xtick_13">
     <g id="line2d_38">
      <path d="M 925.733243 280.753247 
L 925.733243 90 
" clip-path="url(#p261e01c3d7)" style="fill: none; stroke: #b0b0b0; stroke-opacity: 0.25; stroke-width: 0.8; stroke-linecap: square"/>
     </g>
     <g id="line2d_39">
      <g>
       <use xlink:href="#m4183892b9b" x="925.733243" y="280.753247" style="stroke: #000000; stroke-width: 0.8"/>
      </g>
     </g>
     <g id="text_28">
      <text style="font-size: 11px; font-family: 'DejaVu Sans'; text-anchor: middle" x="925.733243" y="296.110669" transform="rotate(-0 925.733243 296.110669)">0.15</text>
     </g>
    </g>
    <g id="xtick_14">
     <g id="line2d_40">
      <path d="M 971.039585 280.753247 
L 971.039585 90 
" clip-path="url(#p261e01c3d7)" style="fill: none; stroke: #b0b0b0; stroke-opacity: 0.25; stroke-width: 0.8; stroke-linecap: square"/>
     </g>
     <g id="line2d_41">
      <g>
       <use xlink:href="#m4183892b9b" x="971.039585" y="280.753247" style="stroke: #000000; stroke-width: 0.8"/>
      </g>
     </g>
     <g id="text_29">
      <text style="font-size: 11px; font-family: 'DejaVu Sans'; text-anchor: middle" x="971.039585" y="296.110669" transform="rotate(-0 971.039585 296.110669)">0.20</text>
     </g>
    </g>
    <g id="xtick_15">
     <g id="line2d_42">
      <path d="M 1016.345926 280.753247 
L 1016.345926 90 
" clip-path="url(#p261e01c3d7)" style="fill: none; stroke: #b0b0b0; stroke-opacity: 0.25; stroke-width: 0.8; stroke-linecap: square"/>
     </g>
     <g id="line2d_43">
      <g>
       <use xlink:href="#m4183892b9b" x="1016.345926" y="280.753247" style="stroke: #000000; stroke-width: 0.8"/>
      </g>
     </g>
     <g id="text_30">
      <text style="font-size: 11px; font-family: 'DejaVu Sans'; text-anchor: middle" x="1016.345926" y="296.110669" transform="rotate(-0 1016.345926 296.110669)">0.25</text>
     </g>
    </g>
    <g id="xtick_16">
     <g id="line2d_44">
      <path d="M 1061.652268 280.753247 
L 1061.652268 90 
" clip-path="url(#p261e01c3d7)" style="fill: none; stroke: #b0b0b0; stroke-opacity: 0.25; stroke-width: 0.8; stroke-linecap: square"/>
     </g>
     <g id="line2d_45">
      <g>
       <use xlink:href="#m4183892b9b" x="1061.652268" y="280.753247" style="stroke: #000000; stroke-width: 0.8"/>
      </g>
     </g>
     <g id="text_31">
      <text style="font-size: 11px; font-family: 'DejaVu Sans'; text-anchor: middle" x="1061.652268" y="296.110669" transform="rotate(-0 1061.652268 296.110669)">0.30</text>
     </g>
    </g>
    <g id="xtick_17">
     <g id="line2d_46">
      <path d="M 1106.958609 280.753247 
L 1106.958609 90 
" clip-path="url(#p261e01c3d7)" style="fill: none; stroke: #b0b0b0; stroke-opacity: 0.25; stroke-width: 0.8; stroke-linecap: square"/>
     </g>
     <g id="line2d_47">
      <g>
       <use xlink:href="#m4183892b9b" x="1106.958609" y="280.753247" style="stroke: #000000; stroke-width: 0.8"/>
      </g>
     </g>
     <g id="text_32">
      <text style="font-size: 11px; font-family: 'DejaVu Sans'; text-anchor: middle" x="1106.958609" y="296.110669" transform="rotate(-0 1106.958609 296.110669)">0.35</text>
     </g>
    </g>
    <g id="xtick_18">
     <g id="line2d_48">
      <path d="M 1152.264951 280.753247 
L 1152.264951 90 
" clip-path="url(#p261e01c3d7)" style="fill: none; stroke: #b0b0b0; stroke-opacity: 0.25; stroke-width: 0.8; stroke-linecap: square"/>
     </g>
     <g id="line2d_49">
      <g>
       <use xlink:href="#m4183892b9b" x="1152.264951" y="280.753247" style="stroke: #000000; stroke-width: 0.8"/>
      </g>
     </g>
     <g id="text_33">
      <text style="font-size: 11px; font-family: 'DejaVu Sans'; text-anchor: middle" x="1152.264951" y="296.110669" transform="rotate(-0 1152.264951 296.110669)">0.40</text>
     </g>
    </g>
    <g id="text_34">
     <!-- Порог абсолютной ошибки $\varepsilon$ -->
     <g transform="translate(889.018123 311.333247)">
      <text>
       <tspan x="0" y="-0.453125" style="font-size: 11px; font-family: 'DejaVu Sans'">П</tspan>
       <tspan x="8.271484" y="-0.453125" style="font-size: 11px; font-family: 'DejaVu Sans'">о</tspan>
       <tspan x="15.001465" y="-0.453125" style="font-size: 11px; font-family: 'DejaVu Sans'">р</tspan>
       <tspan x="21.983887" y="-0.453125" style="font-size: 11px; font-family: 'DejaVu Sans'">о</tspan>
       <tspan x="28.713867" y="-0.453125" style="font-size: 11px; font-family: 'DejaVu Sans'">г</tspan>
       <tspan x="34.493164" y="-0.453125" style="font-size: 11px; font-family: 'DejaVu Sans'"> </tspan>
       <tspan x="37.989746" y="-0.453125" style="font-size: 11px; font-family: 'DejaVu Sans'">а</tspan>
       <tspan x="44.730469" y="-0.453125" style="font-size: 11px; font-family: 'DejaVu Sans'">б</tspan>
       <tspan x="51.51416" y="-0.453125" style="font-size: 11px; font-family: 'DejaVu Sans'">с</tspan>
       <tspan x="57.562012" y="-0.453125" style="font-size: 11px; font-family: 'DejaVu Sans'">о</tspan>
       <tspan x="64.291992" y="-0.453125" style="font-size: 11px; font-family: 'DejaVu Sans'">л</tspan>
       <tspan x="71.322754" y="-0.453125" style="font-size: 11px; font-family: 'DejaVu Sans'">ю</tspan>
       <tspan x="80.58252" y="-0.453125" style="font-size: 11px; font-family: 'DejaVu Sans'">т</tspan>
       <tspan x="86.990234" y="-0.453125" style="font-size: 11px; font-family: 'DejaVu Sans'">н</tspan>
       <tspan x="94.182129" y="-0.453125" style="font-size: 11px; font-family: 'DejaVu Sans'">о</tspan>
       <tspan x="100.912109" y="-0.453125" style="font-size: 11px; font-family: 'DejaVu Sans'">й</tspan>
       <tspan x="108.061035" y="-0.453125" style="font-size: 11px; font-family: 'DejaVu Sans'"> </tspan>
       <tspan x="111.557617" y="-0.453125" style="font-size: 11px; font-family: 'DejaVu Sans'">о</tspan>
       <tspan x="118.287598" y="-0.453125" style="font-size: 11px; font-family: 'DejaVu Sans'">ш</tspan>
       <tspan x="128.353027" y="-0.453125" style="font-size: 11px; font-family: 'DejaVu Sans'">и</tspan>
       <tspan x="135.501953" y="-0.453125" style="font-size: 11px; font-family: 'DejaVu Sans'">б</tspan>
       <tspan x="142.285645" y="-0.453125" style="font-size: 11px; font-family: 'DejaVu Sans'">к</tspan>
       <tspan x="148.929688" y="-0.453125" style="font-size: 11px; font-family: 'DejaVu Sans'">и</tspan>
       <tspan x="156.078613" y="-0.453125" style="font-size: 11px; font-family: 'DejaVu Sans'"> </tspan>
       <tspan x="159.575195" y="-0.453125" style="font-style: oblique; font-size: 11px; font-family: 'DejaVu Sans'">ε</tspan>
      </text>
     </g>
    </g>
   </g>
   <g id="matplotlib.axis_4">
    <g id="ytick_9">
     <g id="line2d_50">
      <path d="M 789.814219 280.753247 
L 1153.772028 280.753247 
" clip-path="url(#p261e01c3d7)" style="fill: none; stroke: #b0b0b0; stroke-opacity: 0.25; stroke-width: 0.8; stroke-linecap: square"/>
     </g>
     <g id="line2d_51">
      <g>
       <use xlink:href="#m16050b89f0" x="789.814219" y="280.753247" style="stroke: #000000; stroke-width: 0.8"/>
      </g>
     </g>
     <g id="text_35">
      <text style="font-size: 11px; font-family: 'DejaVu Sans'; text-anchor: end" x="782.814219" y="284.931958" transform="rotate(-0 782.814219 284.931958)">0.0</text>
     </g>
    </g>
    <g id="ytick_10">
     <g id="line2d_52">
      <path d="M 789.814219 243.350649 
L 1153.772028 243.350649 
" clip-path="url(#p261e01c3d7)" style="fill: none; stroke: #b0b0b0; stroke-opacity: 0.25; stroke-width: 0.8; stroke-linecap: square"/>
     </g>
     <g id="line2d_53">
      <g>
       <use xlink:href="#m16050b89f0" x="789.814219" y="243.350649" style="stroke: #000000; stroke-width: 0.8"/>
      </g>
     </g>
     <g id="text_36">
      <text style="font-size: 11px; font-family: 'DejaVu Sans'; text-anchor: end" x="782.814219" y="247.52936" transform="rotate(-0 782.814219 247.52936)">0.2</text>
     </g>
    </g>
    <g id="ytick_11">
     <g id="line2d_54">
      <path d="M 789.814219 205.948052 
L 1153.772028 205.948052 
" clip-path="url(#p261e01c3d7)" style="fill: none; stroke: #b0b0b0; stroke-opacity: 0.25; stroke-width: 0.8; stroke-linecap: square"/>
     </g>
     <g id="line2d_55">
      <g>
       <use xlink:href="#m16050b89f0" x="789.814219" y="205.948052" style="stroke: #000000; stroke-width: 0.8"/>
      </g>
     </g>
     <g id="text_37">
      <text style="font-size: 11px; font-family: 'DejaVu Sans'; text-anchor: end" x="782.814219" y="210.126763" transform="rotate(-0 782.814219 210.126763)">0.4</text>
     </g>
    </g>
    <g id="ytick_12">
     <g id="line2d_56">
      <path d="M 789.814219 168.545455 
L 1153.772028 168.545455 
" clip-path="url(#p261e01c3d7)" style="fill: none; stroke: #b0b0b0; stroke-opacity: 0.25; stroke-width: 0.8; stroke-linecap: square"/>
     </g>
     <g id="line2d_57">
      <g>
       <use xlink:href="#m16050b89f0" x="789.814219" y="168.545455" style="stroke: #000000; stroke-width: 0.8"/>
      </g>
     </g>
     <g id="text_38">
      <text style="font-size: 11px; font-family: 'DejaVu Sans'; text-anchor: end" x="782.814219" y="172.724165" transform="rotate(-0 782.814219 172.724165)">0.6</text>
     </g>
    </g>
    <g id="ytick_13">
     <g id="line2d_58">
      <path d="M 789.814219 131.142857 
L 1153.772028 131.142857 
" clip-path="url(#p261e01c3d7)" style="fill: none; stroke: #b0b0b0; stroke-opacity: 0.25; stroke-width: 0.8; stroke-linecap: square"/>
     </g>
     <g id="line2d_59">
      <g>
       <use xlink:href="#m16050b89f0" x="789.814219" y="131.142857" style="stroke: #000000; stroke-width: 0.8"/>
      </g>
     </g>
     <g id="text_39">
      <text style="font-size: 11px; font-family: 'DejaVu Sans'; text-anchor: end" x="782.814219" y="135.321568" transform="rotate(-0 782.814219 135.321568)">0.8</text>
     </g>
    </g>
    <g id="ytick_14">
     <g id="line2d_60">
      <path d="M 789.814219 93.74026 
L 1153.772028 93.74026 
" clip-path="url(#p261e01c3d7)" style="fill: none; stroke: #b0b0b0; stroke-opacity: 0.25; stroke-width: 0.8; stroke-linecap: square"/>
     </g>
     <g id="line2d_61">
      <g>
       <use xlink:href="#m16050b89f0" x="789.814219" y="93.74026" style="stroke: #000000; stroke-width: 0.8"/>
      </g>
     </g>
     <g id="text_40">
      <text style="font-size: 11px; font-family: 'DejaVu Sans'; text-anchor: end" x="782.814219" y="97.918971" transform="rotate(-0 782.814219 97.918971)">1.0</text>
     </g>
    </g>
    <g id="text_41">
     <!-- $P(|e_i|\leq\varepsilon)$ -->
     <g transform="translate(758.678203 211.061623) rotate(-90)">
      <text>
       <tspan x="0" y="-0.59375" style="font-style: oblique; font-size: 11px; font-family: 'DejaVu Sans'">P</tspan>
       <tspan x="14.630859" y="-0.59375" style="font-style: oblique; font-size: 11px; font-family: 'DejaVu Sans'">e</tspan>
       <tspan x="41.04751" y="-0.59375" style="font-style: oblique; font-size: 11px; font-family: 'DejaVu Sans'">ε</tspan>
       <tspan x="6.633301" y="-0.59375" style="font-size: 11px; font-family: 'DejaVu Sans'">(</tspan>
       <tspan x="10.924805" y="-0.59375" style="font-size: 11px; font-family: 'DejaVu Sans'">|</tspan>
       <tspan x="23.838525" y="-0.59375" style="font-size: 11px; font-family: 'DejaVu Sans'">|</tspan>
       <tspan x="29.687646" y="-0.59375" style="font-size: 11px; font-family: 'DejaVu Sans'">≤</tspan>
       <tspan x="46.993311" y="-0.59375" style="font-size: 11px; font-family: 'DejaVu Sans'">)</tspan>
       <tspan x="21.398438" y="1.056245" style="font-style: oblique; font-size: 7.7px; font-family: 'DejaVu Sans'">i</tspan>
      </text>
     </g>
    </g>
   </g>
   <g id="line2d_62">
    <path d="M 790.029066 279.506494 
L 791.18556 279.506494 
L 791.230277 277.012987 
L 793.657515 277.012987 
L 793.657515 275.766234 
L 795.256225 275.766234 
L 795.256225 274.519481 
L 795.542293 274.519481 
L 795.542293 273.272727 
L 795.698527 273.272727 
L 795.698527 272.025974 
L 797.081914 272.025974 
L 797.18387 269.532468 
L 800.300415 269.532468 
L 800.300415 268.285714 
L 801.083914 268.285714 
L 801.188497 265.792208 
L 803.545379 265.792208 
L 803.545379 264.545455 
L 807.234146 264.545455 
L 807.234146 263.298701 
L 808.561392 263.298701 
L 808.561392 262.051948 
L 808.809929 262.051948 
L 808.809929 260.805195 
L 810.189537 260.805195 
L 810.189537 259.558442 
L 810.695037 259.558442 
L 810.695037 258.311688 
L 812.698488 258.311688 
L 812.698488 257.064935 
L 813.216251 257.064935 
L 813.216251 255.818182 
L 813.756399 255.818182 
L 813.756399 254.571429 
L 814.378428 254.571429 
L 814.378428 253.324675 
L 815.350942 253.324675 
L 815.422717 250.831169 
L 817.991935 250.831169 
L 817.991935 249.584416 
L 818.341363 249.584416 
L 818.341363 248.337662 
L 818.579266 248.337662 
L 818.579266 247.090909 
L 819.333859 247.090909 
L 819.368178 244.597403 
L 821.427733 244.597403 
L 821.427733 243.350649 
L 825.145306 243.350649 
L 825.145306 242.103896 
L 828.84036 242.103896 
L 828.84036 240.857143 
L 830.529929 240.857143 
L 830.529929 239.61039 
L 831.082467 239.61039 
L 831.082467 238.363636 
L 831.661871 238.363636 
L 831.661871 237.116883 
L 832.815387 237.116883 
L 832.815387 235.87013 
L 837.711528 235.87013 
L 837.711528 234.623377 
L 838.952951 234.623377 
L 838.952951 233.376623 
L 840.369722 233.376623 
L 840.369722 232.12987 
L 841.685917 232.12987 
L 841.685917 230.883117 
L 841.955555 230.883117 
L 841.955555 229.636364 
L 846.555567 229.636364 
L 846.555567 228.38961 
L 849.348779 228.38961 
L 849.348779 227.142857 
L 852.363415 227.142857 
L 852.363415 225.896104 
L 853.65223 225.896104 
L 853.65223 224.649351 
L 855.322439 224.649351 
L 855.322439 223.402597 
L 855.656219 223.402597 
L 855.656219 222.155844 
L 856.046458 222.155844 
L 856.046458 220.909091 
L 857.897529 220.909091 
L 857.897529 219.662338 
L 862.485135 219.662338 
L 862.485135 218.415584 
L 862.824861 218.415584 
L 862.824861 217.168831 
L 866.89163 217.168831 
L 866.89163 215.922078 
L 870.539309 215.922078 
L 870.539309 214.675325 
L 873.792961 214.675325 
L 873.792961 213.428571 
L 876.561659 213.428571 
L 876.561659 212.181818 
L 877.007752 212.181818 
L 877.007752 210.935065 
L 877.171488 210.935065 
L 877.171488 209.688312 
L 882.69936 209.688312 
L 882.69936 208.441558 
L 884.213707 208.441558 
L 884.213707 207.194805 
L 885.747851 207.194805 
L 885.747851 205.948052 
L 893.401255 205.948052 
L 893.401255 204.701299 
L 895.400346 204.701299 
L 895.400346 203.454545 
L 896.539279 203.454545 
L 896.539279 202.207792 
L 902.571924 202.207792 
L 902.571924 200.961039 
L 904.460043 200.961039 
L 904.460043 199.714286 
L 906.361825 199.714286 
L 906.361825 198.467532 
L 906.532512 198.467532 
L 906.532512 197.220779 
L 908.720746 197.220779 
L 908.720746 195.974026 
L 910.036707 195.974026 
L 910.036707 194.727273 
L 910.264122 194.727273 
L 910.264122 193.480519 
L 912.799229 193.480519 
L 912.799229 192.233766 
L 913.530818 192.233766 
L 913.530818 190.987013 
L 917.286656 190.987013 
L 917.286656 189.74026 
L 917.426168 189.74026 
L 917.426168 188.493506 
L 920.565466 188.493506 
L 920.565466 187.246753 
L 922.274671 187.246753 
L 922.274671 186 
L 927.046389 186 
L 927.046389 184.753247 
L 928.369516 184.753247 
L 928.369516 183.506494 
L 928.844473 183.506494 
L 928.844473 182.25974 
L 931.96681 182.25974 
L 931.96681 181.012987 
L 939.13929 181.012987 
L 939.13929 179.766234 
L 939.615648 179.766234 
L 939.615648 178.519481 
L 940.110144 178.519481 
L 940.110144 177.272727 
L 941.769186 177.272727 
L 941.769186 176.025974 
L 942.266445 176.025974 
L 942.266445 174.779221 
L 945.220607 174.779221 
L 945.220607 173.532468 
L 945.413898 173.532468 
L 945.413898 172.285714 
L 954.715842 172.285714 
L 954.727083 169.792208 
L 963.868418 169.792208 
L 963.868418 168.545455 
L 965.104601 168.545455 
L 965.104601 167.298701 
L 967.296953 167.298701 
L 967.296953 166.051948 
L 973.409909 166.051948 
L 973.409909 164.805195 
L 975.812571 164.805195 
L 975.812571 163.558442 
L 979.651624 163.558442 
L 979.651624 162.311688 
L 981.099 162.311688 
L 981.131016 159.818182 
L 987.733251 159.818182 
L 987.733251 158.571429 
L 989.510969 158.571429 
L 989.510969 157.324675 
L 990.973178 157.324675 
L 990.973178 156.077922 
L 995.610217 156.077922 
L 995.610217 154.831169 
L 999.27967 154.831169 
L 999.27967 153.584416 
L 999.931095 153.584416 
L 999.988981 151.090909 
L 1006.185915 151.090909 
L 1006.185915 149.844156 
L 1011.512201 149.844156 
L 1011.512201 148.597403 
L 1015.327038 148.597403 
L 1015.327038 147.350649 
L 1017.556775 147.350649 
L 1017.556775 146.103896 
L 1019.134331 146.103896 
L 1019.134331 144.857143 
L 1020.773743 144.857143 
L 1020.773743 143.61039 
L 1022.969 143.61039 
L 1022.969 142.363636 
L 1024.333463 142.363636 
L 1024.333463 141.116883 
L 1024.780356 141.116883 
L 1024.780356 139.87013 
L 1030.49923 139.87013 
L 1030.49923 138.623377 
L 1031.924899 138.623377 
L 1031.924899 137.376623 
L 1032.559244 137.376623 
L 1032.559244 136.12987 
L 1037.665942 136.12987 
L 1037.665942 134.883117 
L 1038.644422 134.883117 
L 1038.644422 133.636364 
L 1039.067349 133.636364 
L 1039.067349 132.38961 
L 1042.051956 132.38961 
L 1042.051956 131.142857 
L 1044.338437 131.142857 
L 1044.338437 129.896104 
L 1045.549462 129.896104 
L 1045.549462 128.649351 
L 1047.416697 128.649351 
L 1047.416697 127.402597 
L 1048.809973 127.402597 
L 1048.809973 126.155844 
L 1049.643912 126.155844 
L 1049.643912 124.909091 
L 1050.259065 124.909091 
L 1050.259065 123.662338 
L 1050.949994 123.662338 
L 1050.949994 122.415584 
L 1053.317068 122.415584 
L 1053.317068 121.168831 
L 1054.930685 121.168831 
L 1054.930685 119.922078 
L 1061.252841 119.922078 
L 1061.252841 118.675325 
L 1063.129072 118.675325 
L 1063.129072 117.428571 
L 1065.817257 117.428571 
L 1065.817257 116.181818 
L 1066.48323 116.181818 
L 1066.48323 114.935065 
L 1069.874042 114.935065 
L 1069.874042 113.688312 
L 1076.478139 113.688312 
L 1076.478139 112.441558 
L 1076.682082 112.441558 
L 1076.682082 111.194805 
L 1077.306529 111.194805 
L 1077.306529 109.948052 
L 1080.260815 109.948052 
L 1080.260815 108.701299 
L 1082.653064 108.701299 
L 1082.754144 106.207792 
L 1083.464605 106.207792 
L 1083.464605 104.961039 
L 1093.94707 104.961039 
L 1093.94707 103.714286 
L 1095.596565 103.714286 
L 1095.596565 102.467532 
L 1109.046694 102.467532 
L 1109.046694 101.220779 
L 1113.854149 101.220779 
L 1113.854149 99.974026 
L 1117.273258 99.974026 
L 1117.273258 98.727273 
L 1122.651698 98.727273 
L 1122.651698 97.480519 
L 1123.585569 97.480519 
L 1123.585569 96.233766 
L 1129.366848 96.233766 
L 1129.366848 94.987013 
L 1131.118857 94.987013 
L 1131.118857 93.74026 
L 1131.118857 93.74026 
" clip-path="url(#p261e01c3d7)" style="fill: none; stroke: #2468a2; stroke-width: 2.7; stroke-linecap: square"/>
   </g>
   <g id="line2d_63">
    <defs>
     <path id="m2ee1507acd" d="M 0 3.25 
C 0.86191 3.25 1.688635 2.907559 2.298097 2.298097 
C 2.907559 1.688635 3.25 0.86191 3.25 0 
C 3.25 -0.86191 2.907559 -1.688635 2.298097 -2.298097 
C 1.688635 -2.907559 0.86191 -3.25 0 -3.25 
C -0.86191 -3.25 -1.688635 -2.907559 -2.298097 -2.298097 
C -2.907559 -1.688635 -3.25 -0.86191 -3.25 0 
C -3.25 0.86191 -2.907559 1.688635 -2.298097 2.298097 
C -1.688635 2.907559 -0.86191 3.25 0 3.25 
z
" style="stroke: #1f77b4"/>
    </defs>
    <g clip-path="url(#p261e01c3d7)">
     <use xlink:href="#m2ee1507acd" x="835.12056" y="235.87013" style="fill: #1f77b4; stroke: #1f77b4"/>
    </g>
   </g>
   <g id="line2d_64">
    <defs>
     <path id="m79e1ba813a" d="M 0 3.25 
C 0.86191 3.25 1.688635 2.907559 2.298097 2.298097 
C 2.907559 1.688635 3.25 0.86191 3.25 0 
C 3.25 -0.86191 2.907559 -1.688635 2.298097 -2.298097 
C 1.688635 -2.907559 0.86191 -3.25 0 -3.25 
C -0.86191 -3.25 -1.688635 -2.907559 -2.298097 -2.298097 
C -2.907559 -1.688635 -3.25 -0.86191 -3.25 0 
C -3.25 0.86191 -2.907559 1.688635 -2.298097 2.298097 
C -1.688635 2.907559 -0.86191 3.25 0 3.25 
z
" style="stroke: #ff7f0e"/>
    </defs>
    <g clip-path="url(#p261e01c3d7)">
     <use xlink:href="#m79e1ba813a" x="880.426902" y="209.688312" style="fill: #ff7f0e; stroke: #ff7f0e"/>
    </g>
   </g>
   <g id="line2d_65">
    <defs>
     <path id="mfd68b36734" d="M 0 3.25 
C 0.86191 3.25 1.688635 2.907559 2.298097 2.298097 
C 2.907559 1.688635 3.25 0.86191 3.25 0 
C 3.25 -0.86191 2.907559 -1.688635 2.298097 -2.298097 
C 1.688635 -2.907559 0.86191 -3.25 0 -3.25 
C -0.86191 -3.25 -1.688635 -2.907559 -2.298097 -2.298097 
C -2.907559 -1.688635 -3.25 -0.86191 -3.25 0 
C -3.25 0.86191 -2.907559 1.688635 -2.298097 2.298097 
C -1.688635 2.907559 -0.86191 3.25 0 3.25 
z
" style="stroke: #2ca02c"/>
    </defs>
    <g clip-path="url(#p261e01c3d7)">
     <use xlink:href="#mfd68b36734" x="925.733243" y="186" style="fill: #2ca02c; stroke: #2ca02c"/>
    </g>
   </g>
   <g id="line2d_66">
    <defs>
     <path id="m6b45ee7c03" d="M 0 3.25 
C 0.86191 3.25 1.688635 2.907559 2.298097 2.298097 
C 2.907559 1.688635 3.25 0.86191 3.25 0 
C 3.25 -0.86191 2.907559 -1.688635 2.298097 -2.298097 
C 1.688635 -2.907559 0.86191 -3.25 0 -3.25 
C -0.86191 -3.25 -1.688635 -2.907559 -2.298097 -2.298097 
C -2.907559 -1.688635 -3.25 -0.86191 -3.25 0 
C -3.25 0.86191 -2.907559 1.688635 -2.298097 2.298097 
C -1.688635 2.907559 -0.86191 3.25 0 3.25 
z
" style="stroke: #d62728"/>
    </defs>
    <g clip-path="url(#p261e01c3d7)">
     <use xlink:href="#m6b45ee7c03" x="971.039585" y="166.051948" style="fill: #d62728; stroke: #d62728"/>
    </g>
   </g>
   <g id="line2d_67">
    <defs>
     <path id="m9de826930e" d="M 0 3.25 
C 0.86191 3.25 1.688635 2.907559 2.298097 2.298097 
C 2.907559 1.688635 3.25 0.86191 3.25 0 
C 3.25 -0.86191 2.907559 -1.688635 2.298097 -2.298097 
C 1.688635 -2.907559 0.86191 -3.25 0 -3.25 
C -0.86191 -3.25 -1.688635 -2.907559 -2.298097 -2.298097 
C -2.907559 -1.688635 -3.25 -0.86191 -3.25 0 
C -3.25 0.86191 -2.907559 1.688635 -2.298097 2.298097 
C -1.688635 2.907559 -0.86191 3.25 0 3.25 
z
" style="stroke: #9467bd"/>
    </defs>
    <g clip-path="url(#p261e01c3d7)">
     <use xlink:href="#m9de826930e" x="1061.652268" y="118.675325" style="fill: #9467bd; stroke: #9467bd"/>
    </g>
   </g>
   <g id="line2d_68">
    <path d="M 789.814219 187.246753 
L 1153.772028 187.246753 
" clip-path="url(#p261e01c3d7)" style="fill: none; stroke-dasharray: 1.3,2.145; stroke-dashoffset: 0; stroke: #6c757d; stroke-width: 1.3"/>
   </g>
   <g id="line2d_69">
    <path d="M 921.420069 280.753247 
L 921.420069 90 
" clip-path="url(#p261e01c3d7)" style="fill: none; stroke-dasharray: 6.29,2.72; stroke-dashoffset: 0; stroke: #2c3e50; stroke-width: 1.7"/>
   </g>
   <g id="patch_27">
    <path d="M 789.814219 280.753247 
L 789.814219 90 
" style="fill: none; stroke: #000000; stroke-width: 0.8; stroke-linejoin: miter; stroke-linecap: square"/>
   </g>
   <g id="patch_28">
    <path d="M 1153.772028 280.753247 
L 1153.772028 90 
" style="fill: none; stroke: #000000; stroke-width: 0.8; stroke-linejoin: miter; stroke-linecap: square"/>
   </g>
   <g id="patch_29">
    <path d="M 789.814219 280.753247 
L 1153.772028 280.753247 
" style="fill: none; stroke: #000000; stroke-width: 0.8; stroke-linejoin: miter; stroke-linecap: square"/>
   </g>
   <g id="patch_30">
    <path d="M 789.814219 90 
L 1153.772028 90 
" style="fill: none; stroke: #000000; stroke-width: 0.8; stroke-linejoin: miter; stroke-linecap: square"/>
   </g>
   <g id="text_42">
    <text style="font-size: 9.3px; font-family: 'DejaVu Sans'; text-anchor: start" x="886.426902" y="201.688312" transform="rotate(-0 886.426902 201.688312)">≤ 0.10: 38.0%</text>
   </g>
   <g id="text_43">
    <text style="font-size: 9.3px; font-family: 'DejaVu Sans'; text-anchor: start" x="977.039585" y="158.051948" transform="rotate(-0 977.039585 158.051948)">≤ 0.20: 61.3%</text>
   </g>
   <g id="text_44">
    <text style="font-size: 9.3px; font-family: 'DejaVu Sans'; text-anchor: start" x="1067.652268" y="110.675325" transform="rotate(-0 1067.652268 110.675325)">≤ 0.30: 86.7%</text>
   </g>
   <g id="text_45">
    <text style="font-weight: 700; font-size: 13px; font-family: 'DejaVu Sans'; text-anchor: middle" x="971.793123" y="80" transform="rotate(-0 971.793123 80)">Эмпирическая функция распределения</text>
   </g>
  </g>
  <g id="axes_3">
   <g id="patch_31">
    <path d="M 789.814219 530.64 
L 1153.772028 530.64 
L 1153.772028 339.886753 
L 789.814219 339.886753 
z
" style="fill: #ffffff"/>
   </g>
   <g id="patch_32">
    <path d="M 789.814219 521.969398 
L 877.164093 521.969398 
L 877.164093 493.067391 
L 789.814219 493.067391 
z
" clip-path="url(#p9d50be3bf2)" style="fill: #1f77b4; opacity: 0.85"/>
   </g>
   <g id="patch_33">
    <path d="M 789.814219 485.841889 
L 928.118186 485.841889 
L 928.118186 456.939882 
L 789.814219 456.939882 
z
" clip-path="url(#p9d50be3bf2)" style="fill: #1f77b4; opacity: 0.85"/>
   </g>
   <g id="patch_34">
    <path d="M 789.814219 449.71438 
L 974.219509 449.71438 
L 974.219509 420.812373 
L 789.814219 420.812373 
z
" clip-path="url(#p9d50be3bf2)" style="fill: #1f77b4; opacity: 0.85"/>
   </g>
   <g id="patch_35">
    <path d="M 789.814219 413.586871 
L 1013.041675 413.586871 
L 1013.041675 384.684864 
L 789.814219 384.684864 
z
" clip-path="url(#p9d50be3bf2)" style="fill: #1f77b4; opacity: 0.85"/>
   </g>
   <g id="patch_36">
    <path d="M 789.814219 377.459362 
L 1105.24432 377.459362 
L 1105.24432 348.557355 
L 789.814219 348.557355 
z
" clip-path="url(#p9d50be3bf2)" style="fill: #1f77b4; opacity: 0.85"/>
   </g>
   <g id="matplotlib.axis_5">
    <g id="xtick_19">
     <g id="line2d_70">
      <path d="M 789.814219 530.64 
L 789.814219 339.886753 
" clip-path="url(#p9d50be3bf2)" style="fill: none; stroke: #b0b0b0; stroke-opacity: 0.24; stroke-width: 0.8; stroke-linecap: square"/>
     </g>
     <g id="line2d_71">
      <g>
       <use xlink:href="#m4183892b9b" x="789.814219" y="530.64" style="stroke: #000000; stroke-width: 0.8"/>
      </g>
     </g>
     <g id="text_46">
      <text style="font-size: 11px; font-family: 'DejaVu Sans'; text-anchor: middle" x="789.814219" y="545.997422" transform="rotate(-0 789.814219 545.997422)">0</text>
     </g>
    </g>
    <g id="xtick_20">
     <g id="line2d_72">
      <path d="M 862.605781 530.64 
L 862.605781 339.886753 
" clip-path="url(#p9d50be3bf2)" style="fill: none; stroke: #b0b0b0; stroke-opacity: 0.24; stroke-width: 0.8; stroke-linecap: square"/>
     </g>
     <g id="line2d_73">
      <g>
       <use xlink:href="#m4183892b9b" x="862.605781" y="530.64" style="stroke: #000000; stroke-width: 0.8"/>
      </g>
     </g>
     <g id="text_47">
      <text style="font-size: 11px; font-family: 'DejaVu Sans'; text-anchor: middle" x="862.605781" y="545.997422" transform="rotate(-0 862.605781 545.997422)">20</text>
     </g>
    </g>
    <g id="xtick_21">
     <g id="line2d_74">
      <path d="M 935.397343 530.64 
L 935.397343 339.886753 
" clip-path="url(#p9d50be3bf2)" style="fill: none; stroke: #b0b0b0; stroke-opacity: 0.24; stroke-width: 0.8; stroke-linecap: square"/>
     </g>
     <g id="line2d_75">
      <g>
       <use xlink:href="#m4183892b9b" x="935.397343" y="530.64" style="stroke: #000000; stroke-width: 0.8"/>
      </g>
     </g>
     <g id="text_48">
      <text style="font-size: 11px; font-family: 'DejaVu Sans'; text-anchor: middle" x="935.397343" y="545.997422" transform="rotate(-0 935.397343 545.997422)">40</text>
     </g>
    </g>
    <g id="xtick_22">
     <g id="line2d_76">
      <path d="M 1008.188904 530.64 
L 1008.188904 339.886753 
" clip-path="url(#p9d50be3bf2)" style="fill: none; stroke: #b0b0b0; stroke-opacity: 0.24; stroke-width: 0.8; stroke-linecap: square"/>
     </g>
     <g id="line2d_77">
      <g>
       <use xlink:href="#m4183892b9b" x="1008.188904" y="530.64" style="stroke: #000000; stroke-width: 0.8"/>
      </g>
     </g>
     <g id="text_49">
      <text style="font-size: 11px; font-family: 'DejaVu Sans'; text-anchor: middle" x="1008.188904" y="545.997422" transform="rotate(-0 1008.188904 545.997422)">60</text>
     </g>
    </g>
    <g id="xtick_23">
     <g id="line2d_78">
      <path d="M 1080.980466 530.64 
L 1080.980466 339.886753 
" clip-path="url(#p9d50be3bf2)" style="fill: none; stroke: #b0b0b0; stroke-opacity: 0.24; stroke-width: 0.8; stroke-linecap: square"/>
     </g>
     <g id="line2d_79">
      <g>
       <use xlink:href="#m4183892b9b" x="1080.980466" y="530.64" style="stroke: #000000; stroke-width: 0.8"/>
      </g>
     </g>
     <g id="text_50">
      <text style="font-size: 11px; font-family: 'DejaVu Sans'; text-anchor: middle" x="1080.980466" y="545.997422" transform="rotate(-0 1080.980466 545.997422)">80</text>
     </g>
    </g>
    <g id="xtick_24">
     <g id="line2d_80">
      <path d="M 1153.772028 530.64 
L 1153.772028 339.886753 
" clip-path="url(#p9d50be3bf2)" style="fill: none; stroke: #b0b0b0; stroke-opacity: 0.24; stroke-width: 0.8; stroke-linecap: square"/>
     </g>
     <g id="line2d_81">
      <g>
       <use xlink:href="#m4183892b9b" x="1153.772028" y="530.64" style="stroke: #000000; stroke-width: 0.8"/>
      </g>
     </g>
     <g id="text_51">
      <text style="font-size: 11px; font-family: 'DejaVu Sans'; text-anchor: middle" x="1153.772028" y="545.997422" transform="rotate(-0 1153.772028 545.997422)">100</text>
     </g>
    </g>
    <g id="text_52">
     <text style="font-size: 11px; font-family: 'DejaVu Sans'; text-anchor: middle" x="971.793123" y="560.997422" transform="rotate(-0 971.793123 560.997422)">Доля сценариев, %</text>
    </g>
   </g>
   <g id="matplotlib.axis_6">
    <g id="ytick_15">
     <g id="line2d_82">
      <g>
       <use xlink:href="#m16050b89f0" x="789.814219" y="507.518394" style="stroke: #000000; stroke-width: 0.8"/>
      </g>
     </g>
     <g id="text_53">
      <text style="font-size: 11px; font-family: 'DejaVu Sans'; text-anchor: end" x="782.814219" y="511.721597" transform="rotate(-0 782.814219 511.721597)">|e| ≤ 0.05</text>
     </g>
    </g>
    <g id="ytick_16">
     <g id="line2d_83">
      <g>
       <use xlink:href="#m16050b89f0" x="789.814219" y="471.390885" style="stroke: #000000; stroke-width: 0.8"/>
      </g>
     </g>
     <g id="text_54">
      <text style="font-size: 11px; font-family: 'DejaVu Sans'; text-anchor: end" x="782.814219" y="475.594089" transform="rotate(-0 782.814219 475.594089)">|e| ≤ 0.10</text>
     </g>
    </g>
    <g id="ytick_17">
     <g id="line2d_84">
      <g>
       <use xlink:href="#m16050b89f0" x="789.814219" y="435.263377" style="stroke: #000000; stroke-width: 0.8"/>
      </g>
     </g>
     <g id="text_55">
      <text style="font-size: 11px; font-family: 'DejaVu Sans'; text-anchor: end" x="782.814219" y="439.46658" transform="rotate(-0 782.814219 439.46658)">|e| ≤ 0.15</text>
     </g>
    </g>
    <g id="ytick_18">
     <g id="line2d_85">
      <g>
       <use xlink:href="#m16050b89f0" x="789.814219" y="399.135868" style="stroke: #000000; stroke-width: 0.8"/>
      </g>
     </g>
     <g id="text_56">
      <text style="font-size: 11px; font-family: 'DejaVu Sans'; text-anchor: end" x="782.814219" y="403.339071" transform="rotate(-0 782.814219 403.339071)">|e| ≤ 0.20</text>
     </g>
    </g>
    <g id="ytick_19">
     <g id="line2d_86">
      <g>
       <use xlink:href="#m16050b89f0" x="789.814219" y="363.008359" style="stroke: #000000; stroke-width: 0.8"/>
      </g>
     </g>
     <g id="text_57">
      <text style="font-size: 11px; font-family: 'DejaVu Sans'; text-anchor: end" x="782.814219" y="367.211562" transform="rotate(-0 782.814219 367.211562)">|e| ≤ 0.30</text>
     </g>
    </g>
   </g>
   <g id="patch_37">
    <path d="M 789.814219 530.64 
L 789.814219 339.886753 
" style="fill: none; stroke: #000000; stroke-width: 0.8; stroke-linejoin: miter; stroke-linecap: square"/>
   </g>
   <g id="patch_38">
    <path d="M 1153.772028 530.64 
L 1153.772028 339.886753 
" style="fill: none; stroke: #000000; stroke-width: 0.8; stroke-linejoin: miter; stroke-linecap: square"/>
   </g>
   <g id="patch_39">
    <path d="M 789.814219 530.64 
L 1153.772028 530.64 
" style="fill: none; stroke: #000000; stroke-width: 0.8; stroke-linejoin: miter; stroke-linecap: square"/>
   </g>
   <g id="patch_40">
    <path d="M 789.814219 339.886753 
L 1153.772028 339.886753 
" style="fill: none; stroke: #000000; stroke-width: 0.8; stroke-linejoin: miter; stroke-linecap: square"/>
   </g>
   <g id="text_58">
    <text style="font-size: 9.6px; font-family: 'DejaVu Sans'; text-anchor: start" x="881.895545" y="510.012144" transform="rotate(-0 881.895545 510.012144)">36 (24.0%)</text>
   </g>
   <g id="text_59">
    <text style="font-size: 9.6px; font-family: 'DejaVu Sans'; text-anchor: start" x="932.849638" y="473.884635" transform="rotate(-0 932.849638 473.884635)">57 (38.0%)</text>
   </g>
   <g id="text_60">
    <text style="font-size: 9.6px; font-family: 'DejaVu Sans'; text-anchor: start" x="978.95096" y="437.757127" transform="rotate(-0 978.95096 437.757127)">76 (50.7%)</text>
   </g>
   <g id="text_61">
    <text style="font-size: 9.6px; font-family: 'DejaVu Sans'; text-anchor: start" x="1017.773127" y="401.629618" transform="rotate(-0 1017.773127 401.629618)">92 (61.3%)</text>
   </g>
   <g id="text_62">
    <text style="font-size: 9.6px; font-family: 'DejaVu Sans'; text-anchor: start" x="1109.975772" y="365.502109" transform="rotate(-0 1109.975772 365.502109)">130 (86.7%)</text>
   </g>
   <g id="text_63">
    <text style="font-weight: 700; font-size: 13px; font-family: 'DejaVu Sans'; text-anchor: middle" x="971.793123" y="329.886753" transform="rotate(-0 971.793123 329.886753)">Покрытие фиксированных порогов ошибки</text>
   </g>
  </g>
  <g id="axes_4">
   <g id="patch_41">
    <path d="M 1233.285703 203.24448 
L 1448.81024 203.24448 
Q 1453.526313 203.24448 1453.526313 194.43168 
L 1453.526313 102.33792 
Q 1453.526313 93.52512 1448.81024 93.52512 
L 1233.285703 93.52512 
Q 1228.56963 93.52512 1228.56963 102.33792 
L 1228.56963 194.43168 
Q 1228.56963 203.24448 1233.285703 203.24448 
z
" clip-path="url(#p35b75e43b9)" style="fill: #eef5fb; stroke: #7a8793; stroke-linejoin: miter"/>
   </g>
   <g id="patch_42">
    <path d="M 1233.285703 339.84288 
L 1448.81024 339.84288 
Q 1453.526313 339.84288 1453.526313 331.03008 
L 1453.526313 225.71712 
Q 1453.526313 216.90432 1448.81024 216.90432 
L 1233.285703 216.90432 
Q 1228.56963 216.90432 1228.56963 225.71712 
L 1228.56963 331.03008 
Q 1228.56963 339.84288 1233.285703 339.84288 
z
" clip-path="url(#p35b75e43b9)" style="fill: #f7f4ec; stroke: #7a8793; stroke-linejoin: miter"/>
   </g>
   <g id="patch_43">
    <path d="M 1233.285703 450.00288 
L 1448.81024 450.00288 
Q 1453.526313 450.00288 1453.526313 441.19008 
L 1453.526313 357.90912 
Q 1453.526313 349.09632 1448.81024 349.09632 
L 1233.285703 349.09632 
Q 1228.56963 349.09632 1228.56963 357.90912 
L 1228.56963 441.19008 
Q 1228.56963 450.00288 1233.285703 450.00288 
z
" clip-path="url(#p35b75e43b9)" style="fill: #fbefef; stroke: #7a8793; stroke-linejoin: miter"/>
   </g>
   <g id="patch_44">
    <path d="M 1233.285703 520.50528 
L 1448.81024 520.50528 
Q 1453.526313 520.50528 1453.526313 511.69248 
L 1453.526313 459.25632 
Q 1453.526313 450.44352 1448.81024 450.44352 
L 1233.285703 450.44352 
Q 1228.56963 450.44352 1228.56963 459.25632 
L 1228.56963 511.69248 
Q 1228.56963 520.50528 1233.285703 520.50528 
z
" clip-path="url(#p35b75e43b9)" style="fill: #f1f6f0; stroke: #7a8793; stroke-linejoin: miter"/>
   </g>
   <g id="text_64">
    <text style="font-weight: 700; font-size: 12.1px; font-family: 'DejaVu Sans'; text-anchor: start" x="1240.83142" y="122.106444" transform="rotate(-0 1240.83142 122.106444)">Центр распределения</text>
   </g>
   <g id="text_65">
    <text style="font-size: 10.2px; font-family: 'DejaVu Sans'" transform="translate(1240.83142 144.304641)">MAE = 0.159244</text>
    <text style="font-size: 10.2px; font-family: 'DejaVu Sans'" transform="translate(1240.83142 156.343031)">Median |e| = 0.145240</text>
    <text style="font-size: 10.2px; font-family: 'DejaVu Sans'" transform="translate(1240.83142 170.416641)">RMSE = 0.194403</text>
    <text style="font-size: 10.2px; font-family: 'DejaVu Sans'" transform="translate(1240.83142 182.455031)">σ(|e|) = 0.111880</text>
   </g>
   <g id="text_66">
    <text style="font-weight: 700; font-size: 12.1px; font-family: 'DejaVu Sans'; text-anchor: start" x="1240.83142" y="245.485644" transform="rotate(-0 1240.83142 245.485644)">Квартильная структура</text>
   </g>
   <g id="text_67">
    <text style="font-size: 10.2px; font-family: 'DejaVu Sans'" transform="translate(1240.83142 267.773888)">min = 0.000237</text>
    <text style="font-size: 10.2px; font-family: 'DejaVu Sans'" transform="translate(1240.83142 280.154934)">Q1 = 0.054620</text>
    <text style="font-size: 10.2px; font-family: 'DejaVu Sans'" transform="translate(1240.83142 293.210934)">Q3 = 0.259185</text>
    <text style="font-size: 10.2px; font-family: 'DejaVu Sans'" transform="translate(1240.83142 306.851841)">P90 = 0.316384</text>
    <text style="font-size: 10.2px; font-family: 'DejaVu Sans'" transform="translate(1240.83142 319.907841)">P95 = 0.336642</text>
   </g>
   <g id="text_68">
    <text style="font-weight: 700; font-size: 12.1px; font-family: 'DejaVu Sans'; text-anchor: start" x="1240.83142" y="378.07373" transform="rotate(-0 1240.83142 378.07373)">Максимальная абсолютная ошибка</text>
   </g>
   <g id="text_69">
    <text style="font-size: 10.2px; font-family: 'DejaVu Sans'" transform="translate(1240.83142 398.858231)">Max |e| = 0.376663</text>
    <text style="font-size: 10.2px; font-family: 'DejaVu Sans'" transform="translate(1240.83142 411.891122)">сценарий: scn_0027</text>
    <text style="font-size: 10.2px; font-family: 'DejaVu Sans'" transform="translate(1240.83142 424.857872)">протокол: prt_0027_00</text>
    <text style="font-size: 10.2px; font-family: 'DejaVu Sans'" transform="translate(1240.83142 439.043841)">N = 150</text>
   </g>
   <g id="text_70">
    <text style="font-weight: 700; font-size: 12.1px; font-family: 'DejaVu Sans'; text-anchor: start" x="1240.83142" y="479.024844" transform="rotate(-0 1240.83142 479.024844)">Интерпретация</text>
   </g>
   <g id="text_71">
    <text style="font-size: 10.2px; font-family: 'DejaVu Sans'" transform="translate(1240.83142 500.205431)">|e| измеряет величину расхождения</text>
    <text style="font-size: 10.2px; font-family: 'DejaVu Sans'" transform="translate(1240.83142 513.467822)">без направления; меньшая ошибка лучше.</text>
   </g>
  </g>
  <g id="text_72">
   <text style="font-weight: 700; font-size: 17px; font-family: 'DejaVu Sans'; text-anchor: middle" x="856.309797" y="19.2325" transform="rotate(-0 856.309797 19.2325)">Рисунок 6.3 — Распределение абсолютной ошибки интегрального прогноза</text>
  </g>
  <g id="text_73">
   <text style="font-size: 11.3px; font-family: 'DejaVu Sans'; text-anchor: middle" x="856.309797" y="44.64" transform="rotate(-0 856.309797 44.64)">MAE характеризует среднюю величину расхождения, Median |e| — типичную ошибку, Max |e| — крайнее наблюдаемое отклонение.</text>
  </g>
  <g id="text_74">
   <g id="patch_45">
    <path d="M 5.76 606.69 
L 1706.859594 606.69 
Q 1711.629594 606.69 1711.629594 601.92 
L 1711.629594 591.138641 
Q 1711.629594 586.368641 1706.859594 586.368641 
L 5.76 586.368641 
Q 0.99 586.368641 0.99 591.138641 
L 0.99 601.92 
Q 0.99 606.69 5.76 606.69 
z
" style="fill: #f3f4f6; stroke: #9aa3ad; stroke-linejoin: miter"/>
   </g>
   <text style="font-size: 10.6px; font-family: 'DejaVu Sans'; text-anchor: middle" x="856.309797" y="599.373516" transform="rotate(-0 856.309797 599.373516)">Методическое примечание: распределение |e| используется для внешней диагностики величины ошибки. Оно не сохраняет направление смещения и само по себе не подтверждает абсолютную калибровку, вероятностное покрытие или переносимость модели за пределы вычислительного корпуса.</text>
  </g>
 </g>
 <defs>
  <clipPath id="p66e798096e">
   <rect x="279.589797" y="90" width="440.850304" height="440.64"/>
  </clipPath>
  <clipPath id="p261e01c3d7">
   <rect x="789.814219" y="90" width="363.957809" height="190.753247"/>
  </clipPath>
  <clipPath id="p9d50be3bf2">
   <rect x="789.814219" y="339.886753" width="363.957809" height="190.753247"/>
  </clipPath>
  <clipPath id="p35b75e43b9">
   <rect x="1223.146146" y="90" width="235.803651" height="440.64"/>
  </clipPath>
 </defs>
</svg>
