<?xml version="1.0" encoding="utf-8" standalone="no"?>
<!DOCTYPE svg PUBLIC "-//W3C//DTD SVG 1.1//EN"
  "http://www.w3.org/Graphics/SVG/1.1/DTD/svg11.dtd">
<svg xmlns:xlink="http://www.w3.org/1999/xlink" width="1563.344625pt" height="536.337812pt" viewBox="0 0 1563.344625 536.337812" xmlns="http://www.w3.org/2000/svg" version="1.1">
 <metadata>
  <rdf:RDF xmlns:dc="http://purl.org/dc/elements/1.1/" xmlns:cc="http://creativecommons.org/ns#" xmlns:rdf="http://www.w3.org/1999/02/22-rdf-syntax-ns#">
   <cc:Work>
    <dc:type rdf:resource="http://purl.org/dc/dcmitype/StillImage"/>
    <dc:format>image/svg+xml</dc:format>
    <dc:creator>
     <cc:Agent>
      <dc:title>manual_coding_sim</dc:title>
     </cc:Agent>
    </dc:creator>
   </cc:Work>
  </rdf:RDF>
 </metadata>
 <defs>
  <style type="text/css">*{stroke-linejoin: round; stroke-linecap: butt}</style>
 </defs>
 <g id="figure_1">
  <g id="patch_1">
   <path d="M -0 536.337812 
L 1563.344625 536.337812 
L 1563.344625 0 
L -0 0 
z
" style="fill: #ffffff"/>
  </g>
  <g id="axes_1">
   <g id="patch_2">
    <path d="M 242.968313 463.32 
L 962.960313 463.32 
L 962.960313 103.176 
L 242.968313 103.176 
z
" style="fill: #ffffff"/>
   </g>
   <g id="patch_3">
    <path d="M 275.695222 463.32 
L 434.16236 463.32 
L 434.16236 103.176 
L 275.695222 103.176 
z
" clip-path="url(#p30be9b5d20)" style="fill: #59a14f; opacity: 0.08; stroke: #59a14f; stroke-linejoin: miter"/>
   </g>
   <g id="matplotlib.axis_1">
    <g id="xtick_1">
     <g id="line2d_1">
      <defs>
       <path id="m4183892b9b" d="M 0 0 
L 0 3.5 
" style="stroke: #000000; stroke-width: 0.8"/>
      </defs>
      <g>
       <use xlink:href="#m4183892b9b" x="354.928791" y="463.32" style="stroke: #000000; stroke-width: 0.8"/>
      </g>
     </g>
     <g id="text_1">
      <text style="font-size: 11px; font-family: 'DejaVu Sans'" transform="translate(315.157775 478.678281)">Mean baseline</text>
      <text style="font-size: 11px; font-family: 'DejaVu Sans'" transform="translate(317.055275 490.995875)">OOF-среднее</text>
     </g>
    </g>
    <g id="xtick_2">
     <g id="line2d_2">
      <g>
       <use xlink:href="#m4183892b9b" x="527.175681" y="463.32" style="stroke: #000000; stroke-width: 0.8"/>
      </g>
     </g>
     <g id="text_2">
      <text style="font-size: 11px; font-family: 'DejaVu Sans'" transform="translate(501.169275 478.678281)">Prior-only</text>
      <!-- без $q_{latent}$ -->
      <g transform="translate(500.775681 491.261937)">
       <text>
        <tspan x="0" y="-0.453125" style="font-size: 11px; font-family: 'DejaVu Sans'">б</tspan>
        <tspan x="6.783691" y="-0.453125" style="font-size: 11px; font-family: 'DejaVu Sans'">е</tspan>
        <tspan x="13.55127" y="-0.453125" style="font-size: 11px; font-family: 'DejaVu Sans'">з</tspan>
        <tspan x="19.400391" y="-0.453125" style="font-size: 11px; font-family: 'DejaVu Sans'"> </tspan>
        <tspan x="22.896973" y="-0.453125" style="font-style: oblique; font-size: 11px; font-family: 'DejaVu Sans'">q</tspan>
        <tspan x="29.879395" y="1.351562" style="font-style: oblique; font-size: 7.7px; font-family: 'DejaVu Sans'">l</tspan>
        <tspan x="32.018701" y="1.351562" style="font-style: oblique; font-size: 7.7px; font-family: 'DejaVu Sans'">a</tspan>
        <tspan x="36.737207" y="1.351562" style="font-style: oblique; font-size: 7.7px; font-family: 'DejaVu Sans'">t</tspan>
        <tspan x="39.756299" y="1.351562" style="font-style: oblique; font-size: 7.7px; font-family: 'DejaVu Sans'">e</tspan>
        <tspan x="44.493604" y="1.351562" style="font-style: oblique; font-size: 7.7px; font-family: 'DejaVu Sans'">n</tspan>
        <tspan x="49.373779" y="1.351562" style="font-style: oblique; font-size: 7.7px; font-family: 'DejaVu Sans'">t</tspan>
       </text>
      </g>
     </g>
    </g>
    <g id="xtick_3">
     <g id="line2d_3">
      <g>
       <use xlink:href="#m4183892b9b" x="699.422571" y="463.32" style="stroke: #000000; stroke-width: 0.8"/>
      </g>
     </g>
     <g id="text_3">
      <text style="font-size: 11px; font-family: 'DejaVu Sans'" transform="translate(654.924133 478.678281)">Полная модель</text>
      <text style="font-size: 11px; font-family: 'DejaVu Sans'" transform="translate(676.814993 490.995875)">главы 5</text>
     </g>
    </g>
    <g id="xtick_4">
     <g id="line2d_4">
      <g>
       <use xlink:href="#m4183892b9b" x="871.669461" y="463.32" style="stroke: #000000; stroke-width: 0.8"/>
      </g>
     </g>
     <g id="text_4">
      <text style="font-size: 11px; font-family: 'DejaVu Sans'" transform="translate(842.192039 478.678281)">Theta-only</text>
      <!-- только $q_{latent}$ -->
      <g transform="translate(834.984461 490.995875)">
       <text>
        <tspan x="0" y="-0.84375" style="font-size: 11px; font-family: 'DejaVu Sans'">т</tspan>
        <tspan x="6.407715" y="-0.84375" style="font-size: 11px; font-family: 'DejaVu Sans'">о</tspan>
        <tspan x="13.137695" y="-0.84375" style="font-size: 11px; font-family: 'DejaVu Sans'">л</tspan>
        <tspan x="20.168457" y="-0.84375" style="font-size: 11px; font-family: 'DejaVu Sans'">ь</tspan>
        <tspan x="26.651367" y="-0.84375" style="font-size: 11px; font-family: 'DejaVu Sans'">к</tspan>
        <tspan x="33.29541" y="-0.84375" style="font-size: 11px; font-family: 'DejaVu Sans'">о</tspan>
        <tspan x="40.025391" y="-0.84375" style="font-size: 11px; font-family: 'DejaVu Sans'"> </tspan>
        <tspan x="43.521973" y="-0.84375" style="font-style: oblique; font-size: 11px; font-family: 'DejaVu Sans'">q</tspan>
        <tspan x="50.504395" y="0.960938" style="font-style: oblique; font-size: 7.7px; font-family: 'DejaVu Sans'">l</tspan>
        <tspan x="52.643701" y="0.960938" style="font-style: oblique; font-size: 7.7px; font-family: 'DejaVu Sans'">a</tspan>
        <tspan x="57.362207" y="0.960938" style="font-style: oblique; font-size: 7.7px; font-family: 'DejaVu Sans'">t</tspan>
        <tspan x="60.381299" y="0.960938" style="font-style: oblique; font-size: 7.7px; font-family: 'DejaVu Sans'">e</tspan>
        <tspan x="65.118604" y="0.960938" style="font-style: oblique; font-size: 7.7px; font-family: 'DejaVu Sans'">n</tspan>
        <tspan x="69.998779" y="0.960938" style="font-style: oblique; font-size: 7.7px; font-family: 'DejaVu Sans'">t</tspan>
       </text>
      </g>
     </g>
    </g>
   </g>
   <g id="matplotlib.axis_2">
    <g id="ytick_1">
     <g id="line2d_5">
      <path d="M 242.968313 463.32 
L 962.960313 463.32 
" clip-path="url(#p30be9b5d20)" style="fill: none; stroke: #b0b0b0; stroke-opacity: 0.28; stroke-width: 0.8; stroke-linecap: square"/>
     </g>
     <g id="line2d_6">
      <defs>
       <path id="m16050b89f0" d="M 0 0 
L -3.5 0 
" style="stroke: #000000; stroke-width: 0.8"/>
      </defs>
      <g>
       <use xlink:href="#m16050b89f0" x="242.968313" y="463.32" style="stroke: #000000; stroke-width: 0.8"/>
      </g>
     </g>
     <g id="text_5">
      <text style="font-size: 11px; font-family: 'DejaVu Sans'; text-anchor: end" x="235.968313" y="467.499141" transform="rotate(-0 235.968313 467.499141)">0.00</text>
     </g>
    </g>
    <g id="ytick_2">
     <g id="line2d_7">
      <path d="M 242.968313 421.349808 
L 962.960313 421.349808 
" clip-path="url(#p30be9b5d20)" style="fill: none; stroke: #b0b0b0; stroke-opacity: 0.28; stroke-width: 0.8; stroke-linecap: square"/>
     </g>
     <g id="line2d_8">
      <g>
       <use xlink:href="#m16050b89f0" x="242.968313" y="421.349808" style="stroke: #000000; stroke-width: 0.8"/>
      </g>
     </g>
     <g id="text_6">
      <text style="font-size: 11px; font-family: 'DejaVu Sans'; text-anchor: end" x="235.968313" y="425.528949" transform="rotate(-0 235.968313 425.528949)">0.05</text>
     </g>
    </g>
    <g id="ytick_3">
     <g id="line2d_9">
      <path d="M 242.968313 379.379616 
L 962.960313 379.379616 
" clip-path="url(#p30be9b5d20)" style="fill: none; stroke: #b0b0b0; stroke-opacity: 0.28; stroke-width: 0.8; stroke-linecap: square"/>
     </g>
     <g id="line2d_10">
      <g>
       <use xlink:href="#m16050b89f0" x="242.968313" y="379.379616" style="stroke: #000000; stroke-width: 0.8"/>
      </g>
     </g>
     <g id="text_7">
      <text style="font-size: 11px; font-family: 'DejaVu Sans'; text-anchor: end" x="235.968313" y="383.558757" transform="rotate(-0 235.968313 383.558757)">0.10</text>
     </g>
    </g>
    <g id="ytick_4">
     <g id="line2d_11">
      <path d="M 242.968313 337.409425 
L 962.960313 337.409425 
" clip-path="url(#p30be9b5d20)" style="fill: none; stroke: #b0b0b0; stroke-opacity: 0.28; stroke-width: 0.8; stroke-linecap: square"/>
     </g>
     <g id="line2d_12">
      <g>
       <use xlink:href="#m16050b89f0" x="242.968313" y="337.409425" style="stroke: #000000; stroke-width: 0.8"/>
      </g>
     </g>
     <g id="text_8">
      <text style="font-size: 11px; font-family: 'DejaVu Sans'; text-anchor: end" x="235.968313" y="341.588565" transform="rotate(-0 235.968313 341.588565)">0.15</text>
     </g>
    </g>
    <g id="ytick_5">
     <g id="line2d_13">
      <path d="M 242.968313 295.439233 
L 962.960313 295.439233 
" clip-path="url(#p30be9b5d20)" style="fill: none; stroke: #b0b0b0; stroke-opacity: 0.28; stroke-width: 0.8; stroke-linecap: square"/>
     </g>
     <g id="line2d_14">
      <g>
       <use xlink:href="#m16050b89f0" x="242.968313" y="295.439233" style="stroke: #000000; stroke-width: 0.8"/>
      </g>
     </g>
     <g id="text_9">
      <text style="font-size: 11px; font-family: 'DejaVu Sans'; text-anchor: end" x="235.968313" y="299.618373" transform="rotate(-0 235.968313 299.618373)">0.20</text>
     </g>
    </g>
    <g id="ytick_6">
     <g id="line2d_15">
      <path d="M 242.968313 253.469041 
L 962.960313 253.469041 
" clip-path="url(#p30be9b5d20)" style="fill: none; stroke: #b0b0b0; stroke-opacity: 0.28; stroke-width: 0.8; stroke-linecap: square"/>
     </g>
     <g id="line2d_16">
      <g>
       <use xlink:href="#m16050b89f0" x="242.968313" y="253.469041" style="stroke: #000000; stroke-width: 0.8"/>
      </g>
     </g>
     <g id="text_10">
      <text style="font-size: 11px; font-family: 'DejaVu Sans'; text-anchor: end" x="235.968313" y="257.648182" transform="rotate(-0 235.968313 257.648182)">0.25</text>
     </g>
    </g>
    <g id="ytick_7">
     <g id="line2d_17">
      <path d="M 242.968313 211.498849 
L 962.960313 211.498849 
" clip-path="url(#p30be9b5d20)" style="fill: none; stroke: #b0b0b0; stroke-opacity: 0.28; stroke-width: 0.8; stroke-linecap: square"/>
     </g>
     <g id="line2d_18">
      <g>
       <use xlink:href="#m16050b89f0" x="242.968313" y="211.498849" style="stroke: #000000; stroke-width: 0.8"/>
      </g>
     </g>
     <g id="text_11">
      <text style="font-size: 11px; font-family: 'DejaVu Sans'; text-anchor: end" x="235.968313" y="215.67799" transform="rotate(-0 235.968313 215.67799)">0.30</text>
     </g>
    </g>
    <g id="ytick_8">
     <g id="line2d_19">
      <path d="M 242.968313 169.528657 
L 962.960313 169.528657 
" clip-path="url(#p30be9b5d20)" style="fill: none; stroke: #b0b0b0; stroke-opacity: 0.28; stroke-width: 0.8; stroke-linecap: square"/>
     </g>
     <g id="line2d_20">
      <g>
       <use xlink:href="#m16050b89f0" x="242.968313" y="169.528657" style="stroke: #000000; stroke-width: 0.8"/>
      </g>
     </g>
     <g id="text_12">
      <text style="font-size: 11px; font-family: 'DejaVu Sans'; text-anchor: end" x="235.968313" y="173.707798" transform="rotate(-0 235.968313 173.707798)">0.35</text>
     </g>
    </g>
    <g id="ytick_9">
     <g id="line2d_21">
      <path d="M 242.968313 127.558465 
L 962.960313 127.558465 
" clip-path="url(#p30be9b5d20)" style="fill: none; stroke: #b0b0b0; stroke-opacity: 0.28; stroke-width: 0.8; stroke-linecap: square"/>
     </g>
     <g id="line2d_22">
      <g>
       <use xlink:href="#m16050b89f0" x="242.968313" y="127.558465" style="stroke: #000000; stroke-width: 0.8"/>
      </g>
     </g>
     <g id="text_13">
      <text style="font-size: 11px; font-family: 'DejaVu Sans'; text-anchor: end" x="235.968313" y="131.737606" transform="rotate(-0 235.968313 131.737606)">0.40</text>
     </g>
    </g>
    <g id="text_14">
     <!-- Ошибка относительно $Q_{fact}$ -->
     <g transform="translate(205.188469 362.063) rotate(-90)">
      <text>
       <tspan x="0" y="-0.453125" style="font-size: 11px; font-family: 'DejaVu Sans'">О</tspan>
       <tspan x="8.658203" y="-0.453125" style="font-size: 11px; font-family: 'DejaVu Sans'">ш</tspan>
       <tspan x="18.723633" y="-0.453125" style="font-size: 11px; font-family: 'DejaVu Sans'">и</tspan>
       <tspan x="25.872559" y="-0.453125" style="font-size: 11px; font-family: 'DejaVu Sans'">б</tspan>
       <tspan x="32.65625" y="-0.453125" style="font-size: 11px; font-family: 'DejaVu Sans'">к</tspan>
       <tspan x="39.300293" y="-0.453125" style="font-size: 11px; font-family: 'DejaVu Sans'">а</tspan>
       <tspan x="46.041016" y="-0.453125" style="font-size: 11px; font-family: 'DejaVu Sans'"> </tspan>
       <tspan x="49.537598" y="-0.453125" style="font-size: 11px; font-family: 'DejaVu Sans'">о</tspan>
       <tspan x="56.267578" y="-0.453125" style="font-size: 11px; font-family: 'DejaVu Sans'">т</tspan>
       <tspan x="62.675293" y="-0.453125" style="font-size: 11px; font-family: 'DejaVu Sans'">н</tspan>
       <tspan x="69.867188" y="-0.453125" style="font-size: 11px; font-family: 'DejaVu Sans'">о</tspan>
       <tspan x="76.597168" y="-0.453125" style="font-size: 11px; font-family: 'DejaVu Sans'">с</tspan>
       <tspan x="82.64502" y="-0.453125" style="font-size: 11px; font-family: 'DejaVu Sans'">и</tspan>
       <tspan x="89.793945" y="-0.453125" style="font-size: 11px; font-family: 'DejaVu Sans'">т</tspan>
       <tspan x="96.20166" y="-0.453125" style="font-size: 11px; font-family: 'DejaVu Sans'">е</tspan>
       <tspan x="102.969238" y="-0.453125" style="font-size: 11px; font-family: 'DejaVu Sans'">л</tspan>
       <tspan x="110" y="-0.453125" style="font-size: 11px; font-family: 'DejaVu Sans'">ь</tspan>
       <tspan x="116.48291" y="-0.453125" style="font-size: 11px; font-family: 'DejaVu Sans'">н</tspan>
       <tspan x="123.674805" y="-0.453125" style="font-size: 11px; font-family: 'DejaVu Sans'">о</tspan>
       <tspan x="130.404785" y="-0.453125" style="font-size: 11px; font-family: 'DejaVu Sans'"> </tspan>
       <tspan x="133.901367" y="-0.453125" style="font-style: oblique; font-size: 11px; font-family: 'DejaVu Sans'">Q</tspan>
       <tspan x="142.55957" y="1.351562" style="font-style: oblique; font-size: 7.7px; font-family: 'DejaVu Sans'">f</tspan>
       <tspan x="145.270361" y="1.351562" style="font-style: oblique; font-size: 7.7px; font-family: 'DejaVu Sans'">a</tspan>
       <tspan x="149.988867" y="1.351562" style="font-style: oblique; font-size: 7.7px; font-family: 'DejaVu Sans'">c</tspan>
       <tspan x="154.222363" y="1.351562" style="font-style: oblique; font-size: 7.7px; font-family: 'DejaVu Sans'">t</tspan>
      </text>
     </g>
    </g>
   </g>
   <g id="patch_4">
    <path d="M 242.968313 463.32 
L 242.968313 103.176 
" style="fill: none; stroke: #000000; stroke-width: 0.8; stroke-linejoin: miter; stroke-linecap: square"/>
   </g>
   <g id="patch_5">
    <path d="M 242.968313 463.32 
L 962.960313 463.32 
" style="fill: none; stroke: #000000; stroke-width: 0.8; stroke-linejoin: miter; stroke-linecap: square"/>
   </g>
   <g id="patch_6">
    <path d="M 296.364848 463.32 
L 354.928791 463.32 
L 354.928791 381.707283 
L 296.364848 381.707283 
z
" clip-path="url(#p30be9b5d20)" style="fill: #4c78a8; stroke: #244a6a; stroke-width: 0.9; stroke-linejoin: miter"/>
   </g>
   <g id="patch_7">
    <path d="M 468.611738 463.32 
L 527.175681 463.32 
L 527.175681 369.456184 
L 468.611738 369.456184 
z
" clip-path="url(#p30be9b5d20)" style="fill: #4c78a8; stroke: #244a6a; stroke-width: 0.9; stroke-linejoin: miter"/>
   </g>
   <g id="patch_8">
    <path d="M 640.858628 463.32 
L 699.422571 463.32 
L 699.422571 329.649975 
L 640.858628 329.649975 
z
" clip-path="url(#p30be9b5d20)" style="fill: url(#hc57943cce4); stroke: #1f1f1f; stroke-width: 1.8; stroke-linejoin: miter"/>
   </g>
   <g id="patch_9">
    <path d="M 813.105518 463.32 
L 871.669461 463.32 
L 871.669461 208.036308 
L 813.105518 208.036308 
z
" clip-path="url(#p30be9b5d20)" style="fill: #4c78a8; stroke: #244a6a; stroke-width: 0.9; stroke-linejoin: miter"/>
   </g>
   <g id="patch_10">
    <path d="M 354.928791 463.32 
L 413.492734 463.32 
L 413.492734 368.548789 
L 354.928791 368.548789 
z
" clip-path="url(#p30be9b5d20)" style="fill: #f28e2b; stroke: #8c4f12; stroke-width: 0.9; stroke-linejoin: miter"/>
   </g>
   <g id="patch_11">
    <path d="M 527.175681 463.32 
L 585.739624 463.32 
L 585.739624 352.423841 
L 527.175681 352.423841 
z
" clip-path="url(#p30be9b5d20)" style="fill: #f28e2b; stroke: #8c4f12; stroke-width: 0.9; stroke-linejoin: miter"/>
   </g>
   <g id="patch_12">
    <path d="M 699.422571 463.32 
L 757.986513 463.32 
L 757.986513 300.137376 
L 699.422571 300.137376 
z
" clip-path="url(#p30be9b5d20)" style="fill: url(#he2b53f2dcc); stroke: #1f1f1f; stroke-width: 1.8; stroke-linejoin: miter"/>
   </g>
   <g id="patch_13">
    <path d="M 871.669461 463.32 
L 930.233403 463.32 
L 930.233403 160.677983 
L 871.669461 160.677983 
z
" clip-path="url(#p30be9b5d20)" style="fill: #f28e2b; stroke: #8c4f12; stroke-width: 0.9; stroke-linejoin: miter"/>
   </g>
   <g id="text_15">
    <text style="font-weight: 600; font-size: 10.5px; font-family: 'DejaVu Sans'; text-anchor: middle" x="325.64682" y="371.968977" transform="rotate(-0 325.64682 371.968977)">0.0972</text>
   </g>
   <g id="text_16">
    <text style="font-weight: 600; font-size: 10.5px; font-family: 'DejaVu Sans'; text-anchor: middle" x="497.89371" y="359.717878" transform="rotate(-0 497.89371 359.717878)">0.1118</text>
   </g>
   <g id="text_17">
    <text style="font-weight: 600; font-size: 10.5px; font-family: 'DejaVu Sans'; text-anchor: middle" x="670.1406" y="319.911669" transform="rotate(-0 670.1406 319.911669)">0.1592</text>
   </g>
   <g id="text_18">
    <text style="font-weight: 600; font-size: 10.5px; font-family: 'DejaVu Sans'; text-anchor: middle" x="842.38749" y="198.298002" transform="rotate(-0 842.38749 198.298002)">0.3041</text>
   </g>
   <g id="text_19">
    <text style="font-weight: 600; font-size: 10.5px; font-family: 'DejaVu Sans'; text-anchor: middle" x="384.210762" y="358.810482" transform="rotate(-0 384.210762 358.810482)">0.1129</text>
   </g>
   <g id="text_20">
    <text style="font-weight: 600; font-size: 10.5px; font-family: 'DejaVu Sans'; text-anchor: middle" x="556.457652" y="342.685535" transform="rotate(-0 556.457652 342.685535)">0.1321</text>
   </g>
   <g id="text_21">
    <text style="font-weight: 600; font-size: 10.5px; font-family: 'DejaVu Sans'; text-anchor: middle" x="728.704542" y="290.39907" transform="rotate(-0 728.704542 290.39907)">0.1944</text>
   </g>
   <g id="text_22">
    <text style="font-weight: 600; font-size: 10.5px; font-family: 'DejaVu Sans'; text-anchor: middle" x="900.951432" y="150.939677" transform="rotate(-0 900.951432 150.939677)">0.3605</text>
   </g>
   <g id="text_23">
    <text style="font-weight: 700; font-size: 10.5px; font-family: 'DejaVu Sans'; text-anchor: end; fill: #3d3d3d" x="955.760393" y="125.478088" transform="rotate(-0 955.760393 125.478088)">меньше — лучше ↓</text>
   </g>
   <g id="text_24">
    <text style="font-weight: 700; font-size: 13px; font-family: 'DejaVu Sans'; text-anchor: middle" x="602.964313" y="89.176" transform="rotate(-0 602.964313 89.176)">MAE и RMSE четырёх вариантов прогноза</text>
   </g>
   <g id="legend_1">
    <g id="patch_14">
     <path d="M 252.868313 121.434281 
L 274.868313 121.434281 
L 274.868313 113.734281 
L 252.868313 113.734281 
z
" style="fill: #4c78a8; stroke: #244a6a; stroke-width: 0.9; stroke-linejoin: miter"/>
    </g>
    <g id="text_25">
     <text style="font-size: 11px; font-family: 'DejaVu Sans'; text-anchor: start" x="283.668313" y="121.434281" transform="rotate(-0 283.668313 121.434281)">MAE</text>
    </g>
    <g id="patch_15">
     <path d="M 329.634563 121.434281 
L 351.634563 121.434281 
L 351.634563 113.734281 
L 329.634563 113.734281 
z
" style="fill: #f28e2b; stroke: #8c4f12; stroke-width: 0.9; stroke-linejoin: miter"/>
    </g>
    <g id="text_26">
     <text style="font-size: 11px; font-family: 'DejaVu Sans'; text-anchor: start" x="360.434563" y="121.434281" transform="rotate(-0 360.434563 121.434281)">RMSE</text>
    </g>
   </g>
  </g>
  <g id="axes_2">
   <g id="patch_16">
    <path d="M 1061.640955 210.498912 
L 1354.709003 210.498912 
Q 1362.79587 210.498912 1362.79587 201.495312 
L 1362.79587 138.109968 
Q 1362.79587 129.106368 1354.709003 129.106368 
L 1061.640955 129.106368 
Q 1053.554089 129.106368 1053.554089 138.109968 
L 1053.554089 201.495312 
Q 1053.554089 210.498912 1061.640955 210.498912 
z
" style="fill: #f1f8ef; stroke: #4e8d45; stroke-width: 1.5; stroke-linejoin: miter"/>
   </g>
   <g id="patch_17">
    <path d="M 1061.640955 300.534912 
L 1354.709003 300.534912 
Q 1362.79587 300.534912 1362.79587 291.531312 
L 1362.79587 228.145968 
Q 1362.79587 219.142368 1354.709003 219.142368 
L 1061.640955 219.142368 
Q 1053.554089 219.142368 1053.554089 228.145968 
L 1053.554089 291.531312 
Q 1053.554089 300.534912 1061.640955 300.534912 
z
" style="fill: #fff8e2; stroke: #8a6d1d; stroke-width: 1.5; stroke-linejoin: miter"/>
   </g>
   <g id="patch_18">
    <path d="M 1061.640955 390.570912 
L 1354.709003 390.570912 
Q 1362.79587 390.570912 1362.79587 381.567312 
L 1362.79587 318.181968 
Q 1362.79587 309.178368 1354.709003 309.178368 
L 1061.640955 309.178368 
Q 1053.554089 309.178368 1053.554089 318.181968 
L 1053.554089 381.567312 
Q 1053.554089 390.570912 1061.640955 390.570912 
z
" style="fill: #fff1f0; stroke: #a84a44; stroke-width: 1.5; stroke-linejoin: miter"/>
   </g>
   <g id="text_27">
    <text style="font-weight: 700; font-size: 12px; font-family: 'DejaVu Sans'; text-anchor: start" x="1072.315619" y="155.255752" transform="rotate(-0 1072.315619 155.255752)">Лучшее абсолютное приближение</text>
   </g>
   <g id="text_28">
    <text style="font-size: 10.3px; font-family: 'DejaVu Sans'" transform="translate(1072.315619 173.493824)">MAE: Mean baseline</text>
    <text style="font-size: 10.3px; font-family: 'DejaVu Sans'" transform="translate(1072.315619 186.201529)">RMSE: Mean baseline</text>
   </g>
   <g id="text_29">
    <text style="font-weight: 700; font-size: 12px; font-family: 'DejaVu Sans'; text-anchor: start" x="1072.315619" y="245.14269" transform="rotate(-0 1072.315619 245.14269)">Положение полной модели</text>
   </g>
   <g id="text_30">
    <text style="font-size: 10.3px; font-family: 'DejaVu Sans'" transform="translate(1072.315619 263.529824)">Ранг по MAE: 3 из 4</text>
    <text style="font-size: 10.3px; font-family: 'DejaVu Sans'" transform="translate(1072.315619 276.237529)">Ранг по RMSE: 3 из 4</text>
   </g>
   <g id="text_31">
    <text style="font-weight: 700; font-size: 12px; font-family: 'DejaVu Sans'; text-anchor: start" x="1072.315619" y="335.17869" transform="rotate(-0 1072.315619 335.17869)">Относительно Mean baseline</text>
   </g>
   <g id="text_32">
    <text style="font-size: 10.3px; font-family: 'DejaVu Sans'" transform="translate(1072.315619 353.565824)">MAE выше на 63.8%</text>
    <text style="font-size: 10.3px; font-family: 'DejaVu Sans'" transform="translate(1072.315619 366.273529)">RMSE выше на 72.2%</text>
   </g>
   <g id="text_33">
    <text style="font-size: 10.5px; font-family: 'DejaVu Sans'" transform="translate(1059.376633 430.060628)">Полная модель лучше theta-only, но уступает mean baseline и prior-only по обеим</text>
    <text style="font-size: 10.5px; font-family: 'DejaVu Sans'" transform="translate(1059.376633 443.256503)">метрикам абсолютной ошибки.</text>
   </g>
   <g id="text_34">
    <text style="font-weight: 700; font-size: 13px; font-family: 'DejaVu Sans'; text-anchor: middle" x="1208.174979" y="89.176" transform="rotate(-0 1208.174979 89.176)">Интерпретация результата</text>
   </g>
  </g>
  <g id="text_35">
   <text style="font-weight: 700; font-size: 17px; font-family: 'DejaVu Sans'; text-anchor: middle" x="781.672313" y="19.2325" transform="rotate(-0 781.672313 19.2325)">Рисунок 6.7 — Сравнение полной модели с базовыми прогнозами</text>
  </g>
  <g id="text_36">
   <text style="font-size: 11.5px; font-family: 'DejaVu Sans'; text-anchor: middle" x="781.672313" y="50.359211" transform="rotate(-0 781.672313 50.359211)">Группированная диаграмма абсолютных ошибок на 150 сценариях</text>
  </g>
  <g id="text_37">
   <text style="font-size: 10.4px; font-family: 'DejaVu Sans'; text-anchor: middle" x="781.672313" y="528.125687" transform="rotate(-0 781.672313 528.125687)">Mean baseline строится out-of-fold; prior-only использует только q_*_feature_component; theta-only использует q_latent; полная модель — неизменный Q_pred главы 5. Преимущество по MAE/RMSE характеризует абсолютную ошибку и не заменяет анализ ранговой согласованности.</text>
  </g>
 </g>
 <defs>
  <clipPath id="p30be9b5d20">
   <rect x="242.968313" y="103.176" width="719.992" height="360.144"/>
  </clipPath>
 </defs>
 <defs>
  <pattern id="hc57943cce4" patternUnits="userSpaceOnUse" x="0" y="0" width="72" height="72">
   <rect x="0" y="0" width="73" height="73" fill="#4c78a8"/>
   <path d="M -36 36 
L 36 -36 
M -32 40 
L 40 -32 
M -28 44 
L 44 -28 
M -24 48 
L 48 -24 
M -20 52 
L 52 -20 
M -16 56 
L 56 -16 
M -12 60 
L 60 -12 
M -8 64 
L 64 -8 
M -4 68 
L 68 -4 
M 0 72 
L 72 0 
M 4 76 
L 76 4 
M 8 80 
L 80 8 
M 12 84 
L 84 12 
M 16 88 
L 88 16 
M 20 92 
L 92 20 
M 24 96 
L 96 24 
M 28 100 
L 100 28 
M 32 104 
L 104 32 
M 36 108 
L 108 36 
" style="fill: #1f1f1f; stroke: #1f1f1f; stroke-width: 1.0; stroke-linecap: butt; stroke-linejoin: miter"/>
  </pattern>
  <pattern id="he2b53f2dcc" patternUnits="userSpaceOnUse" x="0" y="0" width="72" height="72">
   <rect x="0" y="0" width="73" height="73" fill="#f28e2b"/>
   <path d="M -36 36 
L 36 -36 
M -32 40 
L 40 -32 
M -28 44 
L 44 -28 
M -24 48 
L 48 -24 
M -20 52 
L 52 -20 
M -16 56 
L 56 -16 
M -12 60 
L 60 -12 
M -8 64 
L 64 -8 
M -4 68 
L 68 -4 
M 0 72 
L 72 0 
M 4 76 
L 76 4 
M 8 80 
L 80 8 
M 12 84 
L 84 12 
M 16 88 
L 88 16 
M 20 92 
L 92 20 
M 24 96 
L 96 24 
M 28 100 
L 100 28 
M 32 104 
L 104 32 
M 36 108 
L 108 36 
" style="fill: #1f1f1f; stroke: #1f1f1f; stroke-width: 1.0; stroke-linecap: butt; stroke-linejoin: miter"/>
  </pattern>
 </defs>
</svg>
