<?xml version="1.0" encoding="utf-8" standalone="no"?>
<!DOCTYPE svg PUBLIC "-//W3C//DTD SVG 1.1//EN"
  "http://www.w3.org/Graphics/SVG/1.1/DTD/svg11.dtd">
<svg xmlns:xlink="http://www.w3.org/1999/xlink" width="1247.869315pt" height="655.539836pt" viewBox="0 0 1247.869315 655.539836" xmlns="http://www.w3.org/2000/svg" version="1.1">
 <metadata>
  <rdf:RDF xmlns:dc="http://purl.org/dc/elements/1.1/" xmlns:cc="http://creativecommons.org/ns#" xmlns:rdf="http://www.w3.org/1999/02/22-rdf-syntax-ns#">
   <cc:Work>
    <dc:type rdf:resource="http://purl.org/dc/dcmitype/StillImage"/>
    <dc:format>image/svg+xml</dc:format>
    <dc:creator>
     <cc:Agent>
      <dc:title>manual_coding_sim</dc:title>
     </cc:Agent>
    </dc:creator>
   </cc:Work>
  </rdf:RDF>
 </metadata>
 <defs>
  <style type="text/css">*{stroke-linejoin: round; stroke-linecap: butt}</style>
 </defs>
 <g id="figure_1">
  <g id="patch_1">
   <path d="M 0 655.539836 
L 1247.869315 655.539836 
L 1247.869315 0 
L 0 0 
z
" style="fill: #ffffff"/>
  </g>
  <g id="axes_1">
   <g id="patch_2">
    <path d="M 45.253438 550.512 
L 800.951232 550.512 
L 800.951232 110.52 
L 45.253438 110.52 
z
" style="fill: #ffffff"/>
   </g>
   <g id="matplotlib.axis_1">
    <g id="xtick_1">
     <g id="line2d_1">
      <defs>
       <path id="m4183892b9b" d="M 0 0 
L 0 3.5 
" style="stroke: #000000; stroke-width: 0.8"/>
      </defs>
      <g>
       <use xlink:href="#m4183892b9b" x="118.385482" y="550.512" style="stroke: #000000; stroke-width: 0.8"/>
      </g>
     </g>
     <g id="text_1">
      <text style="font-size: 9.2px; font-family: 'DejaVu Sans'" transform="translate(96.301888 565.422742)">Точность</text>
      <text style="font-size: 9.2px; font-family: 'DejaVu Sans'" transform="translate(92.527013 576.465258)">q_acc_pred</text>
     </g>
    </g>
    <g id="xtick_2">
     <g id="line2d_2">
      <g>
       <use xlink:href="#m4183892b9b" x="240.272223" y="550.512" style="stroke: #000000; stroke-width: 0.8"/>
      </g>
     </g>
     <g id="text_2">
      <text style="font-size: 9.2px; font-family: 'DejaVu Sans'" transform="translate(213.464286 565.422742)">Временная</text>
      <text style="font-size: 9.2px; font-family: 'DejaVu Sans'" transform="translate(202.150442 576.464539)">эффективность</text>
      <text style="font-size: 9.2px; font-family: 'DejaVu Sans'" transform="translate(211.898848 587.507055)">q_time_pred</text>
     </g>
    </g>
    <g id="xtick_3">
     <g id="line2d_3">
      <g>
       <use xlink:href="#m4183892b9b" x="362.158964" y="550.512" style="stroke: #000000; stroke-width: 0.8"/>
      </g>
     </g>
     <g id="text_3">
      <text style="font-size: 9.2px; font-family: 'DejaVu Sans'" transform="translate(327.897589 565.422742)">Трудоёмкость</text>
      <text style="font-size: 9.2px; font-family: 'DejaVu Sans'" transform="translate(331.669589 576.465258)">q_effort_pred</text>
     </g>
    </g>
    <g id="xtick_4">
     <g id="line2d_4">
      <g>
       <use xlink:href="#m4183892b9b" x="484.045706" y="550.512" style="stroke: #000000; stroke-width: 0.8"/>
      </g>
     </g>
     <g id="text_4">
      <text style="font-size: 9.2px; font-family: 'DejaVu Sans'" transform="translate(440.001424 565.422742)">Результативность</text>
      <text style="font-size: 9.2px; font-family: 'DejaVu Sans'" transform="translate(461.323143 576.464539)">контроля</text>
      <text style="font-size: 9.2px; font-family: 'DejaVu Sans'" transform="translate(459.048299 587.507055)">q_res_pred</text>
     </g>
    </g>
    <g id="xtick_5">
     <g id="line2d_5">
      <g>
       <use xlink:href="#m4183892b9b" x="605.932447" y="550.512" style="stroke: #000000; stroke-width: 0.8"/>
      </g>
     </g>
     <g id="text_5">
      <text style="font-size: 9.2px; font-family: 'DejaVu Sans'" transform="translate(568.730665 565.422742)">Повторяемость</text>
      <text style="font-size: 9.2px; font-family: 'DejaVu Sans'" transform="translate(580.411072 576.465258)">q_rep_pred</text>
     </g>
    </g>
    <g id="xtick_6">
     <g id="line2d_6">
      <g>
       <use xlink:href="#m4183892b9b" x="727.819188" y="550.512" style="stroke: #000000; stroke-width: 0.8"/>
      </g>
     </g>
     <g id="text_6">
      <text style="font-size: 9.2px; font-family: 'DejaVu Sans'" transform="translate(694.337657 565.422742)">Соответствие</text>
      <text style="font-size: 9.2px; font-family: 'DejaVu Sans'" transform="translate(704.874532 576.464539)">условиям</text>
      <text style="font-size: 9.2px; font-family: 'DejaVu Sans'" transform="translate(705.137594 587.507055)">q_fit_pred</text>
     </g>
    </g>
   </g>
   <g id="matplotlib.axis_2">
    <g id="ytick_1">
     <g id="line2d_7">
      <path d="M 45.253438 550.512 
L 800.951232 550.512 
" clip-path="url(#pbec32163d9)" style="fill: none; stroke: #b0b0b0; stroke-opacity: 0.28; stroke-width: 0.8; stroke-linecap: square"/>
     </g>
     <g id="line2d_8">
      <defs>
       <path id="m16050b89f0" d="M 0 0 
L -3.5 0 
" style="stroke: #000000; stroke-width: 0.8"/>
      </defs>
      <g>
       <use xlink:href="#m16050b89f0" x="45.253438" y="550.512" style="stroke: #000000; stroke-width: 0.8"/>
      </g>
     </g>
     <g id="text_7">
      <text style="font-size: 11px; font-family: 'DejaVu Sans'; text-anchor: end" x="38.253438" y="554.690711" transform="rotate(-0 38.253438 554.690711)">0.0</text>
     </g>
    </g>
    <g id="ytick_2">
     <g id="line2d_9">
      <path d="M 45.253438 469.032 
L 800.951232 469.032 
" clip-path="url(#pbec32163d9)" style="fill: none; stroke: #b0b0b0; stroke-opacity: 0.28; stroke-width: 0.8; stroke-linecap: square"/>
     </g>
     <g id="line2d_10">
      <g>
       <use xlink:href="#m16050b89f0" x="45.253438" y="469.032" style="stroke: #000000; stroke-width: 0.8"/>
      </g>
     </g>
     <g id="text_8">
      <text style="font-size: 11px; font-family: 'DejaVu Sans'; text-anchor: end" x="38.253438" y="473.210711" transform="rotate(-0 38.253438 473.210711)">0.2</text>
     </g>
    </g>
    <g id="ytick_3">
     <g id="line2d_11">
      <path d="M 45.253438 387.552 
L 800.951232 387.552 
" clip-path="url(#pbec32163d9)" style="fill: none; stroke: #b0b0b0; stroke-opacity: 0.28; stroke-width: 0.8; stroke-linecap: square"/>
     </g>
     <g id="line2d_12">
      <g>
       <use xlink:href="#m16050b89f0" x="45.253438" y="387.552" style="stroke: #000000; stroke-width: 0.8"/>
      </g>
     </g>
     <g id="text_9">
      <text style="font-size: 11px; font-family: 'DejaVu Sans'; text-anchor: end" x="38.253438" y="391.730711" transform="rotate(-0 38.253438 391.730711)">0.4</text>
     </g>
    </g>
    <g id="ytick_4">
     <g id="line2d_13">
      <path d="M 45.253438 306.072 
L 800.951232 306.072 
" clip-path="url(#pbec32163d9)" style="fill: none; stroke: #b0b0b0; stroke-opacity: 0.28; stroke-width: 0.8; stroke-linecap: square"/>
     </g>
     <g id="line2d_14">
      <g>
       <use xlink:href="#m16050b89f0" x="45.253438" y="306.072" style="stroke: #000000; stroke-width: 0.8"/>
      </g>
     </g>
     <g id="text_10">
      <text style="font-size: 11px; font-family: 'DejaVu Sans'; text-anchor: end" x="38.253438" y="310.250711" transform="rotate(-0 38.253438 310.250711)">0.6</text>
     </g>
    </g>
    <g id="ytick_5">
     <g id="line2d_15">
      <path d="M 45.253438 224.592 
L 800.951232 224.592 
" clip-path="url(#pbec32163d9)" style="fill: none; stroke: #b0b0b0; stroke-opacity: 0.28; stroke-width: 0.8; stroke-linecap: square"/>
     </g>
     <g id="line2d_16">
      <g>
       <use xlink:href="#m16050b89f0" x="45.253438" y="224.592" style="stroke: #000000; stroke-width: 0.8"/>
      </g>
     </g>
     <g id="text_11">
      <text style="font-size: 11px; font-family: 'DejaVu Sans'; text-anchor: end" x="38.253438" y="228.770711" transform="rotate(-0 38.253438 228.770711)">0.8</text>
     </g>
    </g>
    <g id="ytick_6">
     <g id="line2d_17">
      <path d="M 45.253438 143.112 
L 800.951232 143.112 
" clip-path="url(#pbec32163d9)" style="fill: none; stroke: #b0b0b0; stroke-opacity: 0.28; stroke-width: 0.8; stroke-linecap: square"/>
     </g>
     <g id="line2d_18">
      <g>
       <use xlink:href="#m16050b89f0" x="45.253438" y="143.112" style="stroke: #000000; stroke-width: 0.8"/>
      </g>
     </g>
     <g id="text_12">
      <text style="font-size: 11px; font-family: 'DejaVu Sans'; text-anchor: end" x="38.253438" y="147.290711" transform="rotate(-0 38.253438 147.290711)">1.0</text>
     </g>
    </g>
    <g id="text_13">
     <text style="font-size: 11px; font-family: 'DejaVu Sans'; text-anchor: middle" x="14.117422" y="330.516" transform="rotate(-90 14.117422 330.516)">Априорная прогнозная оценка</text>
    </g>
   </g>
   <g id="FillBetweenPolyCollection_1">
    <defs>
     <path id="m2484a26e9e" d="M 137.88271 -106.631204 
L 98.888254 -106.631204 
L 96.379482 -110.438439 
L 93.860094 -114.245674 
L 91.389172 -118.052909 
L 89.026403 -121.860145 
L 86.828258 -125.66738 
L 84.844175 -129.474615 
L 83.113099 -133.28185 
L 81.660765 -137.089086 
L 80.497998 -140.896321 
L 79.620236 -144.703556 
L 79.008327 -148.510791 
L 78.630503 -152.318027 
L 78.445307 -156.125262 
L 78.405133 -159.932497 
L 78.459995 -163.739732 
L 78.561108 -167.546967 
L 78.66397 -171.354203 
L 78.730657 -175.161438 
L 78.731239 -178.968673 
L 78.644301 -182.775908 
L 78.456714 -186.583144 
L 78.162837 -190.390379 
L 77.763412 -194.197614 
L 77.264399 -198.004849 
L 76.67592 -201.812085 
L 76.011453 -205.61932 
L 75.287296 -209.426555 
L 74.522259 -213.23379 
L 73.737467 -217.041025 
L 72.956147 -220.848261 
L 72.203254 -224.655496 
L 71.504845 -228.462731 
L 70.887151 -232.269966 
L 70.375354 -236.077202 
L 69.992163 -239.884437 
L 69.7563 -243.691672 
L 69.681057 -247.498907 
L 69.773068 -251.306143 
L 70.031457 -255.113378 
L 70.447441 -258.920613 
L 71.004466 -262.727848 
L 71.678877 -266.535083 
L 72.441084 -270.342319 
L 73.257138 -274.149554 
L 74.090612 -277.956789 
L 74.904631 -281.764024 
L 75.663932 -285.57126 
L 76.336777 -289.378495 
L 76.89661 -293.18573 
L 77.323336 -296.992965 
L 77.604126 -300.8002 
L 77.73372 -304.607436 
L 77.714199 -308.414671 
L 77.554255 -312.221906 
L 77.268047 -316.029141 
L 76.873725 -319.836377 
L 76.391775 -323.643612 
L 75.843347 -327.450847 
L 75.248707 -331.258082 
L 74.625992 -335.065318 
L 73.990375 -338.872553 
L 73.353733 -342.679788 
L 72.72483 -346.487023 
L 72.109984 -350.294258 
L 71.514102 -354.101494 
L 70.941933 -357.908729 
L 70.39933 -361.715964 
L 69.89433 -365.523199 
L 69.437858 -369.330435 
L 69.04392 -373.13767 
L 68.729229 -376.944905 
L 68.512269 -380.75214 
L 68.411918 -384.559376 
L 68.445791 -388.366611 
L 68.628532 -392.173846 
L 68.970286 -395.981081 
L 69.475572 -399.788316 
L 70.142704 -403.595552 
L 70.963855 -407.402787 
L 71.925763 -411.210022 
L 73.010982 -415.017257 
L 74.199526 -418.824493 
L 75.470705 -422.631728 
L 76.804929 -426.438963 
L 78.185278 -430.246198 
L 79.598671 -434.053434 
L 81.036522 -437.860669 
L 82.494843 -441.667904 
L 83.973807 -445.475139 
L 85.476859 -449.282374 
L 87.009486 -453.08961 
L 88.577805 -456.896845 
L 90.18711 -460.70408 
L 91.840546 -464.511315 
L 93.538032 -468.318551 
L 95.275526 -472.125786 
L 97.044709 -475.933021 
L 98.833084 -479.740256 
L 100.6245 -483.547492 
L 136.146464 -483.547492 
L 136.146464 -483.547492 
L 137.93788 -479.740256 
L 139.726256 -475.933021 
L 141.495438 -472.125786 
L 143.232932 -468.318551 
L 144.930418 -464.511315 
L 146.583855 -460.70408 
L 148.193159 -456.896845 
L 149.761478 -453.08961 
L 151.294106 -449.282374 
L 152.797157 -445.475139 
L 154.276121 -441.667904 
L 155.734442 -437.860669 
L 157.172294 -434.053434 
L 158.585687 -430.246198 
L 159.966036 -426.438963 
L 161.30026 -422.631728 
L 162.571439 -418.824493 
L 163.759983 -415.017257 
L 164.845202 -411.210022 
L 165.80711 -407.402787 
L 166.628261 -403.595552 
L 167.295392 -399.788316 
L 167.800678 -395.981081 
L 168.142433 -392.173846 
L 168.325173 -388.366611 
L 168.359046 -384.559376 
L 168.258695 -380.75214 
L 168.041735 -376.944905 
L 167.727044 -373.13767 
L 167.333106 -369.330435 
L 166.876634 -365.523199 
L 166.371635 -361.715964 
L 165.829032 -357.908729 
L 165.256862 -354.101494 
L 164.660981 -350.294258 
L 164.046134 -346.487023 
L 163.417231 -342.679788 
L 162.780589 -338.872553 
L 162.144972 -335.065318 
L 161.522257 -331.258082 
L 160.927617 -327.450847 
L 160.379189 -323.643612 
L 159.89724 -319.836377 
L 159.502917 -316.029141 
L 159.216709 -312.221906 
L 159.056766 -308.414671 
L 159.037244 -304.607436 
L 159.166838 -300.8002 
L 159.447628 -296.992965 
L 159.874354 -293.18573 
L 160.434188 -289.378495 
L 161.107032 -285.57126 
L 161.866333 -281.764024 
L 162.680353 -277.956789 
L 163.513826 -274.149554 
L 164.32988 -270.342319 
L 165.092087 -266.535083 
L 165.766498 -262.727848 
L 166.323523 -258.920613 
L 166.739507 -255.113378 
L 166.997896 -251.306143 
L 167.089908 -247.498907 
L 167.014664 -243.691672 
L 166.778801 -239.884437 
L 166.39561 -236.077202 
L 165.883813 -232.269966 
L 165.266119 -228.462731 
L 164.567711 -224.655496 
L 163.814817 -220.848261 
L 163.033497 -217.041025 
L 162.248705 -213.23379 
L 161.483669 -209.426555 
L 160.759512 -205.61932 
L 160.095044 -201.812085 
L 159.506565 -198.004849 
L 159.007552 -194.197614 
L 158.608128 -190.390379 
L 158.31425 -186.583144 
L 158.126663 -182.775908 
L 158.039726 -178.968673 
L 158.040307 -175.161438 
L 158.106994 -171.354203 
L 158.209856 -167.546967 
L 158.31097 -163.739732 
L 158.365831 -159.932497 
L 158.325658 -156.125262 
L 158.140462 -152.318027 
L 157.762638 -148.510791 
L 157.150729 -144.703556 
L 156.272967 -140.896321 
L 155.110199 -137.089086 
L 153.657865 -133.28185 
L 151.92679 -129.474615 
L 149.942706 -125.66738 
L 147.744561 -121.860145 
L 145.381792 -118.052909 
L 142.910871 -114.245674 
L 140.391483 -110.438439 
L 137.88271 -106.631204 
z
" style="stroke: #4c78a8; stroke-opacity: 0.38"/>
    </defs>
    <g clip-path="url(#pbec32163d9)">
     <use xlink:href="#m2484a26e9e" x="0" y="655.539836" style="fill: #4c78a8; fill-opacity: 0.38; stroke: #4c78a8; stroke-opacity: 0.38"/>
    </g>
   </g>
   <g id="FillBetweenPolyCollection_2">
    <defs>
     <path id="m71fe27b7eb" d="M 251.335604 -130.723966 
L 229.208843 -130.723966 
L 227.63249 -134.516553 
L 226.009155 -138.30914 
L 224.368566 -142.101727 
L 222.741138 -145.894314 
L 221.15594 -149.686901 
L 219.63872 -153.479488 
L 218.21024 -157.272075 
L 216.885104 -161.064662 
L 215.671218 -164.857249 
L 214.569921 -168.649836 
L 213.576745 -172.442423 
L 212.682654 -176.23501 
L 211.875582 -180.027597 
L 211.142031 -183.820184 
L 210.46853 -187.612771 
L 209.842785 -191.405358 
L 209.25443 -195.197945 
L 208.695358 -198.990532 
L 208.159682 -202.783119 
L 207.643422 -206.575706 
L 207.144042 -210.368293 
L 206.659952 -214.16088 
L 206.190058 -217.953467 
L 205.733439 -221.746054 
L 205.289144 -225.538641 
L 204.856121 -229.331228 
L 204.433239 -233.123815 
L 204.019367 -236.916402 
L 203.613482 -240.708989 
L 203.214785 -244.501576 
L 202.822797 -248.294163 
L 202.437428 -252.08675 
L 202.059012 -255.879337 
L 201.688268 -259.671924 
L 201.326182 -263.464511 
L 200.973776 -267.257098 
L 200.631756 -271.049685 
L 200.300055 -274.842272 
L 199.977307 -278.634859 
L 199.660337 -282.427446 
L 199.343764 -286.220032 
L 199.01985 -290.012619 
L 198.678693 -293.805206 
L 198.308855 -297.597793 
L 197.898441 -301.39038 
L 197.436568 -305.182967 
L 196.915084 -308.975554 
L 196.330329 -312.768141 
L 195.684656 -316.560728 
L 194.987449 -320.353315 
L 194.255382 -324.145902 
L 193.511769 -327.938489 
L 192.784958 -331.731076 
L 192.105869 -335.523663 
L 191.504937 -339.31625 
L 191.008814 -343.108837 
L 190.637262 -346.901424 
L 190.400684 -350.694011 
L 190.298659 -354.486598 
L 190.319731 -358.279185 
L 190.44252 -362.071772 
L 190.638051 -365.864359 
L 190.873003 -369.656946 
L 191.113467 -373.449533 
L 191.328712 -377.24212 
L 191.494499 -381.034707 
L 191.59552 -384.827294 
L 191.626707 -388.619881 
L 191.59331 -392.412468 
L 191.509823 -396.205055 
L 191.397977 -399.997642 
L 191.284148 -403.790229 
L 191.196566 -407.582816 
L 191.162684 -411.375403 
L 191.207046 -415.16799 
L 191.34985 -418.960577 
L 191.606299 -422.753164 
L 191.98671 -426.545751 
L 192.497257 -430.338338 
L 193.141115 -434.130925 
L 193.919783 -437.923512 
L 194.834312 -441.716099 
L 195.886227 -445.508686 
L 197.077986 -449.301273 
L 198.412876 -453.09386 
L 199.894367 -456.886447 
L 201.524999 -460.679034 
L 203.304973 -464.47162 
L 205.23066 -468.264207 
L 207.293264 -472.056794 
L 209.477875 -475.849381 
L 211.763085 -479.641968 
L 214.121276 -483.434555 
L 216.519602 -487.227142 
L 218.921571 -491.019729 
L 221.289065 -494.812316 
L 223.584581 -498.604903 
L 225.773426 -502.39749 
L 227.825653 -506.190077 
L 252.718794 -506.190077 
L 252.718794 -506.190077 
L 254.77102 -502.39749 
L 256.959866 -498.604903 
L 259.255381 -494.812316 
L 261.622876 -491.019729 
L 264.024844 -487.227142 
L 266.423171 -483.434555 
L 268.781362 -479.641968 
L 271.066571 -475.849381 
L 273.251183 -472.056794 
L 275.313787 -468.264207 
L 277.239473 -464.47162 
L 279.019448 -460.679034 
L 280.65008 -456.886447 
L 282.131571 -453.09386 
L 283.466461 -449.301273 
L 284.658219 -445.508686 
L 285.710135 -441.716099 
L 286.624663 -437.923512 
L 287.403332 -434.130925 
L 288.04719 -430.338338 
L 288.557736 -426.545751 
L 288.938148 -422.753164 
L 289.194596 -418.960577 
L 289.3374 -415.16799 
L 289.381763 -411.375403 
L 289.347881 -407.582816 
L 289.260298 -403.790229 
L 289.14647 -399.997642 
L 289.034623 -396.205055 
L 288.951136 -392.412468 
L 288.91774 -388.619881 
L 288.948927 -384.827294 
L 289.049948 -381.034707 
L 289.215735 -377.24212 
L 289.43098 -373.449533 
L 289.671443 -369.656946 
L 289.906396 -365.864359 
L 290.101927 -362.071772 
L 290.224715 -358.279185 
L 290.245787 -354.486598 
L 290.143763 -350.694011 
L 289.907185 -346.901424 
L 289.535633 -343.108837 
L 289.03951 -339.31625 
L 288.438578 -335.523663 
L 287.759489 -331.731076 
L 287.032677 -327.938489 
L 286.289065 -324.145902 
L 285.556998 -320.353315 
L 284.859791 -316.560728 
L 284.214118 -312.768141 
L 283.629363 -308.975554 
L 283.107879 -305.182967 
L 282.646005 -301.39038 
L 282.235592 -297.597793 
L 281.865754 -293.805206 
L 281.524596 -290.012619 
L 281.200682 -286.220032 
L 280.88411 -282.427446 
L 280.56714 -278.634859 
L 280.244392 -274.842272 
L 279.912691 -271.049685 
L 279.570671 -267.257098 
L 279.218264 -263.464511 
L 278.856179 -259.671924 
L 278.485435 -255.879337 
L 278.107019 -252.08675 
L 277.72165 -248.294163 
L 277.329661 -244.501576 
L 276.930965 -240.708989 
L 276.52508 -236.916402 
L 276.111207 -233.123815 
L 275.688325 -229.331228 
L 275.255303 -225.538641 
L 274.811008 -221.746054 
L 274.354389 -217.953467 
L 273.884495 -214.16088 
L 273.400404 -210.368293 
L 272.901025 -206.575706 
L 272.384764 -202.783119 
L 271.849088 -198.990532 
L 271.290016 -195.197945 
L 270.701662 -191.405358 
L 270.075917 -187.612771 
L 269.402416 -183.820184 
L 268.668865 -180.027597 
L 267.861793 -176.23501 
L 266.967702 -172.442423 
L 265.974525 -168.649836 
L 264.873229 -164.857249 
L 263.659343 -161.064662 
L 262.334207 -157.272075 
L 260.905727 -153.479488 
L 259.388507 -149.686901 
L 257.803308 -145.894314 
L 256.175881 -142.101727 
L 254.535291 -138.30914 
L 252.911957 -134.516553 
L 251.335604 -130.723966 
z
" style="stroke: #59a14f; stroke-opacity: 0.38"/>
    </defs>
    <g clip-path="url(#pbec32163d9)">
     <use xlink:href="#m71fe27b7eb" x="0" y="655.539836" style="fill: #59a14f; fill-opacity: 0.38; stroke: #59a14f; stroke-opacity: 0.38"/>
    </g>
   </g>
   <g id="FillBetweenPolyCollection_3">
    <defs>
     <path id="m5bc2ad8d8b" d="M 372.130914 -119.22208 
L 352.187015 -119.22208 
L 350.975077 -122.872652 
L 349.746489 -126.523223 
L 348.519963 -130.173795 
L 347.314287 -133.824367 
L 346.147472 -137.474939 
L 345.035842 -141.125511 
L 343.993097 -144.776082 
L 343.029385 -148.426654 
L 342.150461 -152.077226 
L 341.357028 -155.727798 
L 340.644329 -159.37837 
L 340.002106 -163.028941 
L 339.414987 -166.679513 
L 338.863336 -170.330085 
L 338.324549 -173.980657 
L 337.774748 -177.631229 
L 337.190739 -181.2818 
L 336.552091 -184.932372 
L 335.843134 -188.582944 
L 335.054699 -192.233516 
L 334.185407 -195.884088 
L 333.242357 -199.534659 
L 332.241105 -203.185231 
L 331.204894 -206.835803 
L 330.163153 -210.486375 
L 329.149355 -214.136947 
L 328.198377 -217.787518 
L 327.343589 -221.43809 
L 326.613903 -225.088662 
L 326.031064 -228.739234 
L 325.607441 -232.389806 
L 325.34456 -236.040377 
L 325.232561 -239.690949 
L 325.250667 -243.341521 
L 325.368665 -246.992093 
L 325.549293 -250.642665 
L 325.751299 -254.293237 
L 325.932886 -257.943808 
L 326.055175 -261.59438 
L 326.085328 -265.244952 
L 325.998994 -268.895524 
L 325.781816 -272.546096 
L 325.429882 -276.196667 
L 324.949072 -279.847239 
L 324.353462 -283.497811 
L 323.662998 -287.148383 
L 322.900776 -290.798955 
L 322.090297 -294.449526 
L 321.253043 -298.100098 
L 320.406687 -301.75067 
L 319.564139 -305.401242 
L 318.733515 -309.051814 
L 317.918997 -312.702385 
L 317.122399 -316.352957 
L 316.345204 -320.003529 
L 315.590716 -323.654101 
L 314.865996 -327.304673 
L 314.183265 -330.955244 
L 313.560501 -334.605816 
L 313.02111 -338.256388 
L 312.592616 -341.90696 
L 312.3045 -345.557532 
L 312.185401 -349.208103 
L 312.259999 -352.858675 
L 312.545974 -356.509247 
L 313.051408 -360.159819 
L 313.773014 -363.810391 
L 314.695447 -367.460962 
L 315.791849 -371.111534 
L 317.02563 -374.762106 
L 318.35333 -378.412678 
L 319.72825 -382.06325 
L 321.104439 -385.713821 
L 322.440575 -389.364393 
L 323.703259 -393.014965 
L 324.86935 -396.665537 
L 325.927073 -400.316109 
L 326.875835 -403.966681 
L 327.724839 -407.617252 
L 328.490796 -411.267824 
L 329.195098 -414.918396 
L 329.86093 -418.568968 
L 330.510709 -422.21954 
L 331.164208 -425.870111 
L 331.83751 -429.520683 
L 332.54284 -433.171255 
L 333.289106 -436.821827 
L 334.0829 -440.472399 
L 334.929632 -444.12297 
L 335.834485 -447.773542 
L 336.802944 -451.424114 
L 337.840755 -455.074686 
L 338.953324 -458.725258 
L 340.144661 -462.375829 
L 341.416094 -466.026401 
L 342.765022 -469.676973 
L 344.183955 -473.327545 
L 345.660067 -476.978117 
L 347.175367 -480.628688 
L 377.142562 -480.628688 
L 377.142562 -480.628688 
L 378.657862 -476.978117 
L 380.133974 -473.327545 
L 381.552907 -469.676973 
L 382.901835 -466.026401 
L 384.173268 -462.375829 
L 385.364605 -458.725258 
L 386.477174 -455.074686 
L 387.514985 -451.424114 
L 388.483444 -447.773542 
L 389.388297 -444.12297 
L 390.235029 -440.472399 
L 391.028823 -436.821827 
L 391.775089 -433.171255 
L 392.480419 -429.520683 
L 393.153721 -425.870111 
L 393.807219 -422.21954 
L 394.456999 -418.568968 
L 395.122831 -414.918396 
L 395.827133 -411.267824 
L 396.593089 -407.617252 
L 397.442094 -403.966681 
L 398.390855 -400.316109 
L 399.448579 -396.665537 
L 400.61467 -393.014965 
L 401.877354 -389.364393 
L 403.21349 -385.713821 
L 404.589679 -382.06325 
L 405.964599 -378.412678 
L 407.292299 -374.762106 
L 408.52608 -371.111534 
L 409.622482 -367.460962 
L 410.544915 -363.810391 
L 411.266521 -360.159819 
L 411.771955 -356.509247 
L 412.05793 -352.858675 
L 412.132528 -349.208103 
L 412.013429 -345.557532 
L 411.725313 -341.90696 
L 411.296819 -338.256388 
L 410.757427 -334.605816 
L 410.134664 -330.955244 
L 409.451933 -327.304673 
L 408.727213 -323.654101 
L 407.972725 -320.003529 
L 407.19553 -316.352957 
L 406.398932 -312.702385 
L 405.584414 -309.051814 
L 404.75379 -305.401242 
L 403.911242 -301.75067 
L 403.064886 -298.100098 
L 402.227632 -294.449526 
L 401.417153 -290.798955 
L 400.654931 -287.148383 
L 399.964467 -283.497811 
L 399.368857 -279.847239 
L 398.888047 -276.196667 
L 398.536112 -272.546096 
L 398.318935 -268.895524 
L 398.2326 -265.244952 
L 398.262754 -261.59438 
L 398.385043 -257.943808 
L 398.566629 -254.293237 
L 398.768635 -250.642665 
L 398.949263 -246.992093 
L 399.067262 -243.341521 
L 399.085368 -239.690949 
L 398.973369 -236.040377 
L 398.710488 -232.389806 
L 398.286864 -228.739234 
L 397.704025 -225.088662 
L 396.97434 -221.43809 
L 396.119551 -217.787518 
L 395.168574 -214.136947 
L 394.154775 -210.486375 
L 393.113035 -206.835803 
L 392.076824 -203.185231 
L 391.075572 -199.534659 
L 390.132522 -195.884088 
L 389.26323 -192.233516 
L 388.474795 -188.582944 
L 387.765837 -184.932372 
L 387.127189 -181.2818 
L 386.543181 -177.631229 
L 385.99338 -173.980657 
L 385.454593 -170.330085 
L 384.902942 -166.679513 
L 384.315823 -163.028941 
L 383.6736 -159.37837 
L 382.9609 -155.727798 
L 382.167467 -152.077226 
L 381.288544 -148.426654 
L 380.324831 -144.776082 
L 379.282087 -141.125511 
L 378.170457 -137.474939 
L 377.003642 -133.824367 
L 375.797965 -130.173795 
L 374.57144 -126.523223 
L 373.342852 -122.872652 
L 372.130914 -119.22208 
z
" style="stroke: #f28e2b; stroke-opacity: 0.38"/>
    </defs>
    <g clip-path="url(#pbec32163d9)">
     <use xlink:href="#m5bc2ad8d8b" x="0" y="655.539836" style="fill: #f28e2b; fill-opacity: 0.38; stroke: #f28e2b; stroke-opacity: 0.38"/>
    </g>
   </g>
   <g id="FillBetweenPolyCollection_4">
    <defs>
     <path id="m0502f76bab" d="M 498.937473 -132.907226 
L 469.153938 -132.907226 
L 467.112586 -136.579136 
L 464.993738 -140.251045 
L 462.830716 -143.922955 
L 460.662851 -147.594865 
L 458.53468 -151.266775 
L 456.494385 -154.938685 
L 454.591441 -158.610595 
L 452.873578 -162.282504 
L 451.383325 -165.954414 
L 450.15452 -169.626324 
L 449.209224 -173.298234 
L 448.555471 -176.970144 
L 448.186137 -180.642054 
L 448.079075 -184.313963 
L 448.19844 -187.985873 
L 448.496978 -191.657783 
L 448.918945 -195.329693 
L 449.403303 -199.001603 
L 449.886892 -202.673513 
L 450.307428 -206.345422 
L 450.606262 -210.017332 
L 450.730975 -213.689242 
L 450.637892 -217.361152 
L 450.294568 -221.033062 
L 449.682176 -224.704972 
L 448.797626 -228.376881 
L 447.655065 -232.048791 
L 446.286397 -235.720701 
L 444.740446 -239.392611 
L 443.080535 -243.064521 
L 441.380445 -246.736431 
L 439.718992 -250.40834 
L 438.173718 -254.08025 
L 436.814379 -257.75216 
L 435.69705 -261.42407 
L 434.859609 -265.09598 
L 434.319215 -268.76789 
L 434.072142 -272.439799 
L 434.095939 -276.111709 
L 434.353614 -279.783619 
L 434.799163 -283.455529 
L 435.383645 -287.127439 
L 436.060916 -290.799349 
L 436.792257 -294.471258 
L 437.549337 -298.143168 
L 438.315268 -301.815078 
L 439.083839 -305.486988 
L 439.857263 -309.158898 
L 440.643017 -312.830808 
L 441.450391 -316.502717 
L 442.287353 -320.174627 
L 443.158205 -323.846537 
L 444.062297 -327.518447 
L 444.993878 -331.190357 
L 445.942955 -334.862267 
L 446.896899 -338.534176 
L 447.842453 -342.206086 
L 448.767775 -345.877996 
L 449.664176 -349.549906 
L 450.527316 -353.221816 
L 451.357682 -356.893726 
L 452.160316 -360.565635 
L 452.943845 -364.237545 
L 453.71898 -367.909455 
L 454.496705 -371.581365 
L 455.286426 -375.253275 
L 456.094364 -378.925185 
L 456.92242 -382.597095 
L 457.767684 -386.269004 
L 458.622672 -389.940914 
L 459.476236 -393.612824 
L 460.315024 -397.284734 
L 461.125259 -400.956644 
L 461.894579 -404.628554 
L 462.613658 -408.300463 
L 463.27739 -411.972373 
L 463.885482 -415.644283 
L 464.442398 -419.316193 
L 464.956701 -422.988103 
L 465.439938 -426.660013 
L 465.905258 -430.331922 
L 466.365996 -434.003832 
L 466.834426 -437.675742 
L 467.320853 -441.347652 
L 467.833116 -445.019562 
L 468.376514 -448.691472 
L 468.954068 -452.363381 
L 469.56699 -456.035291 
L 470.215205 -459.707201 
L 470.897778 -463.379111 
L 471.613146 -467.051021 
L 472.359132 -470.722931 
L 473.13275 -474.39484 
L 473.929908 -478.06675 
L 474.745096 -481.73866 
L 475.5712 -485.41057 
L 476.399505 -489.08248 
L 477.219948 -492.75439 
L 478.021596 -496.426299 
L 490.069815 -496.426299 
L 490.069815 -496.426299 
L 490.871463 -492.75439 
L 491.691906 -489.08248 
L 492.520211 -485.41057 
L 493.346315 -481.73866 
L 494.161503 -478.06675 
L 494.958661 -474.39484 
L 495.732279 -470.722931 
L 496.478265 -467.051021 
L 497.193633 -463.379111 
L 497.876206 -459.707201 
L 498.524421 -456.035291 
L 499.137343 -452.363381 
L 499.714897 -448.691472 
L 500.258295 -445.019562 
L 500.770558 -441.347652 
L 501.256985 -437.675742 
L 501.725415 -434.003832 
L 502.186153 -430.331922 
L 502.651473 -426.660013 
L 503.13471 -422.988103 
L 503.649013 -419.316193 
L 504.205929 -415.644283 
L 504.814021 -411.972373 
L 505.477753 -408.300463 
L 506.196832 -404.628554 
L 506.966152 -400.956644 
L 507.776387 -397.284734 
L 508.615175 -393.612824 
L 509.468739 -389.940914 
L 510.323727 -386.269004 
L 511.168991 -382.597095 
L 511.997047 -378.925185 
L 512.804985 -375.253275 
L 513.594707 -371.581365 
L 514.372431 -367.909455 
L 515.147567 -364.237545 
L 515.931096 -360.565635 
L 516.733729 -356.893726 
L 517.564095 -353.221816 
L 518.427235 -349.549906 
L 519.323637 -345.877996 
L 520.248958 -342.206086 
L 521.194513 -338.534176 
L 522.148456 -334.862267 
L 523.097533 -331.190357 
L 524.029114 -327.518447 
L 524.933206 -323.846537 
L 525.804058 -320.174627 
L 526.64102 -316.502717 
L 527.448394 -312.830808 
L 528.234148 -309.158898 
L 529.007572 -305.486988 
L 529.776143 -301.815078 
L 530.542074 -298.143168 
L 531.299154 -294.471258 
L 532.030495 -290.799349 
L 532.707766 -287.127439 
L 533.292248 -283.455529 
L 533.737797 -279.783619 
L 533.995472 -276.111709 
L 534.019269 -272.439799 
L 533.772196 -268.76789 
L 533.231803 -265.09598 
L 532.394361 -261.42407 
L 531.277032 -257.75216 
L 529.917693 -254.08025 
L 528.372419 -250.40834 
L 526.710966 -246.736431 
L 525.010876 -243.064521 
L 523.350965 -239.392611 
L 521.805014 -235.720701 
L 520.436346 -232.048791 
L 519.293785 -228.376881 
L 518.409235 -224.704972 
L 517.796843 -221.033062 
L 517.453519 -217.361152 
L 517.360436 -213.689242 
L 517.485149 -210.017332 
L 517.783983 -206.345422 
L 518.204519 -202.673513 
L 518.688108 -199.001603 
L 519.172466 -195.329693 
L 519.594434 -191.657783 
L 519.892971 -187.985873 
L 520.012336 -184.313963 
L 519.905274 -180.642054 
L 519.53594 -176.970144 
L 518.882187 -173.298234 
L 517.936891 -169.626324 
L 516.708086 -165.954414 
L 515.217833 -162.282504 
L 513.49997 -158.610595 
L 511.597026 -154.938685 
L 509.556731 -151.266775 
L 507.42856 -147.594865 
L 505.260695 -143.922955 
L 503.097673 -140.251045 
L 500.978825 -136.579136 
L 498.937473 -132.907226 
z
" style="stroke: #e15759; stroke-opacity: 0.38"/>
    </defs>
    <g clip-path="url(#pbec32163d9)">
     <use xlink:href="#m0502f76bab" x="0" y="655.539836" style="fill: #e15759; fill-opacity: 0.38; stroke: #e15759; stroke-opacity: 0.38"/>
    </g>
   </g>
   <g id="FillBetweenPolyCollection_5">
    <defs>
     <path id="m53cb9dd3db" d="M 629.958545 -145.475728 
L 581.906349 -145.475728 
L 579.821973 -149.14615 
L 577.742844 -152.816572 
L 575.682283 -156.486994 
L 573.652669 -160.157416 
L 571.666042 -163.827838 
L 569.734791 -167.49826 
L 567.872261 -171.168682 
L 566.093159 -174.839104 
L 564.413602 -178.509526 
L 562.850754 -182.179949 
L 561.422014 -185.850371 
L 560.14384 -189.520793 
L 559.030312 -193.191215 
L 558.091632 -196.861637 
L 557.332749 -200.532059 
L 556.752344 -204.202481 
L 556.34232 -207.872903 
L 556.087916 -211.543325 
L 555.968489 -215.213747 
L 555.958883 -218.884169 
L 556.031276 -222.554591 
L 556.157282 -226.225014 
L 556.310089 -229.895436 
L 556.466383 -233.565858 
L 556.607853 -237.23628 
L 556.722113 -240.906702 
L 556.802959 -244.577124 
L 556.849965 -248.247546 
L 556.867491 -251.917968 
L 556.863255 -255.58839 
L 556.846675 -259.258812 
L 556.827192 -262.929234 
L 556.812797 -266.599657 
L 556.808952 -270.270079 
L 556.818019 -273.940501 
L 556.839277 -277.610923 
L 556.869493 -281.281345 
L 556.903969 -284.951767 
L 556.937886 -288.622189 
L 556.967777 -292.292611 
L 556.992875 -295.963033 
L 557.016165 -299.633455 
L 557.044942 -303.303877 
L 557.090789 -306.974299 
L 557.168933 -310.644722 
L 557.297041 -314.315144 
L 557.493576 -317.985566 
L 557.775908 -321.655988 
L 558.15841 -325.32641 
L 558.650753 -328.996832 
L 559.256636 -332.667254 
L 559.97307 -336.337676 
L 560.790334 -340.008098 
L 561.692578 -343.67852 
L 562.658999 -347.348942 
L 563.665443 -351.019364 
L 564.686221 -354.689787 
L 565.695931 -358.360209 
L 566.671071 -362.030631 
L 567.59126 -365.701053 
L 568.439987 -369.371475 
L 569.204812 -373.041897 
L 569.877099 -376.712319 
L 570.45136 -380.382741 
L 570.924387 -384.053163 
L 571.294355 -387.723585 
L 571.560062 -391.394007 
L 571.720468 -395.06443 
L 571.774611 -398.734852 
L 571.721927 -402.405274 
L 571.562925 -406.075696 
L 571.30008 -409.746118 
L 570.93881 -413.41654 
L 570.488323 -417.086962 
L 569.96218 -420.757384 
L 569.378429 -424.427806 
L 568.759244 -428.098228 
L 568.130068 -431.76865 
L 567.518346 -435.439072 
L 566.951997 -439.109495 
L 566.457812 -442.779917 
L 566.059983 -446.450339 
L 565.778958 -450.120761 
L 565.630737 -453.791183 
L 565.626689 -457.461605 
L 565.773866 -461.132027 
L 566.075711 -464.802449 
L 566.53301 -468.472871 
L 567.144902 -472.143293 
L 567.909741 -475.813715 
L 568.825673 -479.484138 
L 569.890808 -483.15456 
L 571.10298 -486.824982 
L 572.459128 -490.495404 
L 573.954432 -494.165826 
L 575.581358 -497.836248 
L 577.328787 -501.50667 
L 579.181417 -505.177092 
L 581.119537 -508.847514 
L 630.745357 -508.847514 
L 630.745357 -508.847514 
L 632.683476 -505.177092 
L 634.536106 -501.50667 
L 636.283536 -497.836248 
L 637.910461 -494.165826 
L 639.405765 -490.495404 
L 640.761913 -486.824982 
L 641.974085 -483.15456 
L 643.03922 -479.484138 
L 643.955152 -475.813715 
L 644.719992 -472.143293 
L 645.331883 -468.472871 
L 645.789183 -464.802449 
L 646.091027 -461.132027 
L 646.238204 -457.461605 
L 646.234156 -453.791183 
L 646.085935 -450.120761 
L 645.80491 -446.450339 
L 645.407082 -442.779917 
L 644.912896 -439.109495 
L 644.346547 -435.439072 
L 643.734825 -431.76865 
L 643.105649 -428.098228 
L 642.486464 -424.427806 
L 641.902713 -420.757384 
L 641.37657 -417.086962 
L 640.926084 -413.41654 
L 640.564814 -409.746118 
L 640.301969 -406.075696 
L 640.142966 -402.405274 
L 640.090283 -398.734852 
L 640.144425 -395.06443 
L 640.304831 -391.394007 
L 640.570538 -387.723585 
L 640.940506 -384.053163 
L 641.413533 -380.382741 
L 641.987794 -376.712319 
L 642.660081 -373.041897 
L 643.424907 -369.371475 
L 644.273633 -365.701053 
L 645.193823 -362.030631 
L 646.168962 -358.360209 
L 647.178673 -354.689787 
L 648.199451 -351.019364 
L 649.205894 -347.348942 
L 650.172316 -343.67852 
L 651.074559 -340.008098 
L 651.891824 -336.337676 
L 652.608258 -332.667254 
L 653.21414 -328.996832 
L 653.706484 -325.32641 
L 654.088985 -321.655988 
L 654.371318 -317.985566 
L 654.567852 -314.315144 
L 654.69596 -310.644722 
L 654.774105 -306.974299 
L 654.819951 -303.303877 
L 654.848729 -299.633455 
L 654.872018 -295.963033 
L 654.897117 -292.292611 
L 654.927007 -288.622189 
L 654.960925 -284.951767 
L 654.9954 -281.281345 
L 655.025617 -277.610923 
L 655.046874 -273.940501 
L 655.055941 -270.270079 
L 655.052096 -266.599657 
L 655.037702 -262.929234 
L 655.018218 -259.258812 
L 655.001638 -255.58839 
L 654.997402 -251.917968 
L 655.014928 -248.247546 
L 655.061934 -244.577124 
L 655.142781 -240.906702 
L 655.25704 -237.23628 
L 655.39851 -233.565858 
L 655.554805 -229.895436 
L 655.707612 -226.225014 
L 655.833618 -222.554591 
L 655.906011 -218.884169 
L 655.896405 -215.213747 
L 655.776977 -211.543325 
L 655.522573 -207.872903 
L 655.112549 -204.202481 
L 654.532145 -200.532059 
L 653.773262 -196.861637 
L 652.834581 -193.191215 
L 651.721054 -189.520793 
L 650.44288 -185.850371 
L 649.01414 -182.179949 
L 647.451291 -178.509526 
L 645.771734 -174.839104 
L 643.992632 -171.168682 
L 642.130103 -167.49826 
L 640.198851 -163.827838 
L 638.212225 -160.157416 
L 636.18261 -156.486994 
L 634.122049 -152.816572 
L 632.04292 -149.14615 
L 629.958545 -145.475728 
z
" style="stroke: #b279a2; stroke-opacity: 0.38"/>
    </defs>
    <g clip-path="url(#pbec32163d9)">
     <use xlink:href="#m53cb9dd3db" x="0" y="655.539836" style="fill: #b279a2; fill-opacity: 0.38; stroke: #b279a2; stroke-opacity: 0.38"/>
    </g>
   </g>
   <g id="FillBetweenPolyCollection_6">
    <defs>
     <path id="m2eb57a89b1" d="M 740.887682 -138.554274 
L 714.750694 -138.554274 
L 713.10243 -141.963948 
L 711.380723 -145.373622 
L 709.600521 -148.783296 
L 707.778917 -152.19297 
L 705.934954 -155.602644 
L 704.089248 -159.012319 
L 702.263405 -162.421993 
L 700.479179 -165.831667 
L 698.75742 -169.241341 
L 697.116861 -172.651015 
L 695.572853 -176.06069 
L 694.136194 -179.470364 
L 692.812206 -182.880038 
L 691.600213 -186.289712 
L 690.493534 -189.699386 
L 689.480057 -193.10906 
L 688.543371 -196.518735 
L 687.664391 -199.928409 
L 686.823308 -203.338083 
L 686.001668 -206.747757 
L 685.184365 -210.157431 
L 684.361328 -213.567106 
L 683.528722 -216.97678 
L 682.689557 -220.386454 
L 681.853659 -223.796128 
L 681.037019 -227.205802 
L 680.260643 -230.615476 
L 679.549018 -234.025151 
L 678.928381 -237.434825 
L 678.42494 -240.844499 
L 678.063192 -244.254173 
L 677.864446 -247.663847 
L 677.845624 -251.073521 
L 678.01834 -254.483196 
L 678.388288 -257.89287 
L 678.954884 -261.302544 
L 679.711167 -264.712218 
L 680.643904 -268.121892 
L 681.733924 -271.531567 
L 682.956642 -274.941241 
L 684.282801 -278.350915 
L 685.679419 -281.760589 
L 687.110927 -285.170263 
L 688.540468 -288.579937 
L 689.931303 -291.989612 
L 691.248263 -295.399286 
L 692.459158 -298.80896 
L 693.536061 -302.218634 
L 694.456407 -305.628308 
L 695.203817 -309.037983 
L 695.768643 -312.447657 
L 696.148183 -315.857331 
L 696.346581 -319.267005 
L 696.374428 -322.676679 
L 696.248087 -326.086353 
L 695.988771 -329.496028 
L 695.621439 -332.905702 
L 695.173527 -336.315376 
L 694.673602 -339.72505 
L 694.149987 -343.134724 
L 693.629437 -346.544398 
L 693.135947 -349.954073 
L 692.689767 -353.363747 
L 692.306685 -356.773421 
L 691.997638 -360.183095 
L 691.768652 -363.592769 
L 691.621115 -367.002444 
L 691.552324 -370.412118 
L 691.556256 -373.821792 
L 691.624455 -377.231466 
L 691.74697 -380.64114 
L 691.913253 -384.050814 
L 692.112968 -387.460489 
L 692.33666 -390.870163 
L 692.576301 -394.279837 
L 692.825696 -397.689511 
L 693.080791 -401.099185 
L 693.339888 -404.50886 
L 693.603803 -407.918534 
L 693.875949 -411.328208 
L 694.162355 -414.737882 
L 694.47158 -418.147556 
L 694.814498 -421.55723 
L 695.203939 -424.966905 
L 695.654149 -428.376579 
L 696.180087 -431.786253 
L 696.796568 -435.195927 
L 697.517301 -438.605601 
L 698.353877 -442.015275 
L 699.314785 -445.42495 
L 700.404533 -448.834624 
L 701.622961 -452.244298 
L 702.964802 -455.653972 
L 704.41955 -459.063646 
L 705.971664 -462.473321 
L 707.6011 -465.882995 
L 709.284153 -469.292669 
L 710.994546 -472.702343 
L 712.704694 -476.112017 
L 742.933681 -476.112017 
L 742.933681 -476.112017 
L 744.643829 -472.702343 
L 746.354223 -469.292669 
L 748.037276 -465.882995 
L 749.666712 -462.473321 
L 751.218826 -459.063646 
L 752.673574 -455.653972 
L 754.015415 -452.244298 
L 755.233843 -448.834624 
L 756.323591 -445.42495 
L 757.284498 -442.015275 
L 758.121074 -438.605601 
L 758.841807 -435.195927 
L 759.458289 -431.786253 
L 759.984226 -428.376579 
L 760.434436 -424.966905 
L 760.823877 -421.55723 
L 761.166796 -418.147556 
L 761.476021 -414.737882 
L 761.762427 -411.328208 
L 762.034573 -407.918534 
L 762.298487 -404.50886 
L 762.557584 -401.099185 
L 762.812679 -397.689511 
L 763.062075 -394.279837 
L 763.301716 -390.870163 
L 763.525408 -387.460489 
L 763.725122 -384.050814 
L 763.891406 -380.64114 
L 764.013921 -377.231466 
L 764.08212 -373.821792 
L 764.086051 -370.412118 
L 764.017261 -367.002444 
L 763.869723 -363.592769 
L 763.640737 -360.183095 
L 763.33169 -356.773421 
L 762.948609 -353.363747 
L 762.502428 -349.954073 
L 762.008939 -346.544398 
L 761.488389 -343.134724 
L 760.964774 -339.72505 
L 760.464849 -336.315376 
L 760.016937 -332.905702 
L 759.649604 -329.496028 
L 759.390289 -326.086353 
L 759.263947 -322.676679 
L 759.291795 -319.267005 
L 759.490193 -315.857331 
L 759.869733 -312.447657 
L 760.434559 -309.037983 
L 761.181969 -305.628308 
L 762.102314 -302.218634 
L 763.179218 -298.80896 
L 764.390113 -295.399286 
L 765.707073 -291.989612 
L 767.097908 -288.579937 
L 768.527449 -285.170263 
L 769.958957 -281.760589 
L 771.355575 -278.350915 
L 772.681734 -274.941241 
L 773.904451 -271.531567 
L 774.994471 -268.121892 
L 775.927209 -264.712218 
L 776.683491 -261.302544 
L 777.250088 -257.89287 
L 777.620035 -254.483196 
L 777.792752 -251.073521 
L 777.773929 -247.663847 
L 777.575184 -244.254173 
L 777.213435 -240.844499 
L 776.709994 -237.434825 
L 776.089358 -234.025151 
L 775.377733 -230.615476 
L 774.601356 -227.205802 
L 773.784716 -223.796128 
L 772.948818 -220.386454 
L 772.109654 -216.97678 
L 771.277048 -213.567106 
L 770.45401 -210.157431 
L 769.636708 -206.747757 
L 768.815067 -203.338083 
L 767.973984 -199.928409 
L 767.095005 -196.518735 
L 766.158319 -193.10906 
L 765.144841 -189.699386 
L 764.038163 -186.289712 
L 762.826169 -182.880038 
L 761.502181 -179.470364 
L 760.065522 -176.06069 
L 758.521515 -172.651015 
L 756.880956 -169.241341 
L 755.159197 -165.831667 
L 753.37497 -162.421993 
L 751.549127 -159.012319 
L 749.703422 -155.602644 
L 747.859458 -152.19297 
L 746.037854 -148.783296 
L 744.257652 -145.373622 
L 742.535946 -141.963948 
L 740.887682 -138.554274 
z
" style="stroke: #76b7b2; stroke-opacity: 0.38"/>
    </defs>
    <g clip-path="url(#pbec32163d9)">
     <use xlink:href="#m2eb57a89b1" x="0" y="655.539836" style="fill: #76b7b2; fill-opacity: 0.38; stroke: #76b7b2; stroke-opacity: 0.38"/>
    </g>
   </g>
   <g id="patch_3">
    <path d="M 107.415675 449.38021 
L 129.355289 449.38021 
L 129.355289 266.878679 
L 107.415675 266.878679 
L 107.415675 449.38021 
z
" clip-path="url(#pbec32163d9)" style="fill: #ffffff; opacity: 0.92; stroke: #000000; stroke-width: 1.1; stroke-linejoin: miter"/>
   </g>
   <g id="line2d_19">
    <path d="M 118.385482 449.38021 
L 118.385482 548.908632 
" clip-path="url(#pbec32163d9)" style="fill: none; stroke: #37474f; stroke-width: 1.2; stroke-linecap: square"/>
   </g>
   <g id="line2d_20">
    <path d="M 118.385482 266.878679 
L 118.385482 171.992344 
" clip-path="url(#pbec32163d9)" style="fill: none; stroke: #37474f; stroke-width: 1.2; stroke-linecap: square"/>
   </g>
   <g id="line2d_21">
    <path d="M 112.900579 548.908632 
L 123.870386 548.908632 
" clip-path="url(#pbec32163d9)" style="fill: none; stroke: #37474f; stroke-width: 1.2; stroke-linecap: square"/>
   </g>
   <g id="line2d_22">
    <path d="M 112.900579 171.992344 
L 123.870386 171.992344 
" clip-path="url(#pbec32163d9)" style="fill: none; stroke: #37474f; stroke-width: 1.2; stroke-linecap: square"/>
   </g>
   <g id="line2d_23"/>
   <g id="patch_4">
    <path d="M 229.302417 403.131462 
L 251.24203 403.131462 
L 251.24203 246.451826 
L 229.302417 246.451826 
L 229.302417 403.131462 
z
" clip-path="url(#pbec32163d9)" style="fill: #ffffff; opacity: 0.92; stroke: #000000; stroke-width: 1.1; stroke-linejoin: miter"/>
   </g>
   <g id="line2d_24">
    <path d="M 240.272223 403.131462 
L 240.272223 524.81587 
" clip-path="url(#pbec32163d9)" style="fill: none; stroke: #37474f; stroke-width: 1.2; stroke-linecap: square"/>
   </g>
   <g id="line2d_25">
    <path d="M 240.272223 246.451826 
L 240.272223 149.349759 
" clip-path="url(#pbec32163d9)" style="fill: none; stroke: #37474f; stroke-width: 1.2; stroke-linecap: square"/>
   </g>
   <g id="line2d_26">
    <path d="M 234.78732 524.81587 
L 245.757127 524.81587 
" clip-path="url(#pbec32163d9)" style="fill: none; stroke: #37474f; stroke-width: 1.2; stroke-linecap: square"/>
   </g>
   <g id="line2d_27">
    <path d="M 234.78732 149.349759 
L 245.757127 149.349759 
" clip-path="url(#pbec32163d9)" style="fill: none; stroke: #37474f; stroke-width: 1.2; stroke-linecap: square"/>
   </g>
   <g id="line2d_28"/>
   <g id="patch_5">
    <path d="M 351.189158 418.44935 
L 373.128771 418.44935 
L 373.128771 279.955777 
L 351.189158 279.955777 
L 351.189158 418.44935 
z
" clip-path="url(#pbec32163d9)" style="fill: #ffffff; opacity: 0.92; stroke: #000000; stroke-width: 1.1; stroke-linejoin: miter"/>
   </g>
   <g id="line2d_29">
    <path d="M 362.158964 418.44935 
L 362.158964 536.317756 
" clip-path="url(#pbec32163d9)" style="fill: none; stroke: #37474f; stroke-width: 1.2; stroke-linecap: square"/>
   </g>
   <g id="line2d_30">
    <path d="M 362.158964 279.955777 
L 362.158964 174.911148 
" clip-path="url(#pbec32163d9)" style="fill: none; stroke: #37474f; stroke-width: 1.2; stroke-linecap: square"/>
   </g>
   <g id="line2d_31">
    <path d="M 356.674061 536.317756 
L 367.643868 536.317756 
" clip-path="url(#pbec32163d9)" style="fill: none; stroke: #37474f; stroke-width: 1.2; stroke-linecap: square"/>
   </g>
   <g id="line2d_32">
    <path d="M 356.674061 174.911148 
L 367.643868 174.911148 
" clip-path="url(#pbec32163d9)" style="fill: none; stroke: #37474f; stroke-width: 1.2; stroke-linecap: square"/>
   </g>
   <g id="line2d_33"/>
   <g id="patch_6">
    <path d="M 473.075899 439.464392 
L 495.015512 439.464392 
L 495.015512 307.179946 
L 473.075899 307.179946 
L 473.075899 439.464392 
z
" clip-path="url(#pbec32163d9)" style="fill: #ffffff; opacity: 0.92; stroke: #000000; stroke-width: 1.1; stroke-linejoin: miter"/>
   </g>
   <g id="line2d_34">
    <path d="M 484.045706 439.464392 
L 484.045706 522.63261 
" clip-path="url(#pbec32163d9)" style="fill: none; stroke: #37474f; stroke-width: 1.2; stroke-linecap: square"/>
   </g>
   <g id="line2d_35">
    <path d="M 484.045706 307.179946 
L 484.045706 159.113537 
" clip-path="url(#pbec32163d9)" style="fill: none; stroke: #37474f; stroke-width: 1.2; stroke-linecap: square"/>
   </g>
   <g id="line2d_36">
    <path d="M 478.560802 522.63261 
L 489.530609 522.63261 
" clip-path="url(#pbec32163d9)" style="fill: none; stroke: #37474f; stroke-width: 1.2; stroke-linecap: square"/>
   </g>
   <g id="line2d_37">
    <path d="M 478.560802 159.113537 
L 489.530609 159.113537 
" clip-path="url(#pbec32163d9)" style="fill: none; stroke: #37474f; stroke-width: 1.2; stroke-linecap: square"/>
   </g>
   <g id="line2d_38"/>
   <g id="patch_7">
    <path d="M 594.96264 426.418764 
L 616.902253 426.418764 
L 616.902253 246.917222 
L 594.96264 246.917222 
L 594.96264 426.418764 
z
" clip-path="url(#pbec32163d9)" style="fill: #ffffff; opacity: 0.92; stroke: #000000; stroke-width: 1.1; stroke-linejoin: miter"/>
   </g>
   <g id="line2d_39">
    <path d="M 605.932447 426.418764 
L 605.932447 510.064108 
" clip-path="url(#pbec32163d9)" style="fill: none; stroke: #37474f; stroke-width: 1.2; stroke-linecap: square"/>
   </g>
   <g id="line2d_40">
    <path d="M 605.932447 246.917222 
L 605.932447 146.692322 
" clip-path="url(#pbec32163d9)" style="fill: none; stroke: #37474f; stroke-width: 1.2; stroke-linecap: square"/>
   </g>
   <g id="line2d_41">
    <path d="M 600.447543 510.064108 
L 611.41735 510.064108 
" clip-path="url(#pbec32163d9)" style="fill: none; stroke: #37474f; stroke-width: 1.2; stroke-linecap: square"/>
   </g>
   <g id="line2d_42">
    <path d="M 600.447543 146.692322 
L 611.41735 146.692322 
" clip-path="url(#pbec32163d9)" style="fill: none; stroke: #37474f; stroke-width: 1.2; stroke-linecap: square"/>
   </g>
   <g id="line2d_43"/>
   <g id="patch_8">
    <path d="M 716.849381 425.092146 
L 738.788994 425.092146 
L 738.788994 274.705002 
L 716.849381 274.705002 
L 716.849381 425.092146 
z
" clip-path="url(#pbec32163d9)" style="fill: #ffffff; opacity: 0.92; stroke: #000000; stroke-width: 1.1; stroke-linejoin: miter"/>
   </g>
   <g id="line2d_44">
    <path d="M 727.819188 425.092146 
L 727.819188 516.985562 
" clip-path="url(#pbec32163d9)" style="fill: none; stroke: #37474f; stroke-width: 1.2; stroke-linecap: square"/>
   </g>
   <g id="line2d_45">
    <path d="M 727.819188 274.705002 
L 727.819188 179.427819 
" clip-path="url(#pbec32163d9)" style="fill: none; stroke: #37474f; stroke-width: 1.2; stroke-linecap: square"/>
   </g>
   <g id="line2d_46">
    <path d="M 722.334284 516.985562 
L 733.304091 516.985562 
" clip-path="url(#pbec32163d9)" style="fill: none; stroke: #37474f; stroke-width: 1.2; stroke-linecap: square"/>
   </g>
   <g id="line2d_47">
    <path d="M 722.334284 179.427819 
L 733.304091 179.427819 
" clip-path="url(#pbec32163d9)" style="fill: none; stroke: #37474f; stroke-width: 1.2; stroke-linecap: square"/>
   </g>
   <g id="line2d_48"/>
   <g id="line2d_49">
    <path d="M 107.415675 359.940906 
L 129.355289 359.940906 
" clip-path="url(#pbec32163d9)" style="fill: none; stroke: #b23a48; stroke-width: 2.2"/>
   </g>
   <g id="line2d_50">
    <path d="M 229.302417 312.439547 
L 251.24203 312.439547 
" clip-path="url(#pbec32163d9)" style="fill: none; stroke: #b23a48; stroke-width: 2.2"/>
   </g>
   <g id="line2d_51">
    <path d="M 351.189158 337.420395 
L 373.128771 337.420395 
" clip-path="url(#pbec32163d9)" style="fill: none; stroke: #b23a48; stroke-width: 2.2"/>
   </g>
   <g id="line2d_52">
    <path d="M 473.075899 376.609835 
L 495.015512 376.609835 
" clip-path="url(#pbec32163d9)" style="fill: none; stroke: #b23a48; stroke-width: 2.2"/>
   </g>
   <g id="line2d_53">
    <path d="M 594.96264 338.993549 
L 616.902253 338.993549 
" clip-path="url(#pbec32163d9)" style="fill: none; stroke: #b23a48; stroke-width: 2.2"/>
   </g>
   <g id="line2d_54">
    <path d="M 716.849381 374.149553 
L 738.788994 374.149553 
" clip-path="url(#pbec32163d9)" style="fill: none; stroke: #b23a48; stroke-width: 2.2"/>
   </g>
   <g id="patch_9">
    <path d="M 45.253438 550.512 
L 45.253438 110.52 
" style="fill: none; stroke: #000000; stroke-width: 0.8; stroke-linejoin: miter; stroke-linecap: square"/>
   </g>
   <g id="patch_10">
    <path d="M 800.951232 550.512 
L 800.951232 110.52 
" style="fill: none; stroke: #000000; stroke-width: 0.8; stroke-linejoin: miter; stroke-linecap: square"/>
   </g>
   <g id="patch_11">
    <path d="M 45.253438 550.512 
L 800.951232 550.512 
" style="fill: none; stroke: #000000; stroke-width: 0.8; stroke-linejoin: miter; stroke-linecap: square"/>
   </g>
   <g id="patch_12">
    <path d="M 45.253438 110.52 
L 800.951232 110.52 
" style="fill: none; stroke: #000000; stroke-width: 0.8; stroke-linejoin: miter; stroke-linecap: square"/>
   </g>
   <g id="text_14">
    <text style="font-weight: 700; font-size: 9.1px; font-family: 'DejaVu Sans'; text-anchor: middle; fill: #1d6f8a" x="118.385482" y="151.473212" transform="rotate(-0 118.385482 151.473212)">μ=0.468</text>
   </g>
   <g id="text_15">
    <text style="font-weight: 700; font-size: 9.1px; font-family: 'DejaVu Sans'; text-anchor: middle; fill: #1d6f8a" x="240.272223" y="128.830626" transform="rotate(-0 240.272223 128.830626)">μ=0.553</text>
   </g>
   <g id="text_16">
    <text style="font-weight: 700; font-size: 9.1px; font-family: 'DejaVu Sans'; text-anchor: middle; fill: #1d6f8a" x="362.158964" y="154.392015" transform="rotate(-0 362.158964 154.392015)">μ=0.507</text>
   </g>
   <g id="text_17">
    <text style="font-weight: 700; font-size: 9.1px; font-family: 'DejaVu Sans'; text-anchor: middle; fill: #1d6f8a" x="484.045706" y="138.594404" transform="rotate(-0 484.045706 138.594404)">μ=0.452</text>
   </g>
   <g id="text_18">
    <text style="font-weight: 700; font-size: 9.1px; font-family: 'DejaVu Sans'; text-anchor: middle; fill: #1d6f8a" x="605.932447" y="126.666867" transform="rotate(-0 605.932447 126.666867)">μ=0.528</text>
   </g>
   <g id="text_19">
    <text style="font-weight: 700; font-size: 9.1px; font-family: 'DejaVu Sans'; text-anchor: middle; fill: #1d6f8a" x="727.819188" y="158.908686" transform="rotate(-0 727.819188 158.908686)">μ=0.485</text>
   </g>
   <g id="text_20">
    <text style="font-weight: 700; font-size: 13px; font-family: 'DejaVu Sans'; text-anchor: middle" x="423.102335" y="97.52" transform="rotate(-0 423.102335 97.52)">А. Форма распределений и квартильная структура</text>
   </g>
   <g id="PathCollection_1">
    <defs>
     <path id="m7197404c60" d="M 0 5.196152 
L 5.196152 0 
L 0 -5.196152 
L -5.196152 0 
z
" style="stroke: #ffffff; stroke-width: 0.7"/>
    </defs>
    <g clip-path="url(#pbec32163d9)">
     <use xlink:href="#m7197404c60" x="118.385482" y="359.970119" style="fill: #1d6f8a; stroke: #ffffff; stroke-width: 0.7"/>
     <use xlink:href="#m7197404c60" x="240.272223" y="325.280485" style="fill: #1d6f8a; stroke: #ffffff; stroke-width: 0.7"/>
     <use xlink:href="#m7197404c60" x="362.158964" y="343.870946" style="fill: #1d6f8a; stroke: #ffffff; stroke-width: 0.7"/>
     <use xlink:href="#m7197404c60" x="484.045706" y="366.234473" style="fill: #1d6f8a; stroke: #ffffff; stroke-width: 0.7"/>
     <use xlink:href="#m7197404c60" x="605.932447" y="335.29267" style="fill: #1d6f8a; stroke: #ffffff; stroke-width: 0.7"/>
     <use xlink:href="#m7197404c60" x="727.819188" y="353.050088" style="fill: #1d6f8a; stroke: #ffffff; stroke-width: 0.7"/>
    </g>
   </g>
   <g id="legend_1">
    <g id="patch_13">
     <path d="M 208.255022 619.220404 
L 226.655022 619.220404 
L 226.655022 612.780404 
L 208.255022 612.780404 
z
" style="fill: #afc9d8; opacity: 0.55; stroke: #4c78a8; stroke-linejoin: miter"/>
    </g>
    <g id="text_21">
     <text style="font-size: 9.2px; font-family: 'DejaVu Sans'; text-anchor: start" x="234.015022" y="619.220404" transform="rotate(-0 234.015022 619.220404)">Плотность</text>
    </g>
    <g id="patch_14">
     <path d="M 303.686335 619.220404 
L 322.086335 619.220404 
L 322.086335 612.780404 
L 303.686335 612.780404 
z
" style="fill: #ffffff; stroke: #37474f; stroke-linejoin: miter"/>
    </g>
    <g id="text_22">
     <text style="font-size: 9.2px; font-family: 'DejaVu Sans'; text-anchor: start" x="329.446335" y="619.220404" transform="rotate(-0 329.446335 619.220404)">Межквартильный диапазон</text>
    </g>
    <g id="line2d_55">
     <path d="M 483.178335 616.000404 
L 492.378335 616.000404 
L 501.578335 616.000404 
" style="fill: none; stroke: #b23a48; stroke-width: 2.2; stroke-linecap: square"/>
    </g>
    <g id="text_23">
     <text style="font-size: 9.2px; font-family: 'DejaVu Sans'; text-anchor: start" x="508.938335" y="619.220404" transform="rotate(-0 508.938335 619.220404)">Медиана</text>
    </g>
    <g id="line2d_56">
     <path d="M 570.566835 616.000404 
L 579.766835 616.000404 
L 588.966835 616.000404 
" style="fill: none; stroke: #000000; stroke-opacity: 0; stroke-width: 1.5; stroke-linecap: square"/>
     <defs>
      <path id="med27bf4153" d="M 0 4.949747 
L 4.949747 0 
L 0 -4.949747 
L -4.949747 0 
z
" style="stroke: #ffffff; stroke-linejoin: miter"/>
     </defs>
     <g>
      <use xlink:href="#med27bf4153" x="579.766835" y="616.000404" style="fill: #1d6f8a; stroke: #ffffff; stroke-linejoin: miter"/>
     </g>
    </g>
    <g id="text_24">
     <text style="font-size: 9.2px; font-family: 'DejaVu Sans'; text-anchor: start" x="596.326835" y="619.220404" transform="rotate(-0 596.326835 619.220404)">Среднее</text>
    </g>
   </g>
  </g>
  <g id="axes_2">
   <g id="patch_15">
    <path d="M 911.542529 193.238496 
L 917.633228 193.238496 
L 917.633228 168.598944 
L 911.542529 168.598944 
z
" clip-path="url(#p3b009cfac2)" style="fill: #4c78a8; opacity: 0.85"/>
   </g>
   <g id="patch_16">
    <path d="M 911.542529 246.037536 
L 917.633228 246.037536 
L 917.633228 221.397984 
L 911.542529 221.397984 
z
" clip-path="url(#p3b009cfac2)" style="fill: #59a14f; opacity: 0.85"/>
   </g>
   <g id="patch_17">
    <path d="M 911.542529 298.836576 
L 917.633228 298.836576 
L 917.633228 274.197024 
L 911.542529 274.197024 
z
" clip-path="url(#p3b009cfac2)" style="fill: #f28e2b; opacity: 0.85"/>
   </g>
   <g id="patch_18">
    <path d="M 911.542529 351.635616 
L 917.633228 351.635616 
L 917.633228 326.996064 
L 911.542529 326.996064 
z
" clip-path="url(#p3b009cfac2)" style="fill: #e15759; opacity: 0.85"/>
   </g>
   <g id="patch_19">
    <path d="M 911.542529 404.434656 
L 917.633228 404.434656 
L 917.633228 379.795104 
L 911.542529 379.795104 
z
" clip-path="url(#p3b009cfac2)" style="fill: #b279a2; opacity: 0.85"/>
   </g>
   <g id="patch_20">
    <path d="M 911.542529 457.233696 
L 917.633228 457.233696 
L 917.633228 432.594144 
L 911.542529 432.594144 
z
" clip-path="url(#p3b009cfac2)" style="fill: #76b7b2; opacity: 0.85"/>
   </g>
   <g id="line2d_57">
    <path d="M 910.019855 150.11928 
L 1208.464088 150.11928 
" clip-path="url(#p3b009cfac2)" style="fill: none; stroke: #7f8c8d; stroke-width: 0.9; stroke-linecap: square"/>
   </g>
   <g id="line2d_58">
    <path d="M 913.065204 209.958192 
L 1205.418739 209.958192 
" clip-path="url(#p3b009cfac2)" style="fill: none; stroke: #d6dbdf; stroke-width: 0.7; stroke-linecap: square"/>
   </g>
   <g id="line2d_59">
    <path d="M 913.065204 262.757232 
L 1205.418739 262.757232 
" clip-path="url(#p3b009cfac2)" style="fill: none; stroke: #d6dbdf; stroke-width: 0.7; stroke-linecap: square"/>
   </g>
   <g id="line2d_60">
    <path d="M 913.065204 315.556272 
L 1205.418739 315.556272 
" clip-path="url(#p3b009cfac2)" style="fill: none; stroke: #d6dbdf; stroke-width: 0.7; stroke-linecap: square"/>
   </g>
   <g id="line2d_61">
    <path d="M 913.065204 368.355312 
L 1205.418739 368.355312 
" clip-path="url(#p3b009cfac2)" style="fill: none; stroke: #d6dbdf; stroke-width: 0.7; stroke-linecap: square"/>
   </g>
   <g id="line2d_62">
    <path d="M 913.065204 421.154352 
L 1205.418739 421.154352 
" clip-path="url(#p3b009cfac2)" style="fill: none; stroke: #d6dbdf; stroke-width: 0.7; stroke-linecap: square"/>
   </g>
   <g id="text_25">
    <text style="font-weight: 700; font-size: 9.3px; font-family: 'DejaVu Sans'; text-anchor: start" x="913.065204" y="137.431234" transform="rotate(-0 913.065204 137.431234)">Критерий</text>
   </g>
   <g id="text_26">
    <text style="font-weight: 700; font-size: 9.3px; font-family: 'DejaVu Sans'; text-anchor: middle" x="1077.514067" y="137.38546" transform="rotate(-0 1077.514067 137.38546)">μ / Me</text>
   </g>
   <g id="text_27">
    <text style="font-weight: 700; font-size: 9.3px; font-family: 'DejaVu Sans'; text-anchor: middle" x="1168.874547" y="137.38546" transform="rotate(-0 1168.874547 137.38546)">α / (1−α)</text>
   </g>
   <g id="text_28">
    <text style="font-size: 8.9px; font-family: 'DejaVu Sans'" transform="translate(923.723926 177.889765)">q_acc</text>
    <text style="font-size: 8.9px; font-family: 'DejaVu Sans'" transform="translate(923.723926 188.571503)">точность восстановления</text>
   </g>
   <g id="text_29">
    <text style="font-size: 9px; font-family: 'DejaVu Sans'; text-anchor: middle" x="1077.514067" y="183.256611" transform="rotate(-0 1077.514067 183.256611)">0.468 / 0.468</text>
   </g>
   <g id="text_30">
    <text style="font-size: 9px; font-family: 'DejaVu Sans'; text-anchor: middle" x="1168.874547" y="183.256611" transform="rotate(-0 1168.874547 183.256611)">0.65 / 0.35</text>
   </g>
   <g id="text_31">
    <text style="font-size: 8.9px; font-family: 'DejaVu Sans'" transform="translate(923.723926 230.689153)">q_time</text>
    <text style="font-size: 8.9px; font-family: 'DejaVu Sans'" transform="translate(923.723926 241.370891)">временная эффективность</text>
   </g>
   <g id="text_32">
    <text style="font-size: 9px; font-family: 'DejaVu Sans'; text-anchor: middle" x="1077.514067" y="236.055651" transform="rotate(-0 1077.514067 236.055651)">0.553 / 0.584</text>
   </g>
   <g id="text_33">
    <text style="font-size: 9px; font-family: 'DejaVu Sans'; text-anchor: middle" x="1168.874547" y="236.055651" transform="rotate(-0 1168.874547 236.055651)">0.70 / 0.30</text>
   </g>
   <g id="text_34">
    <text style="font-size: 8.9px; font-family: 'DejaVu Sans'" transform="translate(923.723926 283.488193)">q_effort</text>
    <text style="font-size: 8.9px; font-family: 'DejaVu Sans'" transform="translate(923.723926 294.169931)">трудоёмкость выполнения</text>
   </g>
   <g id="text_35">
    <text style="font-size: 9px; font-family: 'DejaVu Sans'; text-anchor: middle" x="1077.514067" y="288.854691" transform="rotate(-0 1077.514067 288.854691)">0.507 / 0.523</text>
   </g>
   <g id="text_36">
    <text style="font-size: 9px; font-family: 'DejaVu Sans'; text-anchor: middle" x="1168.874547" y="288.854691" transform="rotate(-0 1168.874547 288.854691)">0.70 / 0.30</text>
   </g>
   <g id="text_37">
    <text style="font-size: 8.9px; font-family: 'DejaVu Sans'" transform="translate(923.723926 336.286885)">q_res</text>
    <text style="font-size: 8.9px; font-family: 'DejaVu Sans'" transform="translate(923.723926 346.968623)">результативность контроля</text>
   </g>
   <g id="text_38">
    <text style="font-size: 9px; font-family: 'DejaVu Sans'; text-anchor: middle" x="1077.514067" y="341.653731" transform="rotate(-0 1077.514067 341.653731)">0.452 / 0.427</text>
   </g>
   <g id="text_39">
    <text style="font-size: 9px; font-family: 'DejaVu Sans'; text-anchor: middle" x="1168.874547" y="341.653731" transform="rotate(-0 1168.874547 341.653731)">0.60 / 0.40</text>
   </g>
   <g id="text_40">
    <text style="font-size: 8.9px; font-family: 'DejaVu Sans'" transform="translate(923.723926 389.085925)">q_rep</text>
    <text style="font-size: 8.9px; font-family: 'DejaVu Sans'" transform="translate(923.723926 399.767663)">повторяемость результата</text>
   </g>
   <g id="text_41">
    <text style="font-size: 9px; font-family: 'DejaVu Sans'; text-anchor: middle" x="1077.514067" y="394.452771" transform="rotate(-0 1077.514067 394.452771)">0.528 / 0.519</text>
   </g>
   <g id="text_42">
    <text style="font-size: 9px; font-family: 'DejaVu Sans'; text-anchor: middle" x="1168.874547" y="394.452771" transform="rotate(-0 1168.874547 394.452771)">0.60 / 0.40</text>
   </g>
   <g id="text_43">
    <text style="font-size: 8.9px; font-family: 'DejaVu Sans'" transform="translate(923.723926 441.885313)">q_fit</text>
    <text style="font-size: 8.9px; font-family: 'DejaVu Sans'" transform="translate(923.723926 452.567051)">соответствие условиям</text>
   </g>
   <g id="text_44">
    <text style="font-size: 9px; font-family: 'DejaVu Sans'; text-anchor: middle" x="1077.514067" y="447.251811" transform="rotate(-0 1077.514067 447.251811)">0.485 / 0.433</text>
   </g>
   <g id="text_45">
    <text style="font-size: 9px; font-family: 'DejaVu Sans'; text-anchor: middle" x="1168.874547" y="447.251811" transform="rotate(-0 1168.874547 447.251811)">0.65 / 0.35</text>
   </g>
   <g id="text_46">
    <g id="patch_21">
     <path d="M 919.155902 509.37284 
L 1139.475777 509.37284 
Q 1144.535777 509.37284 1144.535777 504.31284 
L 1144.535777 471.029324 
Q 1144.535777 465.969324 1139.475777 465.969324 
L 919.155902 465.969324 
Q 914.095902 465.969324 914.095902 471.029324 
L 914.095902 504.31284 
Q 914.095902 509.37284 919.155902 509.37284 
z
" style="fill: #f4f7f9; stroke: #aab7b8; stroke-width: 0.8; stroke-linejoin: miter"/>
    </g>
    <text style="font-size: 9.2px; font-family: 'DejaVu Sans'" transform="translate(919.155902 479.097473)">Обозначения весов:</text>
    <text style="font-size: 9.2px; font-family: 'DejaVu Sans'" transform="translate(919.155902 490.13927)">α — вклад направленно нормированных</text>
    <text style="font-size: 9.2px; font-family: 'DejaVu Sans'" transform="translate(919.155902 501.181785)">априорных признаков; 1−α — вклад q_latent.</text>
   </g>
   <g id="text_47">
    <text style="font-weight: 700; font-size: 13px; font-family: 'DejaVu Sans'; text-anchor: middle" x="1059.241971" y="97.52" transform="rotate(-0 1059.241971 97.52)">Б. Сводные характеристики и веса компонентов</text>
   </g>
  </g>
  <g id="text_48">
   <text style="font-weight: 700; font-size: 17px; font-family: 'DejaVu Sans'; text-anchor: middle" x="602.749438" y="18.676016" transform="rotate(-0 602.749438 18.676016)">Рисунок 5.3 — Распределения частных прогнозных критериев</text>
  </g>
  <g id="text_49">
   <text style="font-weight: 700; font-size: 12px; font-family: 'DejaVu Sans'; text-anchor: middle" x="602.749438" y="42.0768" transform="rotate(-0 602.749438 42.0768)">q_j,pred = α_j · B_j(X_prior,norm) + (1 − α_j) · q_latent</text>
  </g>
  <g id="text_50">
   <text style="font-size: 10.7px; font-family: 'DejaVu Sans'; text-anchor: middle" x="602.749438" y="66.5208" transform="rotate(-0 602.749438 66.5208)">N = 150 сценариев; единая шкала [0; 1] обеспечивает сопоставимость шести критериев.</text>
  </g>
  <g id="text_51">
   <g id="patch_22">
    <path d="M 46.199016 654.679836 
L 1159.299859 654.679836 
Q 1164.199859 654.679836 1164.199859 649.779836 
L 1164.199859 639.812164 
Q 1164.199859 634.912164 1159.299859 634.912164 
L 46.199016 634.912164 
Q 41.299016 634.912164 41.299016 639.812164 
L 41.299016 649.779836 
Q 41.299016 654.679836 46.199016 654.679836 
z
" style="fill: #fff8e7; stroke: #c9a227; stroke-width: 0.9; stroke-linejoin: miter"/>
   </g>
   <text style="font-size: 9.8px; font-family: 'DejaVu Sans'; text-anchor: middle" x="602.749438" y="647.425539" transform="rotate(-0 602.749438 647.425539)">Методическое ограничение: показаны априорные q_j,pred, а не фактические q_j,fact. Общая латентная компонента q_latent входит во все шесть критериев, поэтому их распределения не являются независимыми.</text>
  </g>
 </g>
 <defs>
  <clipPath id="pbec32163d9">
   <rect x="45.253438" y="110.52" width="755.697795" height="439.992"/>
  </clipPath>
  <clipPath id="p3b009cfac2">
   <rect x="906.974505" y="110.52" width="304.534932" height="439.992"/>
  </clipPath>
 </defs>
</svg>
